<!--?xml version="1.0" encoding="utf-8"?-->
<!-- Generator: Adobe Illustrator 22.1.0, SVG Export Plug-In . SVG Version: 6.00 Build 0)  -->
<svg version="1.1" id="_x31__1_" xmlns="http://www.w3.org/2000/svg" xmlns:xlink="http://www.w3.org/1999/xlink" x="0px" y="0px" viewBox="0 0 850 815" style="width: 425px; height: 407.5px;" xml:space="preserve">
<style type="text/css">
	.st0{fill:#000000;}
	.st1{fill:#FFF;}
</style>
<g>
	<path class="st0" d="M312.676,802c-0.749,0-1.503-0.018-2.259-0.055c-0.718,0.033-1.435,0.049-2.146,0.049
		c-9.794,0-28.422-3.263-43.129-25.108c-6.556-9.896-10.697-20.425-12.658-26.071c-3.822-10.301-7.26-22.844-10.897-36.114
		c-3.972-14.492-8.475-30.919-13.93-45.871c-4.905-13.54-10.631-25.901-16.577-35.802c-6.524-10.955-13.198-18.754-17.656-23.382
		c-4.143-4.357-11.146-10.76-21.71-17.283c-9.003-5.544-20.457-10.672-33.094-14.811c-11.533-3.807-24.77-7.133-40.528-10.19
		c-0.386-0.075-0.77-0.158-1.152-0.247c-2.09-0.495-4.181-0.867-6.228-1.244c0,0-3.247-0.609-3.376-0.635l-9.448-1.95
		c-6.96-1.253-13.146-2.86-18.137-4.158l-0.641-0.168c-3.657-0.9-15.152-4.004-26.556-9.938c-0.153-0.079-0.305-0.161-0.457-0.243
		C8.745,536.1,3.517,517.987,2.821,506.43c-2.856-18.417,5.267-35.962,22.646-48.597c10.253-7.601,21.592-11.459,27.702-13.538
		c0,0,1.635-0.561,1.763-0.603c7.529-2.51,15.577-4.061,23.849-5.556c4.43-0.751,8.348-1.148,12.138-1.534l1.938-0.198
		c4.761-0.468,9.724-0.917,15.235-0.996c3.167-0.125,6.406-0.191,9.71-0.191c18.976,0,38.18,2.081,57.079,6.186
		c24.732,5.316,48.903,14.399,69.839,26.255c19.478,10.972,38.381,25.557,53.16,41.032c10.275,10.585,25.5,28.504,38.745,52.787
		c11.071,20.057,20.054,43.142,25.908,66.63c12.011,48.223,10.536,91.477,5.151,115.879c-0.054,0.247-0.425,1.767-0.425,1.767
		c-1.532,6.267-4.38,17.933-10.935,28.939C342.413,798.428,323.003,802,312.68,802C312.677,802,312.677,802,312.676,802z"></path>
	<path class="st1" d="M310.953,575.48c-10.129-18.57-22.617-34.638-34.22-46.593c-11.505-12.045-27.515-25.132-46.424-35.782
		c-18.892-10.699-40.505-18.583-61.637-23.123c-21.168-4.598-41.84-6.084-59.807-5.336c-4.526,0.044-8.842,0.436-12.991,0.846
		c-4.146,0.431-8.144,0.788-11.89,1.42c-7.47,1.35-14.194,2.651-19.805,4.523c-4.678,1.631-14.044,4.471-21.403,9.97
		c-7.416,5.353-12.9,12.587-10.798,21.9c-0.112,9.499,6.561,15.696,14.073,19.775c7.557,3.932,15.98,6.499,20.209,7.525
		c5.058,1.313,10.808,2.839,17.154,3.964c3.127,0.644,6.401,1.322,9.812,2.024c3.39,0.649,6.909,1.23,10.432,2.062
		c14.267,2.765,29.59,6.329,44.065,11.107c14.494,4.748,28.055,10.761,39.354,17.719c11.29,6.969,20.544,14.655,27.411,21.877
		c6.905,7.169,14.593,16.742,21.663,28.615c7.102,11.826,13.578,25.928,18.979,40.836c10.881,29.828,17.472,62.308,24.88,82.126
		c1.432,4.171,4.64,12.45,9.39,19.62c4.802,7.135,11.623,13.155,21.064,12.068c9.472,1.13,16.135-5.048,20.734-12.896
		c4.655-7.816,6.748-17.284,7.929-22.042c5.017-22.738,5.224-61.574-4.972-102.505C329.072,614.786,321.177,594.007,310.953,575.48z
		"></path>
	<path class="st0" d="M515.25,792.843c-9.253,0-26.954-2.977-41.554-22.918c-7.444-9.983-11.277-21.114-13.339-27.093
		c0,0-0.511-1.482-0.586-1.716c-9.399-29.26-11.003-72.386-4.189-112.543c3.83-22.615,10.619-45.303,19.628-65.604
		c8.578-19.438,19.557-37.88,31.729-53.275c8.771-11.292,23.733-28.291,44.337-44.04c18.233-14.07,39.57-26.115,61.599-34.747
		c19.819-7.838,41.47-13.432,62.539-16.151c9.886-1.404,18.944-1.771,27.264-1.958c0.218-0.005,0.739-0.007,0.784-0.007
		c8.348,0.038,16.243,0.568,23.46,1.578c0.433,0.062,2.501,0.431,2.501,0.431c6.269,1.13,17.937,3.234,29.155,9.253
		c18.423,9.66,28.954,25.672,29.078,44.174c1.11,11.3-1.018,29.763-21.046,45.984c-9.551,7.583-19.594,12.466-23.929,14.403
		c-8.129,3.875-17.697,7.609-27.818,11.557c-14.051,5.482-29.975,11.693-43.924,19.089c-11.236,5.897-21.491,12.63-29.767,19.532
		c-7.192,5.953-13.962,12.918-19.664,20.213c-5.222,6.559-10.538,15.229-15.131,24.608c-4.97,10.145-9.555,22.422-13.262,35.511
		c-4.118,14.424-7.133,29.405-10.047,43.894c-2.624,13.04-5.103,25.365-8.132,35.61c-1.521,5.556-4.841,15.962-10.574,25.928
		c-13.407,22.8-31.785,27.381-42.784,27.862C519.464,792.7,517.348,792.843,515.25,792.843z"></path>
	<path class="st1" d="M744.752,449.823c-7.838-4.205-17.179-5.617-21.883-6.49c-5.636-0.788-12.214-1.263-19.535-1.297
		c-7.326,0.166-15.395,0.468-23.993,1.701c-17.179,2.201-36.538,6.783-55.797,14.4c-19.251,7.542-38.296,18.239-54.508,30.751
		c-16.279,12.443-29.534,26.557-39.155,38.94c-9.742,12.326-19.831,28.626-27.941,47.002c-8.152,18.369-14.156,38.741-17.525,58.635
		c-6.776,39.924-3.672,77.314,3.2,98.706c1.561,4.468,4.389,13.384,9.676,20.477c5.223,7.133,12.363,12.456,21.708,10.566
		c9.494,0.225,15.803-6.083,20.015-13.244c4.139-7.193,6.694-15.279,7.789-19.338c5.773-19.347,9.882-50.427,18.174-79.476
		c4.112-14.523,9.27-28.431,15.135-40.403c5.864-11.975,12.285-22.132,18.359-29.763c6.013-7.691,14-16.401,23.971-24.656
		c9.936-8.289,21.88-16.132,34.801-22.911c25.796-13.676,55.214-22.73,73.198-31.37c3.798-1.672,11.302-5.438,17.765-10.567
		c6.413-5.194,11.743-12.356,10.175-21.717C758.928,460.248,752.631,453.955,744.752,449.823z"></path>
	<path class="st0" d="M110.477,387.229c-9.824-0.241-19.981-0.489-30.203-2.254L79,384.773c-3.859-0.61-7.85-1.241-12.091-2.269
		c-0.158-0.038-0.313-0.076-0.468-0.118c-3.948-1.026-7.703-2.12-11.171-3.256c-8.429-2.526-21.643-8.373-32.1-16.893
		c-0.238-0.192-0.472-0.388-0.701-0.588C5.227,346.682-1.097,326.939,5.156,308.25c2.472-10.451,9.916-26.343,32.053-36.295
		c7.802-3.712,15.095-5.655,19.952-6.949c0.971-0.259,1.825-0.473,2.516-0.691c0.362-0.115,0.777-0.239,1.145-0.339
		c2.914-0.8,6.014-1.527,9.22-2.165c0.824-0.184,1.665-0.393,2.528-0.605c1.972-0.483,4.007-0.974,6.076-1.396
		c0.203-0.041,0.407-0.08,0.612-0.115c2.45-0.444,5.474-1.168,8.673-1.933c2.97-0.711,6.022-1.437,9.132-2.091
		c13.741-3.376,27.293-7.539,39.219-12.052c13.2-4.985,25.651-10.936,36.029-17.219c10.379-6.316,17.721-12.704,22.142-17.074
		c0.78-0.835,1.58-1.65,2.401-2.473c0.43-0.434,0.892-0.865,1.343-1.382l4.975-6.084c0.672-0.907,1.326-1.846,1.993-2.795
		c0.993-1.412,2.003-2.843,3.058-4.267c0.282-0.382,1.042-1.644,1.597-2.564c0.789-1.311,1.591-2.631,2.436-3.932
		c5.753-9.713,10.958-21.384,15.074-33.791c5.626-16.619,9.281-34.911,12.504-51.048c2.081-10.424,4.049-20.268,6.35-28.745
		c0.073-0.266,0.77-2.656,0.77-2.656c1.556-5.452,4.155-14.55,9.131-23.705c12.393-23.32,30.38-28.73,41.876-29.562
		c2.535-0.42,5.083-0.631,7.616-0.631c9.145,0,26.689,2.986,41.448,22.995c0.086,0.118,0.171,0.235,0.257,0.353
		c8.184,11.449,12.622,24.493,14.24,29.935c8.099,25.574,12.801,70.379,1.808,119.877c-5.257,24-14.18,47.874-25.787,68.958
		c-0.127,0.234-0.258,0.465-0.393,0.693c-0.742,1.267-1.463,2.538-2.178,3.802c-1.973,3.477-4.207,7.416-6.895,11.373l-1.914,2.831
		c-2.309,3.418-4.693,6.952-7.281,10.463c-0.228,0.311-0.461,0.617-0.703,0.916c0,0-9.103,11.385-9.264,11.575
		c-2.783,3.309-5.608,6.238-8.102,8.822c0,0-2.637,2.751-2.802,2.919c-15.218,15.346-33.56,29.218-53.044,40.112
		c-20.358,11.369-43.263,20.582-66.259,26.651c-22.688,6.006-46.017,9.213-67.442,9.269c-0.023,0-0.048,0-0.073,0
		C110.957,387.238,110.718,387.235,110.477,387.229z"></path>
	<path class="st1" d="M41.638,339.564c7.372,6.004,17.36,10.208,22.34,11.645c2.994,0.99,6.277,1.952,9.821,2.873
		c3.534,0.857,7.276,1.405,11.268,2.043c8.016,1.402,16.738,1.637,26.127,1.869c18.674-0.049,39.428-2.841,60.056-8.3
		c20.631-5.444,41.117-13.663,59.448-23.901c18.33-10.249,34.373-22.897,46.551-35.176c2.956-3.132,6.334-6.461,9.287-9.973
		c2.821-3.533,5.766-7.215,8.809-11.019c2.886-3.915,5.649-8.119,8.544-12.376c2.895-4.262,5.331-8.919,8.04-13.537
		c10.307-18.729,18.235-40.105,22.857-61.198c9.419-42.41,5.99-82.427-1.219-104.957c-1.396-4.767-4.769-14.092-10.072-21.508
		c-5.471-7.417-12.789-12.831-22.071-10.608c-9.502,0.013-15.601,6.76-19.574,14.287c-4.133,7.552-6.173,15.997-7.441,20.189
		c-5.455,20.078-9.448,52.179-19.317,81.332c-4.84,14.591-11.013,28.354-18.021,40.07c-1.879,2.837-3.432,5.826-5.356,8.43
		c-1.928,2.599-3.667,5.233-5.505,7.666c-1.924,2.353-3.786,4.631-5.575,6.817c-1.775,2.1-3.518,3.626-5.104,5.381
		c-6.615,6.615-16.056,14.494-28.071,21.804c-12.013,7.271-26.215,14.035-40.824,19.552c-14.611,5.53-29.559,9.919-43.103,13.226
		c-6.743,1.396-13.207,3.213-19.058,4.275c-2.932,0.595-5.778,1.383-8.428,1.966c-2.634,0.515-5.137,1.098-7.487,1.742
		c-3.993,1.273-11.641,2.73-19.074,6.322c-7.182,3.173-14.631,8.437-16.125,17.778C29.695,325.125,34.172,333.084,41.638,339.564z"></path>
	<path class="st0" d="M694.97,353.381c-20.296,0-40.445-2.311-59.889-6.871c-23.382-5.396-46.436-14.532-66.573-26.396
		c-17.243-10.024-33.81-22.902-49.092-38.188c-12.959-12.641-25.918-28.964-37.216-46.953
		c-11.883-18.936-21.812-40.148-28.723-61.353c-7.079-21.713-11.37-43.867-12.407-64.058c-1.021-20.557,0.57-39.014,4.597-53.487
		c2.076-8.565,6.763-20.998,13.961-31.145c0.135-0.187,0.269-0.373,0.406-0.557C470.79,9.945,485.32,2,500.948,2
		c2.974,0,5.966,0.289,8.937,0.864c10.735,1.116,27.647,6.444,40.166,27.171c4.829,7.711,7.665,15.315,9.369,19.885
		c0.295,0.792,0.546,1.491,0.781,2.061c0.223,0.537,0.431,1.081,0.622,1.632c2.685,7.758,5.567,17.205,8.618,27.206l1.977,6.474
		c3.745,12.079,8.479,24.575,13.661,36.045c11.594,26.051,27.051,46.214,36.787,55.61c0.106,0.102,0.211,0.206,0.314,0.307
		c7.094,7.055,14.076,12.729,21.348,17.349c8.561,5.496,19.029,10.48,30.399,14.486c12.132,4.318,25.533,7.69,38.221,10.696
		l4.266,0.981c12.348,2.837,24.012,5.518,33.913,8.887l0.745,0.254c4.91,1.667,15.127,5.137,24.766,11.386
		c21.794,13.974,25.731,32.334,25.712,43.799c1.603,18.091-7.014,34.941-23.986,46.622c-7.879,5.366-17.575,9.693-28.939,12.944
		c-13.864,3.984-31.002,6.301-49.53,6.691C697.625,353.371,696.304,353.381,694.97,353.381z"></path>
	<path class="st1" d="M772.262,288.358c0.644-9.484-5.335-16.041-12.331-20.528c-7.007-4.541-15.044-7.131-19.028-8.493
		c-9.548-3.25-22.027-5.984-35.497-9.095c-13.433-3.184-27.807-6.807-41.2-11.573c-13.427-4.733-25.821-10.616-36.355-17.381
		c-10.567-6.71-19.338-14.382-26.291-21.299c-14.091-13.598-31.219-37.845-43.128-64.609c-6.013-13.306-11.084-26.974-14.974-39.52
		c-3.841-12.537-7.227-23.889-10.27-32.685c-1.532-3.693-3.746-11.025-8.048-17.822c-3.994-6.688-10.093-13.148-19.558-13.491
		c-9.237-2.429-16.58,2.583-22.1,9.989c-5.203,7.334-8.409,16.813-9.502,21.569c-3.272,11.43-4.58,26.986-3.705,44.641
		c0.908,17.647,4.72,37.213,11.009,56.499c6.285,19.291,15.247,38.229,25.681,54.858c10.444,16.627,22.105,31.072,33.132,41.832
		c10.843,10.846,25.462,23.321,43.26,33.669c17.711,10.438,38.28,18.476,58.403,23.121c20.156,4.727,39.746,6.333,56.722,6.073
		c16.981-0.359,31.43-2.503,42.1-5.57c4.46-1.276,13.239-4.039,20.404-8.918C768.153,304.691,773.707,297.774,772.262,288.358z"></path>
</g>
</svg>
