<!--?xml version="1.0" encoding="utf-8"?-->
<!-- Generator: Adobe Illustrator 22.1.0, SVG Export Plug-In . SVG Version: 6.00 Build 0)  -->
<svg version="1.1" id="_x30_" xmlns="http://www.w3.org/2000/svg" xmlns:xlink="http://www.w3.org/1999/xlink" x="0px" y="0px" viewBox="0 0 850 815" style="width: 425px; height: 407.5px;" xml:space="preserve">
<style type="text/css">
	.st1{fill:#FFF;}
	.st0{fill:#000000;}
</style>
<g>
	<path class="st1" d="M430.955,538.072l-129.887-6.792c0,0-0.102-367.275,8.602-454.299c8.704-87.025,99.628-40.73,115.443-34.772
		c15.817,5.958,84.353,31.778,84.353,31.778S432.472,406.199,430.955,538.072z"></path>
	<path class="st1" d="M424.237,619.824l-7.477,147.69l-136.459-21.307c0,0-20.256-122.016,6.791-129.887
		C314.138,608.449,424.237,619.824,424.237,619.824z"></path>
	<path class="st0" d="M303.896,479.146c-3.691-40.736-4.776-74.08-5.223-102.535c-0.393-28.46-0.237-52.053,0.278-73.477
		c1.014-42.839,2.418-77.014,6.25-124.065c1.967-23.522,4.131-43.775,6.411-63.479c1.043-9.86,2.397-19.558,3.59-29.479
		c0.306-2.48,0.614-4.972,0.924-7.482c0.154-1.219,0.308-2.441,0.465-3.669c0.167-0.998,0.269-2.013,0.499-3.011
		c0.774-4.009,1.95-8.031,3.598-11.724c1.667-3.654,3.735-7.068,6.174-9.612c1.203-1.31,2.513-2.316,3.83-3.244
		c1.345-0.767,2.809-1.568,4.19-1.929c2.86-0.876,7.252-0.967,12.898-0.15c2.804,0.38,5.935,0.974,9.36,1.602
		c3.388,0.621,6.849,1.255,10.384,1.905c28.288,5.167,61.46,11.064,102.214,18.122c13.686,2.561,39.485,2.207,37.66-4.713
		c4.348-5.684-19.328-15.938-32.947-18.842c-40.332-9.169-73.217-16.491-101.314-22.607c-3.513-0.761-6.95-1.508-10.318-2.239
		c-3.334-0.714-6.812-1.492-10.547-2.116c-7.367-1.226-15.961-1.998-24.999,0.317c-4.57,1.152-8.552,3.048-12.316,5.228
		c-3.637,2.296-6.92,4.907-9.668,7.75c-5.561,5.672-9.296,11.907-12.168,18.036c-2.816,6.16-4.639,12.317-5.862,18.453
		c-0.335,1.53-0.53,3.077-0.777,4.609c-0.171,1.316-0.342,2.627-0.511,3.933c-0.315,2.542-0.63,5.066-0.943,7.576
		c-1.21,10.049-2.535,19.869-3.542,29.871c-2.205,19.976-4.236,40.521-6.233,64.384c-3.887,47.734-5.964,82.448-6.563,126.092
		c-0.306,21.818,0.022,45.887,1.4,74.9c1.438,29.005,4.011,63.002,9.949,104.405c0.459,3.489,1.325,7.651,2.464,11.856
		c1.178,4.203,2.721,8.44,4.326,12.109c3.241,7.34,6.942,12.365,9.897,10.316c3.396,1.066,5.547-4.841,6.639-12.657
		c0.557-3.913,0.799-8.3,0.885-12.575C304.378,486.725,304.258,482.569,303.896,479.146z"></path>
	<path class="st0" d="M328.034,554.579c19.717,1.378,37.606,2.63,53.992,3.775c8.197,0.534,16.015,1.042,23.5,1.529
		c1.872,0.117,3.723,0.234,5.553,0.348c3.146,0.16,6.255,0.316,9.332,0.471c6.969,0.335,13.786,0.661,20.459,0.98
		c3.366,0.159,6.697,0.315,9.992,0.471l1.237,0.057l0.616,0.028l0.039-0.602l0.152-2.405c0.1-1.603,0.2-3.198,0.298-4.782
		c0.394-6.383,0.78-12.632,1.159-18.759c0.55-8.587,1.078-16.83,1.589-24.783c0.956-11.518,1.841-22.198,2.684-32.361
		c3.711-40.627,7.028-73.014,13.507-117.51c6.673-44.479,12.997-76.522,20.659-116.82c7.754-40.298,17.125-88.815,32.617-166.19
		c2.872-12.962,1.247-38.134-8.129-37.329c-7.959-5.037-20.938,16.642-24.295,29.548c-21.375,76.285-32.939,125.001-41.395,165.745
		c-8.364,40.777-13.915,73.544-20.722,118.928c-6.615,45.415-10.917,78.493-14.116,120.224c-0.623,10.448-1.276,21.425-1.98,33.262
		c-0.101,2.964-0.203,5.983-0.308,9.06l-0.074,2.271l0.039,0.095l0.083,0.224l0.178,0.567l0.049,0.313l-0.195,0.115
		c-0.149,0.08-0.34,0.161-0.584,0.248l-0.193,0.066l-0.105,0.033l-1.242-0.006c-1.833-0.013-3.688-0.026-5.563-0.037
		c-7.502-0.036-15.339-0.071-23.548-0.11c-16.429,0.005-34.36,0.009-54.127,0.013c-13.302-0.221-37.655,6.446-34.959,15.467
		C290.917,545.532,314.747,553.875,328.034,554.579z"></path>
	<path class="st0" d="M402.955,743.678c-31.004-5.269-50.939-8.285-67.351-10.419c-8.127-1.038-15.414-1.969-22.788-2.911
		c-3.625-0.484-7.281-0.956-10.846-1.56c-1.83-0.282-3.693-0.572-5.309-0.936c-0.313-0.064-0.115-0.02-0.171-0.029v0.009
		l-0.007,0.012l-0.042,0.005l-0.052-0.009l-0.007-0.158l0.014-0.005l-0.005-0.067l-0.093-0.53c-0.107-0.765-0.212-1.522-0.318-2.275
		c-0.2-1.549-0.342-3.209-0.474-4.875c-0.474-6.763-0.538-13.945-0.526-22.043c0.108-16.252,0.335-36.436,1.308-68.904
		c0.411-5.418-5.666-16.174-14.649-16.263c-8.66-2.572-17.521,6.548-18.438,12.127c-7.035,32.827-9.471,54.017-10.225,72.154
		c-0.32,9.101-0.217,17.395,0.589,26.467c0.22,2.289,0.469,4.607,0.841,7.079c0.167,1.212,0.393,2.503,0.616,3.788l0.483,2.459
		c0.21,1.041,0.482,2.027,0.736,3.048c2.005,8.089,5.654,16.217,12.86,21.797c0.596,0.48,1.232,0.868,1.828,1.296
		c0.628,0.372,1.286,0.661,1.887,0.976c1.217,0.615,2.319,1.169,3.207,1.617c2.067,0.632,4.104,1.254,6.115,1.869
		c0.99,0.323,2.044,0.516,3.07,0.745c0.973,0.213,1.936,0.423,2.897,0.634c2.439,0.565,4.58,0.939,6.682,1.309
		c4.28,0.806,8.235,1.408,12.171,1.996c7.87,1.165,15.518,2.073,24.061,2.856c17.059,1.501,37.574,2.396,69.384,1.988
		c5.576,0.196,16.201-6.575,15.556-15.568C417.811,752.549,408.42,744.351,402.955,743.678z"></path>
	<path class="st0" d="M308.668,627.912c33.521,4.931,54.596,7.436,72.044,9.083c8.667,0.763,16.453,1.449,24.453,2.153
		c0.985,0.09,1.97,0.181,2.962,0.271l1.488,0.14l0.399,0.033l0.007-0.008l0.066-0.052l0.176-0.018l-0.073,0.171l-0.032,0.027
		l-0.024,0.078l-0.164,1.518c-0.229,2.027-0.454,4.026-0.679,6.01c-0.924,7.971-1.87,15.798-2.767,24.539
		c-1.814,17.49-3.431,38.683-4.974,72.562c-0.516,5.666,5.524,16.888,14.534,16.836c8.665,2.501,17.511-6.746,18.511-12.38
		c7.487-33.236,11.202-54.326,13.639-72.001c1.212-8.842,2.103-16.822,2.909-25.11c0.195-2.082,0.391-4.179,0.589-6.305
		c0.139-1.552,0.278-3.115,0.421-4.693c0.166-2.103,0.335-4.227,0.503-6.376c0.274-4.264,0.628-8.704,0.289-12.904
		c-0.267-2.034-0.511-4.117-1.295-5.821c-0.208-0.414-0.389-0.86-0.623-1.254l-0.78-1.122c-0.506-0.731-1.017-1.466-1.532-2.21
		c-0.902-4.298-4.73-5.606-7.93-7.529c-0.839-0.467-1.669-0.929-2.495-1.388c-0.819-0.469-1.973-0.592-2.933-0.901
		c-2.005-0.54-3.962-1.099-6.113-1.373c-4.163-0.756-8.35-1.266-12.48-1.773c-2.518-0.287-4.996-0.57-7.458-0.852
		c-8.362-0.893-16.394-1.604-25.333-2.151c-17.868-1.08-39.309-1.511-73.396-0.489c-5.726-0.091-16.494,6.844-15.673,15.825
		C293.148,619.285,303.012,627.341,308.668,627.912z"></path>
	<path class="st0" d="M268.414,450.319c-1.701-18.786-5.094-49.831-6.981-82.13c-2.009-32.292-2.302-65.796-1.828-89.17
		c0.567-23.372,2.346-56.83,5.793-89.001c3.32-32.183,8.091-63.046,10.628-81.74c0.946-7.818,4.593-31.053,0.19-30.119
		c-3.436-2.877-10.488,19.839-12.568,27.563c-5.234,18.387-11.559,49.561-15.741,82.253c-4.307,32.68-6.248,66.808-6.822,90.631
		c-0.484,23.825-0.063,58.005,2.784,90.845c2.723,32.845,7.658,64.27,12.068,82.871c1.736,7.811,7.771,30.816,11.33,28.095
		C271.624,481.547,269.016,458.173,268.414,450.319z"></path>
	<path class="st0" d="M487.878,517.727c5.406-32.457,13.089-86.436,22.475-142.267c9.259-55.842,19.948-113.563,27.503-153.929
		c3.76-20.189,8.416-44.736,13.17-71.39c2.366-13.333,4.747-27.192,6.907-41.382c2.107-14.244,4.17-28.615,4.967-43.905
		c0.2-3.822,0.254-7.78,0.086-11.981c-0.069-1.084-0.076-2.074-0.208-3.24l-0.171-1.779c-0.049-0.716-0.195-1.584-0.361-2.415
		c-0.347-1.655-0.514-3.367-1.088-4.936l-0.733-2.394l-1.017-2.251c-1.401-2.954-3.427-5.647-6.028-7.568
		c-1.408-0.851-2.559-1.893-4.216-2.542l-4.295-2.003c-1.811-0.875-3.571-1.521-5.326-2.188c-1.76-0.667-3.51-1.33-5.255-1.993
		c-13.879-4.792-27.198-7.959-39.84-10.409c-25.262-4.834-47.667-6.859-64.614-7.112c-7.071-0.136-21.204-0.052-33.076,1.718
		c-5.947,0.983-11.283,2.124-14.859,3.715c-3.574,1.499-5.343,3.081-4.321,4.7c-0.682,1.744,1.386,3.046,4.964,4.024
		c3.566,0.888,8.719,1.807,14.331,2.509c11.266,1.603,24.528,3.381,31.194,4.429c15.92,2.43,37.158,6.089,60.626,11.912
		c11.699,2.919,24.011,6.469,35.793,11.026c1.425,0.601,2.857,1.204,4.292,1.811c1.442,0.6,2.909,1.188,4.189,1.882
		c0.467,0.232,0.365,0.19,0.379,0.202l0.022,0.03l0.117,0.098l0.156,0.329c0.044,1.147,0.088,2.298,0.13,3.452
		c0.034,2.861-0.062,6.003-0.316,9.271c-0.975,13.093-3.19,27.128-5.443,40.849c-2.3,13.773-4.8,27.437-7.255,40.637
		c-4.984,26.474-9.604,51.015-13.404,71.192c-7.568,40.441-18.13,98.574-26.15,155.129c-8.146,56.529-13.46,111.465-14.394,144.682
		c-0.215,6.94-0.567,20.752,0.167,32.462c0.698,11.709,2.447,21.293,5.93,19.828c3.263,1.949,6.321-7.248,8.965-18.585
		C484.485,538.003,486.729,524.508,487.878,517.727z"></path>
	<path class="st0" d="M318.024,789.196c13.305,4.716,36.269,9.271,60.412,11.292c12.063,1.041,24.396,1.515,35.894,1.51
		c2.875,0.008,5.696-0.011,8.448-0.081c2.763-0.06,5.353-0.081,8.311-0.25c5.791-0.339,12.173-1.08,18.543-3.615
		c3.146-1.25,6.619-3.1,9.88-5.788c3.281-2.671,6.133-6.108,8.169-9.628c4.163-7.134,5.622-14.173,6.739-20.2
		c1.968-11.443,3.628-23.4,4.877-35.387c2.537-23.878,2.962-47.066,1.395-61.002c-0.584-5.851-2.972-23.126-9.799-21.812
		c-6.7-1.516-10.051,15.195-11.344,20.739c-2.933,13.33-5.757,35.445-9.492,58.219c-1.833,11.342-3.852,23.059-5.871,33.578
		c-0.934,4.901-2.114,8.484-3.148,10.062c-0.501,0.843-0.865,1.176-1.212,1.462c-0.357,0.287-0.867,0.608-1.667,0.929
		c-1.549,0.662-4.627,1.268-8.885,1.52c-2.078,0.143-4.699,0.199-7.28,0.289c-2.591,0.1-5.245,0.159-7.951,0.206
		c-10.824,0.215-22.449,0.142-33.876-0.193c-22.862-0.612-44.897-2.533-58.449-2.695c-2.838-0.001-8.472-0.102-13.434,0.621
		c-4.945,0.67-9.252,2.218-9.295,5.666c-1.427,3.154,1.884,6.322,6.306,8.98C309.719,786.22,315.236,788.245,318.024,789.196z"></path>
</g>
</svg>
