<!--?xml version="1.0" encoding="utf-8"?-->
<!-- Generator: Adobe Illustrator 22.1.0, SVG Export Plug-In . SVG Version: 6.00 Build 0)  -->
<svg version="1.1" id="_x32_" xmlns="http://www.w3.org/2000/svg" xmlns:xlink="http://www.w3.org/1999/xlink" x="0px" y="0px" viewBox="0 0 850 815" style="width: 425px; height: 407.5px;" xml:space="preserve">
<g>
	<path fill="#FFF" d="M669.368,127.113C620.767,60.641,542.835,17.405,449.917,5.375c-5.958-0.77-11.845-1.412-17.663-1.916
		C266.154-10.954,148.696,83.901,109.857,178.133c-36.046,87.454-25.011,149.752,33.761,190.453
		c15.724,10.899,31.189,17.074,45.92,18.344c17.194,1.492,32.44-3.749,44.092-15.162c15.954-15.645,23.264-40.986,21.118-73.279
		c-3.956-59.978,53.521-131.915,167.87-147.111c0.33-0.037,3.349-0.396,10.884,0.259c31.421,2.726,124.686,23.742,140.659,82.566
		c14.792,54.567-66.786,102.648-115.533,131.375c-8.294,4.897-15.763,9.301-21.879,13.187
		c-51.738,32.908-74.486,129.858-56.127,183.208c8.386,24.344,24.931,39.332,45.365,41.104c24.583,2.134,47.887-15.804,54.202-41.73
		c1.873-7.658,2.929-15.134,3.965-22.366c3.507-24.799,6.3-44.385,38.032-66.49c10.026-6.984,23.625-14.114,39.362-22.365
		c56.604-29.718,134.128-70.404,150.471-160.523C721.634,236.565,706.088,177.338,669.368,127.113z"></path>
	<path fill="#FFF" d="M438.394,651.656c-9.707-0.843-20.126,0.131-30.963,2.905c-33.878,8.652-59.124,40.878-60.021,76.63
		c-0.782,30.643,17.328,55.439,47.219,64.703c9.73,3.016,19.164,4.936,28.044,5.707c29.622,2.57,47.992-7.803,58.191-16.959
		c13.919-12.507,21.805-30.95,22.239-51.95C503.978,688.36,477.367,655.038,438.394,651.656z"></path>
</g>
</svg>
