<!--?xml version="1.0" encoding="utf-8"?-->
<!-- Generator: Adobe Illustrator 22.1.0, SVG Export Plug-In . SVG Version: 6.00 Build 0)  -->
<svg version="1.1" id="_x30_" xmlns="http://www.w3.org/2000/svg" xmlns:xlink="http://www.w3.org/1999/xlink" x="0px" y="0px" viewBox="0 0 600 600" style="width: 600px; height: 600px;" xml:space="preserve">
<style type="text/css">
	.st1{fill:#FFF;}
</style>
<g>
	<polygon class="st1" points="600,287.476 600,282.649 479.227,291.078 	"></polygon>
	<polygon class="st1" points="600,274.614 600,269.716 489.227,282.446 	"></polygon>
	<polygon class="st1" points="600,259.767 600,254.288 482.878,273.81 	"></polygon>
	<polygon class="st1" points="600,244.406 600,238.943 476.152,265.76 	"></polygon>
	<polygon class="st1" points="600,227.413 600,225.765 489.736,253.572 	"></polygon>
	<polygon class="st1" points="600,214.538 600,211.132 487.578,245.503 	"></polygon>
	<polygon class="st1" points="600,197.366 600,195.447 474.626,239.701 	"></polygon>
	<polygon class="st1" points="600,180.932 600,175.39 476.076,228.503 	"></polygon>
	<polygon class="st1" points="600,166.017 600,159.862 463.227,225.441 	"></polygon>
	<polygon class="st1" points="600,148.318 600,141.943 450.051,222.553 	"></polygon>
	<polygon class="st1" points="600,130.421 600,125.22 451.049,213.318 	"></polygon>
	<polygon class="st1" points="600,108.119 600,105.195 441.937,208.528 	"></polygon>
	<polygon class="st1" points="600,88.221 600,78.095 441.161,198.004 	"></polygon>
	<polygon class="st1" points="600,65.257 600,55.624 444.381,184.742 	"></polygon>
	<polygon class="st1" points="600,36.04 600,32.166 446.183,170.44 	"></polygon>
	<polygon class="st1" points="598.087,0 427.552,173.777 600,8.055 600,0 	"></polygon>
	<polygon class="st1" points="583.5,0 571.369,0 432.593,156.562 	"></polygon>
	<polygon class="st1" points="553.956,0 542.613,0 421.135,153.573 	"></polygon>
	<polygon class="st1" points="525.992,0 522.073,0 407.369,156.216 	"></polygon>
	<polygon class="st1" points="507.223,0 497.615,0 394.425,160.01 	"></polygon>
	<polygon class="st1" points="483.514,0 479.172,0 390.086,150.956 	"></polygon>
	<polygon class="st1" points="468.553,0 460.04,0 383.633,147.242 	"></polygon>
	<polygon class="st1" points="448.136,0 441.335,0 377.961,138.371 	"></polygon>
	<polygon class="st1" points="427.698,0 423.311,0 365.164,144.221 	"></polygon>
	<polygon class="st1" points="411.259,0 408.911,0 363.64,126.563 	"></polygon>
	<polygon class="st1" points="393.427,0 391.162,0 352.765,128.484 	"></polygon>
	<polygon class="st1" points="376.718,0 372.342,0 345.814,115.566 	"></polygon>
	<polygon class="st1" points="361.921,0 356.905,0 337.941,108.386 	"></polygon>
	<polygon class="st1" points="345.631,0 343.507,0 324.813,132.974 	"></polygon>
	<polygon class="st1" points="332.549,0 330.515,0 318.204,126.8 	"></polygon>
	<polygon class="st1" points="315.288,0 311.105,110.286 319.838,0 	"></polygon>
	<polygon class="st1" points="301.705,104.674 303.791,0 301.446,0 	"></polygon>
	<polygon class="st1" points="285.872,0 292.747,115.399 290.55,0 	"></polygon>
	<polygon class="st1" points="276.338,0 273.275,0 284.098,110.628 	"></polygon>
	<polygon class="st1" points="261.15,0 259.324,0 274.335,106.359 	"></polygon>
	<polygon class="st1" points="248.885,0 243.134,0 268.222,123.387 	"></polygon>
	<polygon class="st1" points="233.326,0 227.574,0 260.676,130.344 	"></polygon>
	<polygon class="st1" points="219.276,0 213.166,0 254.59,137.362 	"></polygon>
	<polygon class="st1" points="201.335,0 198.479,0 238.181,114.706 	"></polygon>
	<polygon class="st1" points="184.066,0 179.562,0 234.232,133.038 	"></polygon>
	<polygon class="st1" points="170.149,0 163.269,0 220.706,121.484 	"></polygon>
	<polygon class="st1" points="149.774,0 144.465,0 211.32,125.956 	"></polygon>
	<polygon class="st1" points="134.766,0 126.352,0 209.168,139.128 	"></polygon>
	<polygon class="st1" points="112.808,0 103.339,0 203.318,148.823 	"></polygon>
	<polygon class="st1" points="86.709,0 81.303,0 185.876,141.472 	"></polygon>
	<polygon class="st1" points="65.873,0 60.229,0 195.345,167.484 	"></polygon>
	<polygon class="st1" points="46.105,0 34.875,0 175.699,156.25 	"></polygon>
	<polygon class="st1" points="21.987,0 12.474,0 184.193,177.109 	"></polygon>
	<polygon class="st1" points="0,9.365 0,16.187 158.898,164.924 	"></polygon>
	<polygon class="st1" points="0,37.726 0,46.087 163.954,182.982 	"></polygon>
	<polygon class="st1" points="0,62.595 0,72.68 158.112,190.138 	"></polygon>
	<polygon class="st1" points="0,89.201 0,92.219 148.482,194.3 	"></polygon>
	<polygon class="st1" points="0,109.853 0,113.021 134.619,196.055 	"></polygon>
	<polygon class="st1" points="0,126.859 0,134.95 129.822,204.11 	"></polygon>
	<polygon class="st1" points="0,145.62 0,151.894 130.299,214.464 	"></polygon>
	<polygon class="st1" points="0,161.881 0,168.403 121.832,219.928 	"></polygon>
	<polygon class="st1" points="0,179.263 0,182.56 133.21,233.795 	"></polygon>
	<polygon class="st1" points="0,195.431 0,197.964 115.308,236.406 	"></polygon>
	<polygon class="st1" points="0,211.637 0,216.852 117.277,247.778 	"></polygon>
	<polygon class="st1" points="0,228.931 0,232.537 130.31,260.824 	"></polygon>
	<polygon class="st1" points="0,244.781 0,246.719 112.994,266.184 	"></polygon>
	<polygon class="st1" points="0,257.387 0,260.417 106.473,273.49 	"></polygon>
	<polygon class="st1" points="0,271.536 0,273.33 105.485,282.127 	"></polygon>
	<polygon class="st1" points="0,284.489 0,286.165 126.054,291.492 	"></polygon>
	<polygon class="st1" points="0,296.514 0,299.82 125.849,298.936 	"></polygon>
	<polygon class="st1" points="0,309.595 0,313.457 120.683,306.889 	"></polygon>
	<polygon class="st1" points="0,322.337 0,326.471 105.309,315.836 	"></polygon>
	<polygon class="st1" points="0,337.574 0,339.289 127.258,322.129 	"></polygon>
	<polygon class="st1" points="0,349.486 0,353.625 112.706,332.183 	"></polygon>
	<polygon class="st1" points="0,366.061 0,368.058 114.538,341.456 	"></polygon>
	<polygon class="st1" points="0,380.451 0,383.136 111.544,351.379 	"></polygon>
	<polygon class="st1" points="0,396.109 0,400.018 134.464,354.105 	"></polygon>
	<polygon class="st1" points="0,412.446 0,414.881 132.191,363.577 	"></polygon>
	<polygon class="st1" points="0,431.041 0,433.599 130.967,374.552 	"></polygon>
	<polygon class="st1" points="0,445.102 0,450.829 148.555,374.684 	"></polygon>
	<polygon class="st1" points="0,462.557 0,468.714 152.17,381.606 	"></polygon>
	<polygon class="st1" points="0,479.682 0,485.903 137.706,398.87 	"></polygon>
	<polygon class="st1" points="0,498.348 0,508.035 142.636,406.543 	"></polygon>
	<polygon class="st1" points="0,520.349 0,531.152 148.129,414.236 	"></polygon>
	<polygon class="st1" points="0,547.686 0,557.726 150.585,425.819 	"></polygon>
	<polygon class="st1" points="0,570.911 0,579.974 167.802,421.349 	"></polygon>
	<polygon class="st1" points="0,599.963 0,600 6.227,600 162.603,438.843 	"></polygon>
	<polygon class="st1" points="25.433,600 29.541,600 179.344,432.831 	"></polygon>
	<polygon class="st1" points="50.663,600 56.441,600 186.098,438.666 	"></polygon>
	<polygon class="st1" points="69.554,600 80.585,600 192.38,443.596 	"></polygon>
	<polygon class="st1" points="92.363,600 101.288,600 202.363,444.21 	"></polygon>
	<polygon class="st1" points="112.12,600 117.981,600 203.059,457.267 	"></polygon>
	<polygon class="st1" points="131.255,600 134.771,600 212.727,456.797 	"></polygon>
	<polygon class="st1" points="149.874,600 154.209,600 213.606,475.19 	"></polygon>
	<polygon class="st1" points="169.776,600 173.048,600 225.136,474.672 	"></polygon>
	<polygon class="st1" points="186.92,600 189.339,600 237.302,468.139 	"></polygon>
	<polygon class="st1" points="204.506,600 207.456,600 244.754,476.29 	"></polygon>
	<polygon class="st1" points="221.925,600 225.682,600 258.435,463.663 	"></polygon>
	<polygon class="st1" points="238.054,600 240.959,600 266.624,465.527 	"></polygon>
	<polygon class="st1" points="254.106,600 258.886,600 275.01,472.351 	"></polygon>
	<polygon class="st1" points="268.264,600 273.95,600 283.308,473.352 	"></polygon>
	<polygon class="st1" points="285.629,600 289.607,495.057 282.398,600 	"></polygon>
	<polygon class="st1" points="296.841,600 302.111,600 299.696,474.154 	"></polygon>
	<polygon class="st1" points="312.558,600 317.316,600 308.396,468.65 	"></polygon>
	<polygon class="st1" points="326.713,600 331.068,600 316.692,473.352 	"></polygon>
	<polygon class="st1" points="343.264,600 344.802,600 328.366,493.263 	"></polygon>
	<polygon class="st1" points="358.442,600 361.457,600 336.2,481.163 	"></polygon>
	<polygon class="st1" points="374.434,600 379.083,600 344.475,473.85 	"></polygon>
	<polygon class="st1" points="390.459,600 396.46,600 353.363,471.331 	"></polygon>
	<polygon class="st1" points="405.624,600 411.018,600 362.731,473.767 	"></polygon>
	<polygon class="st1" points="422.534,600 427.25,600 366.926,460.78 	"></polygon>
	<polygon class="st1" points="440.975,600 443.292,600 374.563,457.384 	"></polygon>
	<polygon class="st1" points="456.253,600 460.113,600 383.693,458.737 	"></polygon>
	<polygon class="st1" points="475.927,600 483.972,600 389.565,449.357 	"></polygon>
	<polygon class="st1" points="498.907,600 504.318,600 394.18,440.155 	"></polygon>
	<polygon class="st1" points="516.843,600 524.814,600 415.778,457.324 	"></polygon>
	<polygon class="st1" points="536.766,600 547.541,600 406.037,431.413 	"></polygon>
	<polygon class="st1" points="563.11,600 568.705,600 415.511,430.333 	"></polygon>
	<polygon class="st1" points="588.517,600 592.953,600 428.565,432.669 	"></polygon>
	<polygon class="st1" points="600,590.426 600,576.29 442.042,434.087 	"></polygon>
	<polygon class="st1" points="600,559.575 600,551.167 428.592,409.441 	"></polygon>
	<polygon class="st1" points="600,533.153 600,529.761 442.08,409.614 	"></polygon>
	<polygon class="st1" points="600,513.411 600,509.864 459.616,412.597 	"></polygon>
	<polygon class="st1" points="600,492.856 600,487.229 447.124,393.188 	"></polygon>
	<polygon class="st1" points="600,471.015 600,468.459 456.184,388.365 	"></polygon>
	<polygon class="st1" points="600,451.573 600,448.245 455.788,377.843 	"></polygon>
	<polygon class="st1" points="600,435.527 600,427.928 454.618,367.872 	"></polygon>
	<polygon class="st1" points="600,417.432 600,411.138 472.646,365.755 	"></polygon>
	<polygon class="st1" points="600,399.633 600,394.194 465.724,353.527 	"></polygon>
	<polygon class="st1" points="600,381.142 600,379.071 483.606,349.025 	"></polygon>
	<polygon class="st1" points="600,364.072 600,362.37 480.773,338.095 	"></polygon>
	<polygon class="st1" points="600,350.27 600,348.524 471.84,328.294 	"></polygon>
	<polygon class="st1" points="600,336.629 600,332.8 483.52,321.234 	"></polygon>
	<polygon class="st1" points="600,320.552 600,316.675 479.105,311.111 	"></polygon>
	<polygon class="st1" points="600,307.514 600,301.914 474.132,302.736 	"></polygon>
</g>
</svg>
