<svg width="317" height="58" viewBox="0 0 317 58" fill="none" xmlns="http://www.w3.org/2000/svg">
<path d="M8.416 12.48L25.024 2.88C26.112 2.24 27.08 2.16 27.928 2.64C28.776 3.12 29.2 4 29.2 5.28V36L25.024 38.4V7.68L18.784 11.28V42L14.608 44.4V13.68L8.416 17.28V48L4.24 50.4V19.68C4.24 18.816 4.432 17.912 4.816 16.968C5.2 16.024 5.712 15.144 6.352 14.328C6.992 13.512 7.68 12.896 8.416 12.48ZM25.024 7.68V38.4L20.848 36V5.28L25.024 7.68ZM14.608 13.68V44.4L10.48 42V11.28L14.608 13.68ZM27.904 2.64C27.072 2.16 26.112 2.24 25.024 2.88L8.416 12.48C7.68 12.896 6.992 13.512 6.352 14.328C5.712 15.144 5.2 16.024 4.816 16.968C4.432 17.912 4.24 18.816 4.24 19.68V50.4L0.0639999 48V17.28C0.0639999 16.416 0.256 15.512 0.64 14.568C1.024 13.624 1.536 12.744 2.176 11.928C2.816 11.112 3.504 10.496 4.24 10.08L20.848 0.480001C21.968 -0.159999 22.944 -0.239999 23.776 0.240001L27.904 2.64Z" fill="#FFD214"/>
<path d="M25.024 7.68V38.4L20.848 36V5.28L25.024 7.68Z" fill="url(#paint0_linear_2_13924)"/>
<path d="M14.608 13.68V44.4L10.48 42V11.28L14.608 13.68Z" fill="url(#paint1_linear_2_13924)"/>
<path d="M27.904 2.64C27.072 2.16 26.112 2.24 25.024 2.88L8.416 12.48C7.68 12.896 6.992 13.512 6.352 14.328C5.712 15.144 5.2 16.024 4.816 16.968C4.432 17.912 4.24 18.816 4.24 19.68V50.4L0.0639999 48V17.28C0.0639999 16.416 0.256 15.512 0.64 14.568C1.024 13.624 1.536 12.744 2.176 11.928C2.816 11.112 3.504 10.496 4.24 10.08L20.848 0.480001C21.968 -0.159999 22.944 -0.239999 23.776 0.240001L27.904 2.64Z" fill="url(#paint2_linear_2_13924)"/>
<path d="M8.416 12.48L25.024 2.88C26.112 2.24 27.08 2.16 27.928 2.64C28.776 3.12 29.2 4 29.2 5.28V36L25.024 38.4V7.68L18.784 11.28V42L14.608 44.4V13.68L8.416 17.28V48L4.24 50.4V19.68C4.24 18.816 4.432 17.912 4.816 16.968C5.2 16.024 5.712 15.144 6.352 14.328C6.992 13.512 7.68 12.896 8.416 12.48Z" fill="url(#paint3_linear_2_13924)"/>
<path d="M25.024 2.88C22.176 4.416 19.752 5.744 17.752 6.864C15.752 7.984 14 8.976 12.496 9.84C10.992 10.704 9.536 11.536 8.128 12.336C7.392 12.752 6.712 13.368 6.088 14.184C5.464 15 4.96 15.88 4.576 16.824C4.192 17.768 4 18.672 4 19.536C4 21.296 4 23.128 4 25.032C4 26.936 4.016 29.144 4.048 31.656C4.08 34.168 4.144 37.216 4.24 40.8C4.336 37.312 4.4 34.336 4.432 31.872C4.464 29.408 4.48 27.224 4.48 25.32C4.48 23.416 4.48 21.584 4.48 19.824C4.48 18.96 4.672 18.056 5.056 17.112C5.44 16.168 5.952 15.288 6.592 14.472C7.232 13.656 7.92 13.04 8.656 12.624C10.032 11.824 11.464 10.992 12.952 10.128C14.44 9.264 16.152 8.248 18.088 7.08C20.024 5.912 22.336 4.512 25.024 2.88Z" fill="white"/>
<path d="M41.68 43.68C40.56 44.32 39.584 44.4 38.752 43.92C37.92 43.44 37.504 42.56 37.504 41.28V26.4L41.68 24V38.88L49.984 34.08V19.2L54.112 16.8V42.72C54.112 43.552 53.92 44.448 53.536 45.408C53.152 46.368 52.648 47.256 52.024 48.072C51.4 48.888 50.72 49.504 49.984 49.92L37.504 57.12V52.32L49.984 45.12V34.08C49.984 34.912 49.792 35.808 49.408 36.768C49.024 37.728 48.512 38.616 47.872 39.432C47.232 40.248 46.544 40.864 45.808 41.28L41.68 43.68ZM49.984 34.08V45.12L45.808 42.72V31.68L49.984 34.08ZM49.984 45.12L37.504 52.32L33.328 49.92L45.808 42.72L49.984 45.12ZM37.504 52.32V57.12L33.328 54.72V49.92L37.504 52.32ZM54.112 16.8L49.984 19.2L45.808 16.8L49.984 14.4L54.112 16.8ZM49.984 19.2V34.08L45.808 31.68V16.8L49.984 19.2ZM49.984 34.08L41.68 38.88L37.504 36.48L45.808 31.68L49.984 34.08ZM41.68 24L37.504 26.4L33.328 24L37.504 21.6L41.68 24ZM37.504 26.4V41.28C37.504 42.56 37.92 43.44 38.752 43.92L34.576 41.52C33.744 41.04 33.328 40.16 33.328 38.88V24L37.504 26.4Z" fill="#FFD214"/>
<path d="M49.984 34.08V45.12L45.808 42.72V31.68L49.984 34.08Z" fill="url(#paint4_linear_2_13924)"/>
<path d="M49.984 45.12L37.504 52.32L33.328 49.92L45.808 42.72L49.984 45.12Z" fill="url(#paint5_linear_2_13924)"/>
<path d="M37.504 52.32V57.12L33.328 54.72V49.92L37.504 52.32Z" fill="url(#paint6_linear_2_13924)"/>
<path d="M54.112 16.8L49.984 19.2L45.808 16.8L49.984 14.4L54.112 16.8Z" fill="url(#paint7_linear_2_13924)"/>
<path d="M49.984 19.2V34.08L45.808 31.68V16.8L49.984 19.2Z" fill="url(#paint8_linear_2_13924)"/>
<path d="M49.984 34.08L41.68 38.88L37.504 36.48L45.808 31.68L49.984 34.08Z" fill="url(#paint9_linear_2_13924)"/>
<path d="M41.68 24L37.504 26.4L33.328 24L37.504 21.6L41.68 24Z" fill="url(#paint10_linear_2_13924)"/>
<path d="M37.504 26.4V41.28C37.504 42.56 37.92 43.44 38.752 43.92L34.576 41.52C33.744 41.04 33.328 40.16 33.328 38.88V24L37.504 26.4Z" fill="url(#paint11_linear_2_13924)"/>
<path d="M41.68 43.68C40.56 44.32 39.584 44.4 38.752 43.92C37.92 43.44 37.504 42.56 37.504 41.28V26.4L41.68 24V38.88L49.984 34.08V19.2L54.112 16.8V42.72C54.112 43.552 53.92 44.448 53.536 45.408C53.152 46.368 52.648 47.256 52.024 48.072C51.4 48.888 50.72 49.504 49.984 49.92L37.504 57.12V52.32L49.984 45.12V34.08C49.984 34.912 49.792 35.808 49.408 36.768C49.024 37.728 48.512 38.616 47.872 39.432C47.232 40.248 46.544 40.864 45.808 41.28L41.68 43.68Z" fill="url(#paint12_linear_2_13924)"/>
<path d="M49.984 45.12C47.808 46.272 45.968 47.264 44.464 48.096C42.96 48.928 41.64 49.664 40.504 50.304C39.368 50.944 38.288 51.568 37.264 52.176C37.264 52.784 37.272 53.44 37.288 54.144C37.304 54.848 37.376 55.84 37.504 57.12C37.632 56 37.704 55.096 37.72 54.408C37.736 53.72 37.744 53.072 37.744 52.464C38.8 51.856 39.888 51.224 41.008 50.568C42.128 49.912 43.4 49.152 44.824 48.288C46.248 47.424 47.968 46.368 49.984 45.12ZM41.68 24C40.496 24.512 39.592 24.944 38.968 25.296C38.344 25.648 37.776 25.968 37.264 26.256C37.264 27.536 37.264 28.872 37.264 30.264C37.264 31.656 37.28 33.264 37.312 35.088C37.344 36.912 37.408 39.136 37.504 41.76C37.6 39.232 37.664 37.072 37.696 35.28C37.728 33.488 37.744 31.904 37.744 30.528C37.744 29.152 37.744 27.824 37.744 26.544C38.256 26.256 38.808 25.928 39.4 25.56C39.992 25.192 40.752 24.672 41.68 24ZM54.112 16.8C52.96 17.312 52.072 17.744 51.448 18.096C50.824 18.448 50.256 18.768 49.744 19.056C49.744 20.272 49.744 21.536 49.744 22.848C49.744 24.16 49.76 25.68 49.792 27.408C49.824 29.136 49.888 31.232 49.984 33.696C50.048 31.328 50.096 29.296 50.128 27.6C50.16 25.904 50.184 24.408 50.2 23.112C50.216 21.816 50.224 20.56 50.224 19.344C50.736 19.056 51.288 18.728 51.88 18.36C52.472 17.992 53.216 17.472 54.112 16.8ZM49.984 34.08C48.8 34.592 47.896 35.024 47.272 35.376C46.648 35.728 46.08 36.048 45.568 36.336C45.056 36.624 44.504 36.952 43.912 37.32C43.32 37.688 42.576 38.208 41.68 38.88C42.832 38.336 43.72 37.896 44.344 37.56C44.968 37.224 45.536 36.912 46.048 36.624C46.592 36.336 47.152 36.008 47.728 35.64C48.304 35.272 49.056 34.752 49.984 34.08Z" fill="white"/>
<path d="M62.464 21.6C62.464 20.736 62.656 19.832 63.04 18.888C63.424 17.944 63.936 17.064 64.576 16.248C65.216 15.432 65.904 14.816 66.64 14.4L81.184 6V10.8L66.64 19.2V29.76L81.184 21.36V26.16L66.64 34.56V45.12L81.184 36.72V41.52L66.64 49.92C65.52 50.56 64.544 50.64 63.712 50.16C62.88 49.68 62.464 48.8 62.464 47.52V21.6ZM81.184 36.72L66.64 45.12L62.464 42.72L77.008 34.32L81.184 36.72ZM81.184 21.36L66.64 29.76L62.464 27.36L77.008 18.96L81.184 21.36ZM81.184 6L66.64 14.4C65.904 14.816 65.216 15.432 64.576 16.248C63.936 17.064 63.424 17.944 63.04 18.888C62.656 19.832 62.464 20.736 62.464 21.6V47.52C62.464 48.8 62.88 49.68 63.712 50.16L59.536 47.76C58.704 47.28 58.288 46.4 58.288 45.12V19.2C58.288 18.336 58.48 17.432 58.864 16.488C59.248 15.544 59.76 14.664 60.4 13.848C61.04 13.032 61.728 12.416 62.464 12L77.008 3.6L81.184 6Z" fill="#FFD214"/>
<path d="M81.184 36.72L66.64 45.12L62.464 42.72L77.008 34.32L81.184 36.72Z" fill="url(#paint13_linear_2_13924)"/>
<path d="M81.184 21.36L66.64 29.76L62.464 27.36L77.008 18.96L81.184 21.36Z" fill="url(#paint14_linear_2_13924)"/>
<path d="M81.184 6L66.64 14.4C65.904 14.816 65.216 15.432 64.576 16.248C63.936 17.064 63.424 17.944 63.04 18.888C62.656 19.832 62.464 20.736 62.464 21.6V47.52C62.464 48.8 62.88 49.68 63.712 50.16L59.536 47.76C58.704 47.28 58.288 46.4 58.288 45.12V19.2C58.288 18.336 58.48 17.432 58.864 16.488C59.248 15.544 59.76 14.664 60.4 13.848C61.04 13.032 61.728 12.416 62.464 12L77.008 3.6L81.184 6Z" fill="url(#paint15_linear_2_13924)"/>
<path d="M62.464 21.6C62.464 20.736 62.656 19.832 63.04 18.888C63.424 17.944 63.936 17.064 64.576 16.248C65.216 15.432 65.904 14.816 66.64 14.4L81.184 6V10.8L66.64 19.2V29.76L81.184 21.36V26.16L66.64 34.56V45.12L81.184 36.72V41.52L66.64 49.92C65.52 50.56 64.544 50.64 63.712 50.16C62.88 49.68 62.464 48.8 62.464 47.52V21.6Z" fill="url(#paint16_linear_2_13924)"/>
<path d="M81.184 6C78.656 7.344 76.52 8.504 74.776 9.48C73.032 10.456 71.496 11.32 70.168 12.072C68.84 12.824 67.568 13.552 66.352 14.256C65.616 14.672 64.936 15.288 64.312 16.104C63.688 16.92 63.184 17.8 62.8 18.744C62.416 19.688 62.224 20.592 62.224 21.456C62.224 23.056 62.224 24.728 62.224 26.472C62.224 28.216 62.24 30.224 62.272 32.496C62.304 34.768 62.368 37.536 62.464 40.8C62.56 37.632 62.624 34.928 62.656 32.688C62.688 30.448 62.704 28.464 62.704 26.736C62.704 25.008 62.704 23.344 62.704 21.744C62.704 20.88 62.896 19.976 63.28 19.032C63.664 18.088 64.176 17.208 64.816 16.392C65.456 15.576 66.144 14.96 66.88 14.544C68.096 13.84 69.352 13.104 70.648 12.336C71.944 11.568 73.432 10.68 75.112 9.672C76.792 8.664 78.816 7.44 81.184 6ZM81.184 21.36C79.232 22.352 77.712 23.144 76.624 23.736C75.536 24.328 74.544 24.88 73.648 25.392C72.72 25.936 71.736 26.52 70.696 27.144C69.656 27.768 68.304 28.64 66.64 29.76C68.56 28.768 70.064 27.976 71.152 27.384C72.24 26.792 73.232 26.224 74.128 25.68C75.056 25.168 76.04 24.6 77.08 23.976C78.12 23.352 79.488 22.48 81.184 21.36ZM81.184 36.72C79.232 37.712 77.712 38.504 76.624 39.096C75.536 39.688 74.544 40.24 73.648 40.752C72.72 41.296 71.736 41.88 70.696 42.504C69.656 43.128 68.304 44 66.64 45.12C68.56 44.128 70.064 43.336 71.152 42.744C72.24 42.152 73.232 41.584 74.128 41.04C75.056 40.528 76.04 39.96 77.08 39.336C78.12 38.712 79.488 37.84 81.184 36.72Z" fill="white"/>
<path d="M89.488 24.48L93.664 22.08V26.88C93.664 26.016 93.856 25.112 94.24 24.168C94.624 23.224 95.128 22.344 95.752 21.528C96.376 20.712 97.056 20.096 97.792 19.68L99.04 18.96C100.16 18.32 101.136 18.24 101.968 18.72C102.8 19.2 103.216 20.08 103.216 21.36C103.216 20.496 103.408 19.592 103.792 18.648C104.176 17.704 104.68 16.824 105.304 16.008C105.928 15.192 106.608 14.576 107.344 14.16L108.592 13.44C109.712 12.8 110.688 12.72 111.52 13.2C112.352 13.68 112.768 14.56 112.768 15.84V36.96L108.592 39.36V18.24L103.216 21.36V42.48L99.04 44.88V23.76L93.664 26.88V48L89.488 50.4V24.48ZM108.592 18.24V39.36L104.464 36.96V15.84L108.592 18.24ZM99.04 23.76V44.88L94.864 42.48V21.36L99.04 23.76ZM111.52 13.2C110.688 12.72 109.712 12.8 108.592 13.44L107.344 14.16C106.608 14.576 105.928 15.192 105.304 16.008C104.68 16.824 104.176 17.704 103.792 18.648C103.408 19.592 103.216 20.496 103.216 21.36L99.04 18.96C99.04 18.096 99.232 17.192 99.616 16.248C100 15.304 100.512 14.424 101.152 13.608C101.792 12.792 102.48 12.176 103.216 11.76L104.464 11.04C105.552 10.4 106.512 10.32 107.344 10.8L111.52 13.2ZM89.488 24.48V50.4L85.312 48V22.08L89.488 24.48ZM101.968 18.72C101.136 18.24 100.16 18.32 99.04 18.96L97.792 19.68C97.056 20.096 96.376 20.712 95.752 21.528C95.128 22.344 94.624 23.224 94.24 24.168C93.856 25.112 93.664 26.016 93.664 26.88L89.488 24.48C89.488 23.616 89.68 22.712 90.064 21.768C90.448 20.824 90.96 19.944 91.6 19.128C92.24 18.312 92.928 17.696 93.664 17.28L94.864 16.56C95.984 15.92 96.96 15.84 97.792 16.32L101.968 18.72ZM93.664 22.08L89.488 24.48L85.312 22.08L89.488 19.68L93.664 22.08Z" fill="#FFD214"/>
<path d="M108.592 18.24V39.36L104.464 36.96V15.84L108.592 18.24Z" fill="url(#paint17_linear_2_13924)"/>
<path d="M99.04 23.76V44.88L94.864 42.48V21.36L99.04 23.76Z" fill="url(#paint18_linear_2_13924)"/>
<path d="M111.52 13.2C110.688 12.72 109.712 12.8 108.592 13.44L107.344 14.16C106.608 14.576 105.928 15.192 105.304 16.008C104.68 16.824 104.176 17.704 103.792 18.648C103.408 19.592 103.216 20.496 103.216 21.36L99.04 18.96C99.04 18.096 99.232 17.192 99.616 16.248C100 15.304 100.512 14.424 101.152 13.608C101.792 12.792 102.48 12.176 103.216 11.76L104.464 11.04C105.552 10.4 106.512 10.32 107.344 10.8L111.52 13.2Z" fill="url(#paint19_linear_2_13924)"/>
<path d="M89.488 24.48V50.4L85.312 48V22.08L89.488 24.48Z" fill="url(#paint20_linear_2_13924)"/>
<path d="M101.968 18.72C101.136 18.24 100.16 18.32 99.04 18.96L97.792 19.68C97.056 20.096 96.376 20.712 95.752 21.528C95.128 22.344 94.624 23.224 94.24 24.168C93.856 25.112 93.664 26.016 93.664 26.88L89.488 24.48C89.488 23.616 89.68 22.712 90.064 21.768C90.448 20.824 90.96 19.944 91.6 19.128C92.24 18.312 92.928 17.696 93.664 17.28L94.864 16.56C95.984 15.92 96.96 15.84 97.792 16.32L101.968 18.72Z" fill="url(#paint21_linear_2_13924)"/>
<path d="M93.664 22.08L89.488 24.48L85.312 22.08L89.488 19.68L93.664 22.08Z" fill="url(#paint22_linear_2_13924)"/>
<path d="M89.488 24.48L93.664 22.08V26.88C93.664 26.016 93.856 25.112 94.24 24.168C94.624 23.224 95.128 22.344 95.752 21.528C96.376 20.712 97.056 20.096 97.792 19.68L99.04 18.96C100.16 18.32 101.136 18.24 101.968 18.72C102.8 19.2 103.216 20.08 103.216 21.36C103.216 20.496 103.408 19.592 103.792 18.648C104.176 17.704 104.68 16.824 105.304 16.008C105.928 15.192 106.608 14.576 107.344 14.16L108.592 13.44C109.712 12.8 110.688 12.72 111.52 13.2C112.352 13.68 112.768 14.56 112.768 15.84V36.96L108.592 39.36V18.24L103.216 21.36V42.48L99.04 44.88V23.76L93.664 26.88V48L89.488 50.4V24.48Z" fill="url(#paint23_linear_2_13924)"/>
<path d="M93.664 22.08C92.48 22.592 91.576 23.024 90.952 23.376C90.328 23.728 89.76 24.048 89.248 24.336C89.248 26.096 89.248 27.928 89.248 29.832C89.248 31.736 89.264 33.944 89.296 36.456C89.328 38.968 89.392 42.016 89.488 45.6C89.584 42.112 89.648 39.136 89.68 36.672C89.712 34.208 89.728 32.024 89.728 30.12C89.728 28.216 89.728 26.384 89.728 24.624C90.24 24.336 90.792 24.008 91.384 23.64C91.976 23.272 92.736 22.752 93.664 22.08ZM108.592 13.44C108.176 13.536 107.864 13.632 107.656 13.728C107.448 13.824 107.264 13.92 107.104 14.016C106.368 14.432 105.688 15.048 105.064 15.864C104.44 16.68 103.952 17.576 103.6 18.552C103.248 19.528 103.12 20.464 103.216 21.36C103.28 20.56 103.528 19.696 103.96 18.768C104.392 17.84 104.928 16.968 105.568 16.152C106.208 15.336 106.88 14.72 107.584 14.304C107.744 14.208 107.904 14.104 108.064 13.992C108.224 13.88 108.4 13.696 108.592 13.44ZM99.04 18.96C98.592 19.056 98.272 19.152 98.08 19.248C97.888 19.344 97.712 19.44 97.552 19.536C96.816 19.952 96.136 20.568 95.512 21.384C94.888 22.2 94.4 23.096 94.048 24.072C93.696 25.048 93.568 25.984 93.664 26.88C93.728 26.08 93.968 25.216 94.384 24.288C94.8 23.36 95.328 22.488 95.968 21.672C96.608 20.856 97.296 20.24 98.032 19.824C98.192 19.728 98.352 19.624 98.512 19.512C98.672 19.4 98.848 19.216 99.04 18.96Z" fill="white"/>
<path d="M125.248 22.08L133.552 17.28C134.64 16.64 135.6 16.56 136.432 17.04C137.264 17.52 137.68 18.4 137.68 19.68V37.92C137.68 38.752 137.488 39.648 137.104 40.608C136.72 41.568 136.216 42.456 135.592 43.272C134.968 44.088 134.288 44.704 133.552 45.12L125.248 49.92C124.128 50.56 123.152 50.64 122.32 50.16C121.488 49.68 121.072 48.8 121.072 47.52V29.28C121.072 28.416 121.264 27.512 121.648 26.568C122.032 25.624 122.544 24.744 123.184 23.928C123.824 23.112 124.512 22.496 125.248 22.08ZM125.248 45.12L133.552 40.32V22.08L125.248 26.88V45.12ZM133.552 22.08V40.32L129.376 37.92V19.68L133.552 22.08ZM133.552 40.32L125.248 45.12L121.072 42.72L129.376 37.92L133.552 40.32ZM136.432 17.04C135.6 16.56 134.64 16.64 133.552 17.28L125.248 22.08C124.512 22.496 123.824 23.112 123.184 23.928C122.544 24.744 122.032 25.624 121.648 26.568C121.264 27.512 121.072 28.416 121.072 29.28V47.52C121.072 48.8 121.488 49.68 122.32 50.16L118.144 47.76C117.312 47.28 116.896 46.4 116.896 45.12V26.88C116.896 26.016 117.088 25.112 117.472 24.168C117.856 23.224 118.368 22.344 119.008 21.528C119.648 20.712 120.336 20.096 121.072 19.68L129.376 14.88C130.496 14.24 131.472 14.16 132.304 14.64L136.432 17.04Z" fill="#FFD214"/>
<path d="M133.552 22.08V40.32L129.376 37.92V19.68L133.552 22.08Z" fill="url(#paint24_linear_2_13924)"/>
<path d="M133.552 40.32L125.248 45.12L121.072 42.72L129.376 37.92L133.552 40.32Z" fill="url(#paint25_linear_2_13924)"/>
<path d="M136.432 17.04C135.6 16.56 134.64 16.64 133.552 17.28L125.248 22.08C124.512 22.496 123.824 23.112 123.184 23.928C122.544 24.744 122.032 25.624 121.648 26.568C121.264 27.512 121.072 28.416 121.072 29.28V47.52C121.072 48.8 121.488 49.68 122.32 50.16L118.144 47.76C117.312 47.28 116.896 46.4 116.896 45.12V26.88C116.896 26.016 117.088 25.112 117.472 24.168C117.856 23.224 118.368 22.344 119.008 21.528C119.648 20.712 120.336 20.096 121.072 19.68L129.376 14.88C130.496 14.24 131.472 14.16 132.304 14.64L136.432 17.04Z" fill="url(#paint26_linear_2_13924)"/>
<path d="M125.248 22.08L133.552 17.28C134.64 16.64 135.6 16.56 136.432 17.04C137.264 17.52 137.68 18.4 137.68 19.68V37.92C137.68 38.752 137.488 39.648 137.104 40.608C136.72 41.568 136.216 42.456 135.592 43.272C134.968 44.088 134.288 44.704 133.552 45.12L125.248 49.92C124.128 50.56 123.152 50.64 122.32 50.16C121.488 49.68 121.072 48.8 121.072 47.52V29.28C121.072 28.416 121.264 27.512 121.648 26.568C122.032 25.624 122.544 24.744 123.184 23.928C123.824 23.112 124.512 22.496 125.248 22.08ZM125.248 45.12L133.552 40.32V22.08L125.248 26.88V45.12Z" fill="url(#paint27_linear_2_13924)"/>
<path d="M133.552 17.28C132.08 18.016 130.832 18.664 129.808 19.224C128.784 19.784 127.896 20.272 127.144 20.688C126.392 21.104 125.664 21.52 124.96 21.936C124.224 22.352 123.544 22.968 122.92 23.784C122.296 24.6 121.792 25.48 121.408 26.424C121.024 27.368 120.832 28.272 120.832 29.136C120.832 30.64 120.832 32.224 120.832 33.888C120.832 35.552 120.848 37.464 120.88 39.624C120.912 41.784 120.976 44.416 121.072 47.52C121.168 44.512 121.232 41.944 121.264 39.816C121.296 37.688 121.312 35.8 121.312 34.152C121.312 32.504 121.312 30.928 121.312 29.424C121.312 28.56 121.504 27.656 121.888 26.712C122.272 25.768 122.784 24.888 123.424 24.072C124.064 23.256 124.752 22.64 125.488 22.224C126.512 21.616 127.624 20.96 128.824 20.256C130.024 19.552 131.6 18.56 133.552 17.28ZM133.552 22.08C133.456 25.056 133.392 27.616 133.36 29.76C133.328 31.904 133.312 33.792 133.312 35.424C133.312 37.056 133.312 38.64 133.312 40.176C132.256 40.784 131.136 41.44 129.952 42.144C128.768 42.848 127.2 43.84 125.248 45.12C126.688 44.352 127.92 43.696 128.944 43.152C129.968 42.608 130.856 42.12 131.608 41.688C132.36 41.256 133.088 40.848 133.792 40.464C133.792 38.928 133.784 37.336 133.768 35.688C133.752 34.04 133.728 32.128 133.696 29.952C133.664 27.776 133.616 25.152 133.552 22.08Z" fill="white"/>
<path d="M154.336 21.6C154.336 22.432 154.144 23.328 153.76 24.288C153.376 25.248 152.864 26.136 152.224 26.952C151.584 27.768 150.912 28.384 150.208 28.8L146.032 31.2V26.4L158.512 19.2V45.12C158.512 45.952 158.32 46.848 157.936 47.808C157.552 48.768 157.04 49.656 156.4 50.472C155.76 51.288 155.072 51.904 154.336 52.32L146.032 57.12V52.32L154.336 47.52V21.6ZM156.4 17.52C155.568 18 154.88 18.08 154.336 17.76C153.792 17.44 153.52 16.8 153.52 15.84C153.52 14.88 153.792 13.92 154.336 12.96C154.88 12 155.568 11.28 156.4 10.8C157.264 10.32 157.968 10.24 158.512 10.56C159.056 10.88 159.328 11.52 159.328 12.48C159.328 13.44 159.056 14.4 158.512 15.36C157.968 16.32 157.264 17.04 156.4 17.52ZM154.336 21.6V47.52L150.208 45.12V19.2L154.336 21.6ZM154.336 47.52L146.032 52.32L141.856 49.92L150.208 45.12L154.336 47.52ZM146.032 52.32V57.12L141.856 54.72V49.92L146.032 52.32ZM158.512 19.2L146.032 26.4L141.856 24L154.336 16.8L158.512 19.2ZM146.032 26.4V31.2L141.856 28.8V24L146.032 26.4ZM158.512 10.56C157.968 10.24 157.264 10.32 156.4 10.8C155.568 11.28 154.88 12 154.336 12.96C153.792 13.92 153.52 14.88 153.52 15.84C153.52 16.8 153.792 17.44 154.336 17.76L150.16 15.36C149.616 15.04 149.344 14.4 149.344 13.44C149.344 12.48 149.616 11.52 150.16 10.56C150.704 9.6 151.408 8.88 152.272 8.4C153.104 7.92 153.792 7.84 154.336 8.16L158.512 10.56Z" fill="#FFD214"/>
<path d="M154.336 21.6V47.52L150.208 45.12V19.2L154.336 21.6Z" fill="url(#paint28_linear_2_13924)"/>
<path d="M154.336 47.52L146.032 52.32L141.856 49.92L150.208 45.12L154.336 47.52Z" fill="url(#paint29_linear_2_13924)"/>
<path d="M146.032 52.32V57.12L141.856 54.72V49.92L146.032 52.32Z" fill="url(#paint30_linear_2_13924)"/>
<path d="M158.512 19.2L146.032 26.4L141.856 24L154.336 16.8L158.512 19.2Z" fill="url(#paint31_linear_2_13924)"/>
<path d="M146.032 26.4V31.2L141.856 28.8V24L146.032 26.4Z" fill="url(#paint32_linear_2_13924)"/>
<path d="M158.512 10.56C157.968 10.24 157.264 10.32 156.4 10.8C155.568 11.28 154.88 12 154.336 12.96C153.792 13.92 153.52 14.88 153.52 15.84C153.52 16.8 153.792 17.44 154.336 17.76L150.16 15.36C149.616 15.04 149.344 14.4 149.344 13.44C149.344 12.48 149.616 11.52 150.16 10.56C150.704 9.6 151.408 8.88 152.272 8.4C153.104 7.92 153.792 7.84 154.336 8.16L158.512 10.56Z" fill="url(#paint33_linear_2_13924)"/>
<path d="M154.336 21.6C154.336 22.432 154.144 23.328 153.76 24.288C153.376 25.248 152.864 26.136 152.224 26.952C151.584 27.768 150.912 28.384 150.208 28.8L146.032 31.2V26.4L158.512 19.2V45.12C158.512 45.952 158.32 46.848 157.936 47.808C157.552 48.768 157.04 49.656 156.4 50.472C155.76 51.288 155.072 51.904 154.336 52.32L146.032 57.12V52.32L154.336 47.52V21.6ZM156.4 17.52C155.568 18 154.88 18.08 154.336 17.76C153.792 17.44 153.52 16.8 153.52 15.84C153.52 14.88 153.792 13.92 154.336 12.96C154.88 12 155.568 11.28 156.4 10.8C157.264 10.32 157.968 10.24 158.512 10.56C159.056 10.88 159.328 11.52 159.328 12.48C159.328 13.44 159.056 14.4 158.512 15.36C157.968 16.32 157.264 17.04 156.4 17.52Z" fill="url(#paint34_linear_2_13924)"/>
<path d="M154.336 31.2C154.272 33.856 154.216 36.144 154.168 38.064C154.12 39.984 154.096 41.672 154.096 43.128C154.096 44.584 154.096 46 154.096 47.376L145.792 52.176C145.792 52.784 145.8 53.44 145.816 54.144C145.832 54.848 145.904 55.84 146.032 57.12C146.16 56 146.232 55.096 146.248 54.408C146.264 53.72 146.272 53.072 146.272 52.464L154.576 47.664C154.576 46.288 154.576 44.864 154.576 43.392C154.576 41.92 154.56 40.208 154.528 38.256C154.496 36.304 154.432 33.952 154.336 31.2ZM158.512 19.2C156.336 20.352 154.496 21.344 152.992 22.176C151.488 23.008 150.168 23.744 149.032 24.384C147.896 25.024 146.816 25.648 145.792 26.256C145.792 26.864 145.8 27.52 145.816 28.224C145.832 28.928 145.904 29.92 146.032 31.2C146.16 30.08 146.232 29.176 146.248 28.488C146.264 27.8 146.272 27.152 146.272 26.544C147.328 25.936 148.416 25.304 149.536 24.648C150.656 23.992 151.928 23.232 153.352 22.368C154.776 21.504 156.496 20.448 158.512 19.2ZM156.4 10.8C155.856 10.96 155.4 11.224 155.032 11.592C154.664 11.96 154.352 12.368 154.096 12.816C153.84 13.264 153.648 13.744 153.52 14.256C153.392 14.768 153.392 15.296 153.52 15.84C153.648 15.424 153.792 14.976 153.952 14.496C154.112 14.016 154.32 13.552 154.576 13.104C154.832 12.656 155.128 12.24 155.464 11.856C155.8 11.472 156.112 11.12 156.4 10.8Z" fill="white"/>
<path d="M173.056 42V27.6L166.816 31.2V26.4L183.424 16.8V21.6L177.184 25.2V39.6L183.424 36V40.8L166.816 50.4V45.6L173.056 42ZM175.12 17.28C174.288 17.76 173.592 17.84 173.032 17.52C172.472 17.2 172.192 16.56 172.192 15.6C172.192 14.64 172.472 13.68 173.032 12.72C173.592 11.76 174.288 11.04 175.12 10.56C175.952 10.08 176.648 10 177.208 10.32C177.768 10.64 178.048 11.28 178.048 12.24C178.048 13.2 177.768 14.16 177.208 15.12C176.648 16.08 175.952 16.8 175.12 17.28ZM173.056 42L166.816 45.6L162.64 43.2L168.88 39.6L173.056 42ZM166.816 45.6V50.4L162.64 48V43.2L166.816 45.6ZM183.424 36L177.184 39.6L173.056 37.2L179.296 33.6L183.424 36ZM173.056 27.6V42L168.88 39.6V25.2L173.056 27.6ZM183.424 16.8L166.816 26.4L162.64 24L179.296 14.4L183.424 16.8ZM166.816 26.4V31.2L162.64 28.8V24L166.816 26.4ZM177.232 10.32C176.656 10 175.952 10.08 175.12 10.56C174.288 11.04 173.592 11.76 173.032 12.72C172.472 13.68 172.192 14.64 172.192 15.6C172.192 16.56 172.48 17.2 173.056 17.52L168.88 15.12C168.336 14.8 168.064 14.16 168.064 13.2C168.064 12.24 168.336 11.28 168.88 10.32C169.424 9.36 170.128 8.64 170.992 8.16C171.824 7.68 172.512 7.6 173.056 7.92L177.232 10.32Z" fill="#FFD214"/>
<path d="M173.056 42L166.816 45.6L162.64 43.2L168.88 39.6L173.056 42Z" fill="url(#paint35_linear_2_13924)"/>
<path d="M166.816 45.6V50.4L162.64 48V43.2L166.816 45.6Z" fill="url(#paint36_linear_2_13924)"/>
<path d="M183.424 36L177.184 39.6L173.056 37.2L179.296 33.6L183.424 36Z" fill="url(#paint37_linear_2_13924)"/>
<path d="M173.056 27.6V42L168.88 39.6V25.2L173.056 27.6Z" fill="url(#paint38_linear_2_13924)"/>
<path d="M183.424 16.8L166.816 26.4L162.64 24L179.296 14.4L183.424 16.8Z" fill="url(#paint39_linear_2_13924)"/>
<path d="M166.816 26.4V31.2L162.64 28.8V24L166.816 26.4Z" fill="url(#paint40_linear_2_13924)"/>
<path d="M177.232 10.32C176.656 10 175.952 10.08 175.12 10.56C174.288 11.04 173.592 11.76 173.032 12.72C172.472 13.68 172.192 14.64 172.192 15.6C172.192 16.56 172.48 17.2 173.056 17.52L168.88 15.12C168.336 14.8 168.064 14.16 168.064 13.2C168.064 12.24 168.336 11.28 168.88 10.32C169.424 9.36 170.128 8.64 170.992 8.16C171.824 7.68 172.512 7.6 173.056 7.92L177.232 10.32Z" fill="url(#paint41_linear_2_13924)"/>
<path d="M173.056 42V27.6L166.816 31.2V26.4L183.424 16.8V21.6L177.184 25.2V39.6L183.424 36V40.8L166.816 50.4V45.6L173.056 42ZM175.12 17.28C174.288 17.76 173.592 17.84 173.032 17.52C172.472 17.2 172.192 16.56 172.192 15.6C172.192 14.64 172.472 13.68 173.032 12.72C173.592 11.76 174.288 11.04 175.12 10.56C175.952 10.08 176.648 10 177.208 10.32C177.768 10.64 178.048 11.28 178.048 12.24C178.048 13.2 177.768 14.16 177.208 15.12C176.648 16.08 175.952 16.8 175.12 17.28Z" fill="url(#paint42_linear_2_13924)"/>
<path d="M183.424 16.8C180.576 18.336 178.152 19.664 176.152 20.784C174.152 21.904 172.4 22.896 170.896 23.76C169.392 24.624 167.952 25.456 166.576 26.256C166.576 26.864 166.584 27.52 166.6 28.224C166.616 28.928 166.688 29.92 166.816 31.2C166.944 30.08 167.016 29.176 167.032 28.488C167.048 27.8 167.056 27.152 167.056 26.544C168.432 25.744 169.872 24.912 171.376 24.048C172.88 23.184 174.592 22.168 176.512 21C178.432 19.832 180.736 18.432 183.424 16.8ZM173.056 27.6C172.96 29.936 172.896 31.952 172.864 33.648C172.832 35.344 172.816 36.832 172.816 38.112C172.816 39.392 172.816 40.64 172.816 41.856C172.016 42.304 171.176 42.8 170.296 43.344C169.416 43.888 168.256 44.64 166.816 45.6C168.512 44.768 169.824 44.096 170.752 43.584C171.68 43.072 172.528 42.592 173.296 42.144C173.296 40.928 173.296 39.672 173.296 38.376C173.296 37.08 173.272 35.568 173.224 33.84C173.176 32.112 173.12 30.032 173.056 27.6ZM175.168 10.512C174.624 10.704 174.16 10.976 173.776 11.328C173.392 11.68 173.072 12.08 172.816 12.528C172.56 12.976 172.368 13.456 172.24 13.968C172.112 14.48 172.112 15.008 172.24 15.552C172.368 15.168 172.52 14.728 172.696 14.232C172.872 13.736 173.088 13.264 173.344 12.816C173.6 12.368 173.896 11.952 174.232 11.568C174.568 11.184 174.88 10.832 175.168 10.512Z" fill="white"/>
<path d="M195.952 12.48L212.56 2.88C213.648 2.24 214.616 2.16 215.464 2.64C216.312 3.12 216.736 4 216.736 5.28V36L212.56 38.4V7.68L206.32 11.28V42L202.144 44.4V13.68L195.952 17.28V48L191.776 50.4V19.68C191.776 18.816 191.968 17.912 192.352 16.968C192.736 16.024 193.248 15.144 193.888 14.328C194.528 13.512 195.216 12.896 195.952 12.48ZM212.56 7.68V38.4L208.384 36V5.28L212.56 7.68ZM202.144 13.68V44.4L198.016 42V11.28L202.144 13.68ZM215.44 2.64C214.608 2.16 213.648 2.24 212.56 2.88L195.952 12.48C195.216 12.896 194.528 13.512 193.888 14.328C193.248 15.144 192.736 16.024 192.352 16.968C191.968 17.912 191.776 18.816 191.776 19.68V50.4L187.6 48V17.28C187.6 16.416 187.792 15.512 188.176 14.568C188.56 13.624 189.072 12.744 189.712 11.928C190.352 11.112 191.04 10.496 191.776 10.08L208.384 0.480001C209.504 -0.159999 210.48 -0.239999 211.312 0.240001L215.44 2.64Z" fill="#FFD214"/>
<path d="M212.56 7.68V38.4L208.384 36V5.28L212.56 7.68Z" fill="url(#paint43_linear_2_13924)"/>
<path d="M202.144 13.68V44.4L198.016 42V11.28L202.144 13.68Z" fill="url(#paint44_linear_2_13924)"/>
<path d="M215.44 2.64C214.608 2.16 213.648 2.24 212.56 2.88L195.952 12.48C195.216 12.896 194.528 13.512 193.888 14.328C193.248 15.144 192.736 16.024 192.352 16.968C191.968 17.912 191.776 18.816 191.776 19.68V50.4L187.6 48V17.28C187.6 16.416 187.792 15.512 188.176 14.568C188.56 13.624 189.072 12.744 189.712 11.928C190.352 11.112 191.04 10.496 191.776 10.08L208.384 0.480001C209.504 -0.159999 210.48 -0.239999 211.312 0.240001L215.44 2.64Z" fill="url(#paint45_linear_2_13924)"/>
<path d="M195.952 12.48L212.56 2.88C213.648 2.24 214.616 2.16 215.464 2.64C216.312 3.12 216.736 4 216.736 5.28V36L212.56 38.4V7.68L206.32 11.28V42L202.144 44.4V13.68L195.952 17.28V48L191.776 50.4V19.68C191.776 18.816 191.968 17.912 192.352 16.968C192.736 16.024 193.248 15.144 193.888 14.328C194.528 13.512 195.216 12.896 195.952 12.48Z" fill="url(#paint46_linear_2_13924)"/>
<path d="M212.56 2.88C209.712 4.416 207.288 5.744 205.288 6.864C203.288 7.984 201.536 8.976 200.032 9.84C198.528 10.704 197.072 11.536 195.664 12.336C194.928 12.752 194.248 13.368 193.624 14.184C193 15 192.496 15.88 192.112 16.824C191.728 17.768 191.536 18.672 191.536 19.536C191.536 21.296 191.536 23.128 191.536 25.032C191.536 26.936 191.552 29.144 191.584 31.656C191.616 34.168 191.68 37.216 191.776 40.8C191.872 37.312 191.936 34.336 191.968 31.872C192 29.408 192.016 27.224 192.016 25.32C192.016 23.416 192.016 21.584 192.016 19.824C192.016 18.96 192.208 18.056 192.592 17.112C192.976 16.168 193.488 15.288 194.128 14.472C194.768 13.656 195.456 13.04 196.192 12.624C197.568 11.824 199 10.992 200.488 10.128C201.976 9.264 203.688 8.248 205.624 7.08C207.56 5.912 209.872 4.512 212.56 2.88Z" fill="white"/>
<path d="M225.04 24.48L237.52 17.28C238.608 16.64 239.568 16.56 240.4 17.04C241.232 17.52 241.648 18.4 241.648 19.68V42.72L237.52 45.12V40.32C237.52 41.152 237.328 42.048 236.944 43.008C236.56 43.968 236.048 44.856 235.408 45.672C234.768 46.488 234.08 47.104 233.344 47.52L229.216 49.92C228.096 50.56 227.12 50.64 226.288 50.16C225.456 49.68 225.04 48.8 225.04 47.52V40.8C225.04 39.936 225.232 39.032 225.616 38.088C226 37.144 226.512 36.264 227.152 35.448C227.792 34.632 228.48 34.016 229.216 33.6L237.52 28.8V22.08L225.04 29.28V24.48ZM229.216 45.12L237.52 40.32V33.6L229.216 38.4V45.12ZM237.52 22.08V28.8L233.344 26.4V19.68L237.52 22.08ZM237.52 40.32V45.12L233.344 42.72V37.92L237.52 40.32ZM237.52 33.6V40.32L233.344 37.92V31.2L237.52 33.6ZM237.52 40.32L229.216 45.12L225.04 42.72L233.344 37.92L237.52 40.32ZM237.52 28.8L229.216 33.6C228.48 34.016 227.792 34.632 227.152 35.448C226.512 36.264 226 37.144 225.616 38.088C225.232 39.032 225.04 39.936 225.04 40.8V47.52C225.04 48.8 225.456 49.68 226.288 50.16L222.112 47.76C221.28 47.28 220.864 46.4 220.864 45.12V38.4C220.864 37.536 221.056 36.632 221.44 35.688C221.824 34.744 222.336 33.864 222.976 33.048C223.616 32.232 224.304 31.616 225.04 31.2L233.344 26.4L237.52 28.8ZM240.4 17.04C239.568 16.56 238.608 16.64 237.52 17.28L225.04 24.48L220.864 22.08L233.344 14.88C234.464 14.24 235.44 14.16 236.272 14.64L240.4 17.04ZM225.04 24.48V29.28L220.864 26.88V22.08L225.04 24.48Z" fill="#FFD214"/>
<path d="M237.52 22.08V28.8L233.344 26.4V19.68L237.52 22.08Z" fill="url(#paint47_linear_2_13924)"/>
<path d="M237.52 40.32V45.12L233.344 42.72V37.92L237.52 40.32Z" fill="url(#paint48_linear_2_13924)"/>
<path d="M237.52 33.6V40.32L233.344 37.92V31.2L237.52 33.6Z" fill="url(#paint49_linear_2_13924)"/>
<path d="M237.52 40.32L229.216 45.12L225.04 42.72L233.344 37.92L237.52 40.32Z" fill="url(#paint50_linear_2_13924)"/>
<path d="M237.52 28.8L229.216 33.6C228.48 34.016 227.792 34.632 227.152 35.448C226.512 36.264 226 37.144 225.616 38.088C225.232 39.032 225.04 39.936 225.04 40.8V47.52C225.04 48.8 225.456 49.68 226.288 50.16L222.112 47.76C221.28 47.28 220.864 46.4 220.864 45.12V38.4C220.864 37.536 221.056 36.632 221.44 35.688C221.824 34.744 222.336 33.864 222.976 33.048C223.616 32.232 224.304 31.616 225.04 31.2L233.344 26.4L237.52 28.8Z" fill="url(#paint51_linear_2_13924)"/>
<path d="M240.4 17.04C239.568 16.56 238.608 16.64 237.52 17.28L225.04 24.48L220.864 22.08L233.344 14.88C234.464 14.24 235.44 14.16 236.272 14.64L240.4 17.04Z" fill="url(#paint52_linear_2_13924)"/>
<path d="M225.04 24.48V29.28L220.864 26.88V22.08L225.04 24.48Z" fill="url(#paint53_linear_2_13924)"/>
<path d="M225.04 24.48L237.52 17.28C238.608 16.64 239.568 16.56 240.4 17.04C241.232 17.52 241.648 18.4 241.648 19.68V42.72L237.52 45.12V40.32C237.52 41.152 237.328 42.048 236.944 43.008C236.56 43.968 236.048 44.856 235.408 45.672C234.768 46.488 234.08 47.104 233.344 47.52L229.216 49.92C228.096 50.56 227.12 50.64 226.288 50.16C225.456 49.68 225.04 48.8 225.04 47.52V40.8C225.04 39.936 225.232 39.032 225.616 38.088C226 37.144 226.512 36.264 227.152 35.448C227.792 34.632 228.48 34.016 229.216 33.6L237.52 28.8V22.08L225.04 29.28V24.48ZM229.216 45.12L237.52 40.32V33.6L229.216 38.4V45.12Z" fill="url(#paint54_linear_2_13924)"/>
<path d="M237.52 22.08C237.392 23.68 237.32 24.968 237.304 25.944C237.288 26.92 237.28 27.824 237.28 28.656L228.928 33.456C228.192 33.872 227.512 34.488 226.888 35.304C226.264 36.12 225.76 37 225.376 37.944C224.992 38.888 224.8 39.792 224.8 40.656C224.8 41.328 224.808 42.048 224.824 42.816C224.84 43.584 224.912 44.672 225.04 46.08C225.168 44.832 225.24 43.832 225.256 43.08C225.272 42.328 225.28 41.616 225.28 40.944C225.28 40.08 225.472 39.176 225.856 38.232C226.24 37.288 226.752 36.408 227.392 35.592C228.032 34.776 228.72 34.16 229.456 33.744L237.76 28.944C237.76 28.112 237.752 27.2 237.736 26.208C237.72 25.216 237.648 23.84 237.52 22.08ZM237.52 33.6C237.392 35.2 237.32 36.488 237.304 37.464C237.288 38.44 237.28 39.344 237.28 40.176C236.224 40.784 235.104 41.44 233.92 42.144C232.736 42.848 231.168 43.84 229.216 45.12C230.656 44.352 231.888 43.696 232.912 43.152C233.936 42.608 234.824 42.12 235.576 41.688C236.328 41.256 237.056 40.848 237.76 40.464C237.76 39.632 237.752 38.72 237.736 37.728C237.72 36.736 237.648 35.36 237.52 33.6ZM237.52 17.28C235.344 18.432 233.504 19.424 232 20.256C230.496 21.088 229.176 21.824 228.04 22.464C226.904 23.104 225.824 23.728 224.8 24.336C224.8 24.944 224.808 25.6 224.824 26.304C224.84 27.008 224.912 28 225.04 29.28C225.168 28.16 225.24 27.256 225.256 26.568C225.272 25.88 225.28 25.232 225.28 24.624C226.336 24.016 227.424 23.384 228.544 22.728C229.664 22.072 230.936 21.312 232.36 20.448C233.784 19.584 235.504 18.528 237.52 17.28Z" fill="white"/>
<path d="M262.48 43.2V33.6L254.176 38.4V48L250 50.4V12L254.176 9.6V33.6L262.48 28.8V19.2L266.608 16.8V21.6C266.608 22.432 266.416 23.328 266.032 24.288C265.648 25.248 265.144 26.136 264.52 26.952C263.896 27.768 263.216 28.384 262.48 28.8C263.568 28.16 264.528 28.08 265.36 28.56C266.192 29.04 266.608 29.92 266.608 31.2V40.8L262.48 43.2ZM265.36 28.56C264.528 28.08 263.568 28.16 262.48 28.8L258.304 26.4C259.424 25.76 260.4 25.68 261.232 26.16L265.36 28.56ZM266.608 16.8L262.48 19.2L258.304 16.8L262.48 14.4L266.608 16.8ZM262.48 33.6V43.2L258.304 40.8V31.2L262.48 33.6ZM262.48 19.2V28.8L258.304 26.4V16.8L262.48 19.2ZM262.48 28.8L254.176 33.6L250 31.2L258.304 26.4L262.48 28.8ZM254.176 9.6L250 12L245.824 9.6L250 7.2L254.176 9.6ZM250 12V50.4L245.824 48V9.6L250 12Z" fill="#FFD214"/>
<path d="M265.36 28.56C264.528 28.08 263.568 28.16 262.48 28.8L258.304 26.4C259.424 25.76 260.4 25.68 261.232 26.16L265.36 28.56Z" fill="url(#paint55_linear_2_13924)"/>
<path d="M266.608 16.8L262.48 19.2L258.304 16.8L262.48 14.4L266.608 16.8Z" fill="url(#paint56_linear_2_13924)"/>
<path d="M262.48 33.6V43.2L258.304 40.8V31.2L262.48 33.6Z" fill="url(#paint57_linear_2_13924)"/>
<path d="M262.48 19.2V28.8L258.304 26.4V16.8L262.48 19.2Z" fill="url(#paint58_linear_2_13924)"/>
<path d="M262.48 28.8L254.176 33.6L250 31.2L258.304 26.4L262.48 28.8Z" fill="url(#paint59_linear_2_13924)"/>
<path d="M254.176 9.6L250 12L245.824 9.6L250 7.2L254.176 9.6Z" fill="url(#paint60_linear_2_13924)"/>
<path d="M250 12V50.4L245.824 48V9.6L250 12Z" fill="url(#paint61_linear_2_13924)"/>
<path d="M262.48 43.2V33.6L254.176 38.4V48L250 50.4V12L254.176 9.6V33.6L262.48 28.8V19.2L266.608 16.8V21.6C266.608 22.432 266.416 23.328 266.032 24.288C265.648 25.248 265.144 26.136 264.52 26.952C263.896 27.768 263.216 28.384 262.48 28.8C263.568 28.16 264.528 28.08 265.36 28.56C266.192 29.04 266.608 29.92 266.608 31.2V40.8L262.48 43.2Z" fill="url(#paint62_linear_2_13924)"/>
<path d="M266.608 16.8C265.456 17.312 264.568 17.744 263.944 18.096C263.32 18.448 262.752 18.768 262.24 19.056V28.656C261.184 29.264 260.064 29.92 258.88 30.624C257.696 31.328 256.128 32.32 254.176 33.6C255.616 32.832 256.848 32.176 257.872 31.632C258.896 31.088 259.784 30.6 260.536 30.168C261.288 29.736 262.016 29.328 262.72 28.944V19.344C263.232 19.056 263.784 18.728 264.376 18.36C264.968 17.992 265.712 17.472 266.608 16.8ZM254.176 9.6C252.992 10.112 252.088 10.544 251.464 10.896C250.84 11.248 250.272 11.568 249.76 11.856C249.76 13.968 249.76 16.12 249.76 18.312C249.76 20.504 249.768 22.904 249.784 25.512C249.8 28.12 249.824 31.064 249.856 34.344C249.888 37.624 249.936 41.376 250 45.6C250.064 41.44 250.112 37.744 250.144 34.512C250.176 31.28 250.2 28.368 250.216 25.776C250.232 23.184 250.24 20.792 250.24 18.6C250.24 16.408 250.24 14.256 250.24 12.144C250.752 11.856 251.304 11.528 251.896 11.16C252.488 10.792 253.248 10.272 254.176 9.6Z" fill="white"/>
<path d="M279.136 22.08L287.44 17.28C288.528 16.64 289.488 16.56 290.32 17.04C291.152 17.52 291.568 18.4 291.568 19.68V26.88C291.568 27.712 291.376 28.608 290.992 29.568C290.608 30.528 290.104 31.416 289.48 32.232C288.856 33.048 288.176 33.664 287.44 34.08L283.264 36.48C282.176 37.12 281.216 37.2 280.384 36.72C279.552 36.24 279.136 35.36 279.136 34.08V45.12L291.568 37.92V42.72L279.136 49.92C278.016 50.56 277.04 50.64 276.208 50.16C275.376 49.68 274.96 48.8 274.96 47.52V29.28C274.96 28.416 275.152 27.512 275.536 26.568C275.92 25.624 276.432 24.744 277.072 23.928C277.712 23.112 278.4 22.496 279.136 22.08ZM287.44 22.08L279.136 26.88V34.08L287.44 29.28V22.08ZM291.568 37.92L279.136 45.12L274.96 42.72L287.44 35.52L291.568 37.92ZM287.44 22.08V29.28L283.264 26.88V19.68L287.44 22.08ZM279.136 34.08C279.136 35.36 279.552 36.24 280.384 36.72L276.208 34.32C275.376 33.84 274.96 32.96 274.96 31.68L279.136 34.08ZM287.44 29.28L279.136 34.08L274.96 31.68L283.264 26.88L287.44 29.28ZM290.32 17.04C289.488 16.56 288.528 16.64 287.44 17.28L279.136 22.08C278.4 22.496 277.712 23.112 277.072 23.928C276.432 24.744 275.92 25.624 275.536 26.568C275.152 27.512 274.96 28.416 274.96 29.28V47.52C274.96 48.8 275.376 49.68 276.208 50.16L272.032 47.76C271.2 47.28 270.784 46.4 270.784 45.12V26.88C270.784 26.016 270.976 25.112 271.36 24.168C271.744 23.224 272.256 22.344 272.896 21.528C273.536 20.712 274.224 20.096 274.96 19.68L283.264 14.88C284.384 14.24 285.36 14.16 286.192 14.64L290.32 17.04Z" fill="#FFD214"/>
<path d="M291.568 37.92L279.136 45.12L274.96 42.72L287.44 35.52L291.568 37.92Z" fill="url(#paint63_linear_2_13924)"/>
<path d="M287.44 22.08V29.28L283.264 26.88V19.68L287.44 22.08Z" fill="url(#paint64_linear_2_13924)"/>
<path d="M279.136 34.08C279.136 35.36 279.552 36.24 280.384 36.72L276.208 34.32C275.376 33.84 274.96 32.96 274.96 31.68L279.136 34.08Z" fill="url(#paint65_linear_2_13924)"/>
<path d="M287.44 29.28L279.136 34.08L274.96 31.68L283.264 26.88L287.44 29.28Z" fill="url(#paint66_linear_2_13924)"/>
<path d="M290.32 17.04C289.488 16.56 288.528 16.64 287.44 17.28L279.136 22.08C278.4 22.496 277.712 23.112 277.072 23.928C276.432 24.744 275.92 25.624 275.536 26.568C275.152 27.512 274.96 28.416 274.96 29.28V47.52C274.96 48.8 275.376 49.68 276.208 50.16L272.032 47.76C271.2 47.28 270.784 46.4 270.784 45.12V26.88C270.784 26.016 270.976 25.112 271.36 24.168C271.744 23.224 272.256 22.344 272.896 21.528C273.536 20.712 274.224 20.096 274.96 19.68L283.264 14.88C284.384 14.24 285.36 14.16 286.192 14.64L290.32 17.04Z" fill="url(#paint67_linear_2_13924)"/>
<path d="M279.136 22.08L287.44 17.28C288.528 16.64 289.488 16.56 290.32 17.04C291.152 17.52 291.568 18.4 291.568 19.68V26.88C291.568 27.712 291.376 28.608 290.992 29.568C290.608 30.528 290.104 31.416 289.48 32.232C288.856 33.048 288.176 33.664 287.44 34.08L283.264 36.48C282.176 37.12 281.216 37.2 280.384 36.72C279.552 36.24 279.136 35.36 279.136 34.08V45.12L291.568 37.92V42.72L279.136 49.92C278.016 50.56 277.04 50.64 276.208 50.16C275.376 49.68 274.96 48.8 274.96 47.52V29.28C274.96 28.416 275.152 27.512 275.536 26.568C275.92 25.624 276.432 24.744 277.072 23.928C277.712 23.112 278.4 22.496 279.136 22.08ZM287.44 22.08L279.136 26.88V34.08L287.44 29.28V22.08Z" fill="url(#paint68_linear_2_13924)"/>
<path d="M287.44 22.08C287.312 23.808 287.24 25.192 287.224 26.232C287.208 27.272 287.2 28.24 287.2 29.136C286.144 29.744 285.024 30.4 283.84 31.104C282.656 31.808 281.088 32.8 279.136 34.08C280.576 33.312 281.808 32.656 282.832 32.112C283.856 31.568 284.744 31.08 285.496 30.648C286.248 30.216 286.976 29.808 287.68 29.424C287.68 28.528 287.672 27.544 287.656 26.472C287.64 25.4 287.568 23.936 287.44 22.08ZM287.44 17.28C285.968 18.016 284.72 18.664 283.696 19.224C282.672 19.784 281.784 20.272 281.032 20.688C280.28 21.104 279.552 21.52 278.848 21.936C278.112 22.352 277.432 22.968 276.808 23.784C276.184 24.6 275.68 25.48 275.296 26.424C274.912 27.368 274.72 28.272 274.72 29.136C274.72 30.64 274.72 32.224 274.72 33.888C274.72 35.552 274.736 37.464 274.768 39.624C274.8 41.784 274.864 44.416 274.96 47.52C275.056 44.512 275.12 41.944 275.152 39.816C275.184 37.688 275.2 35.8 275.2 34.152C275.2 32.504 275.2 30.928 275.2 29.424C275.2 28.56 275.392 27.656 275.776 26.712C276.16 25.768 276.672 24.888 277.312 24.072C277.952 23.256 278.64 22.64 279.376 22.224C280.4 21.616 281.512 20.96 282.712 20.256C283.912 19.552 285.488 18.56 287.44 17.28ZM291.568 37.92C289.904 38.752 288.608 39.424 287.68 39.936C286.752 40.448 285.888 40.928 285.088 41.376C284.32 41.824 283.488 42.32 282.592 42.864C281.696 43.408 280.544 44.16 279.136 45.12C280.8 44.288 282.096 43.616 283.024 43.104C283.952 42.592 284.816 42.112 285.616 41.664C286.384 41.216 287.208 40.72 288.088 40.176C288.968 39.632 290.128 38.88 291.568 37.92Z" fill="white"/>
<path d="M299.92 26.4L304.096 24V28.8L308.224 26.4C308.224 25.536 308.416 24.632 308.8 23.688C309.184 22.744 309.696 21.864 310.336 21.048C310.976 20.232 311.664 19.616 312.4 19.2L316.528 16.8V21.6L312.4 24C312.4 24.832 312.208 25.728 311.824 26.688C311.44 27.648 310.928 28.536 310.288 29.352C309.648 30.168 308.96 30.784 308.224 31.2L304.096 33.6V48L299.92 50.4V26.4ZM299.92 26.4V50.4L295.744 48V24L299.92 26.4ZM316.528 16.8L312.4 19.2C311.664 19.616 310.976 20.232 310.336 21.048C309.696 21.864 309.184 22.744 308.8 23.688C308.416 24.632 308.224 25.536 308.224 26.4L304.096 24C304.096 23.136 304.288 22.232 304.672 21.288C305.056 20.344 305.56 19.464 306.184 18.648C306.808 17.832 307.488 17.216 308.224 16.8L312.4 14.4L316.528 16.8ZM308.224 26.4L304.096 28.8L299.92 26.4L304.096 24L308.224 26.4ZM304.096 24L299.92 26.4L295.744 24L299.92 21.6L304.096 24Z" fill="#FFD214"/>
<path d="M299.92 26.4V50.4L295.744 48V24L299.92 26.4Z" fill="url(#paint69_linear_2_13924)"/>
<path d="M316.528 16.8L312.4 19.2C311.664 19.616 310.976 20.232 310.336 21.048C309.696 21.864 309.184 22.744 308.8 23.688C308.416 24.632 308.224 25.536 308.224 26.4L304.096 24C304.096 23.136 304.288 22.232 304.672 21.288C305.056 20.344 305.56 19.464 306.184 18.648C306.808 17.832 307.488 17.216 308.224 16.8L312.4 14.4L316.528 16.8Z" fill="url(#paint70_linear_2_13924)"/>
<path d="M308.224 26.4L304.096 28.8L299.92 26.4L304.096 24L308.224 26.4Z" fill="url(#paint71_linear_2_13924)"/>
<path d="M304.096 24L299.92 26.4L295.744 24L299.92 21.6L304.096 24Z" fill="url(#paint72_linear_2_13924)"/>
<path d="M299.92 26.4L304.096 24V28.8L308.224 26.4C308.224 25.536 308.416 24.632 308.8 23.688C309.184 22.744 309.696 21.864 310.336 21.048C310.976 20.232 311.664 19.616 312.4 19.2L316.528 16.8V21.6L312.4 24C312.4 24.832 312.208 25.728 311.824 26.688C311.44 27.648 310.928 28.536 310.288 29.352C309.648 30.168 308.96 30.784 308.224 31.2L304.096 33.6V48L299.92 50.4V26.4Z" fill="url(#paint73_linear_2_13924)"/>
<path d="M316.528 16.8C315.376 17.312 314.488 17.744 313.864 18.096C313.24 18.448 312.672 18.768 312.16 19.056C311.424 19.472 310.744 20.088 310.12 20.904C309.496 21.72 309.008 22.616 308.656 23.592C308.304 24.568 308.16 25.504 308.224 26.4C308.32 25.6 308.576 24.736 308.992 23.808C309.408 22.88 309.936 22.008 310.576 21.192C311.216 20.376 311.904 19.76 312.64 19.344C313.152 19.056 313.704 18.728 314.296 18.36C314.888 17.992 315.632 17.472 316.528 16.8ZM304.096 24C302.912 24.512 302.008 24.944 301.384 25.296C300.76 25.648 300.192 25.968 299.68 26.256C299.68 27.856 299.68 29.528 299.68 31.272C299.68 33.016 299.696 35.024 299.728 37.296C299.76 39.568 299.824 42.336 299.92 45.6C300.016 42.432 300.08 39.728 300.112 37.488C300.144 35.248 300.16 33.264 300.16 31.536C300.16 29.808 300.16 28.144 300.16 26.544C300.672 26.256 301.224 25.928 301.816 25.56C302.408 25.192 303.168 24.672 304.096 24Z" fill="white"/>
<defs>
<linearGradient id="paint0_linear_2_13924" x1="-2" y1="20.4" x2="10.2909" y2="-0.791262" gradientUnits="userSpaceOnUse">
<stop stop-color="#FF9123"/>
<stop offset="1" stop-color="#FF552D"/>
</linearGradient>
<linearGradient id="paint1_linear_2_13924" x1="-2" y1="32.4" x2="10.2909" y2="11.2087" gradientUnits="userSpaceOnUse">
<stop stop-color="#FF9123"/>
<stop offset="1" stop-color="#FF552D"/>
</linearGradient>
<linearGradient id="paint2_linear_2_13924" x1="-2" y1="46.8" x2="23.8318" y2="2.26244" gradientUnits="userSpaceOnUse">
<stop stop-color="#FF552D"/>
<stop offset="0.516113" stop-color="#FF9123"/>
<stop offset="0.677429" stop-color="#FFFABE"/>
<stop offset="1" stop-color="#FFFABE"/>
</linearGradient>
<linearGradient id="paint3_linear_2_13924" x1="-2" y1="52.8" x2="-14.4422" y2="31.1507" gradientUnits="userSpaceOnUse">
<stop stop-color="#FFD214"/>
<stop offset="1" stop-color="#FFEB6E"/>
</linearGradient>
<linearGradient id="paint4_linear_2_13924" x1="31.264" y1="34.32" x2="35.8471" y2="26.4182" gradientUnits="userSpaceOnUse">
<stop stop-color="#FF552D"/>
<stop offset="1" stop-color="#FF9123"/>
</linearGradient>
<linearGradient id="paint5_linear_2_13924" x1="31.264" y1="48.72" x2="37.5136" y2="37.9448" gradientUnits="userSpaceOnUse">
<stop stop-color="#FFEB6E"/>
<stop offset="1" stop-color="#FF9123"/>
</linearGradient>
<linearGradient id="paint6_linear_2_13924" x1="31.264" y1="53.52" x2="33.3472" y2="49.9283" gradientUnits="userSpaceOnUse">
<stop stop-color="#FF552D"/>
<stop offset="1" stop-color="#FF9123"/>
</linearGradient>
<linearGradient id="paint7_linear_2_13924" x1="31.264" y1="8.4" x2="33.3472" y2="4.80826" gradientUnits="userSpaceOnUse">
<stop stop-color="#FFFABE"/>
<stop offset="1" stop-color="#FFFABE"/>
</linearGradient>
<linearGradient id="paint8_linear_2_13924" x1="31.264" y1="23.28" x2="37.7219" y2="12.1456" gradientUnits="userSpaceOnUse">
<stop stop-color="#FF552D"/>
<stop offset="1" stop-color="#FF9123"/>
</linearGradient>
<linearGradient id="paint9_linear_2_13924" x1="31.264" y1="32.88" x2="36.472" y2="23.9007" gradientUnits="userSpaceOnUse">
<stop stop-color="#FF9123"/>
<stop offset="1" stop-color="#FFEB6E"/>
</linearGradient>
<linearGradient id="paint10_linear_2_13924" x1="31.264" y1="22.8" x2="33.3472" y2="19.2083" gradientUnits="userSpaceOnUse">
<stop stop-color="#FFFABE"/>
<stop offset="1" stop-color="#FFFABE"/>
</linearGradient>
<linearGradient id="paint11_linear_2_13924" x1="31.264" y1="37.68" x2="37.7219" y2="26.5456" gradientUnits="userSpaceOnUse">
<stop stop-color="#FF552D"/>
<stop offset="1" stop-color="#FF9123"/>
</linearGradient>
<linearGradient id="paint12_linear_2_13924" x1="31.264" y1="52.8" x2="18.8218" y2="31.1507" gradientUnits="userSpaceOnUse">
<stop stop-color="#FFD214"/>
<stop offset="1" stop-color="#FFEB6E"/>
</linearGradient>
<linearGradient id="paint13_linear_2_13924" x1="56.224" y1="40.08" x2="64.3485" y2="26.0722" gradientUnits="userSpaceOnUse">
<stop stop-color="#FF9123"/>
<stop offset="1" stop-color="#FFEB6E"/>
</linearGradient>
<linearGradient id="paint14_linear_2_13924" x1="56.224" y1="24.72" x2="64.3485" y2="10.7122" gradientUnits="userSpaceOnUse">
<stop stop-color="#FF9123"/>
<stop offset="1" stop-color="#FFEB6E"/>
</linearGradient>
<linearGradient id="paint15_linear_2_13924" x1="56.224" y1="43.92" x2="78.931" y2="4.77004" gradientUnits="userSpaceOnUse">
<stop stop-color="#FF552D"/>
<stop offset="0.495422" stop-color="#FF9123"/>
<stop offset="0.678894" stop-color="#FFFABE"/>
<stop offset="1" stop-color="#FFFABE"/>
</linearGradient>
<linearGradient id="paint16_linear_2_13924" x1="56.224" y1="52.8" x2="43.7819" y2="31.1507" gradientUnits="userSpaceOnUse">
<stop stop-color="#FFD214"/>
<stop offset="1" stop-color="#FFEB6E"/>
</linearGradient>
<linearGradient id="paint17_linear_2_13924" x1="83.248" y1="24.72" x2="92.4141" y2="8.91635" gradientUnits="userSpaceOnUse">
<stop stop-color="#FF9123"/>
<stop offset="1" stop-color="#FF552D"/>
</linearGradient>
<linearGradient id="paint18_linear_2_13924" x1="83.248" y1="35.76" x2="92.4141" y2="19.9563" gradientUnits="userSpaceOnUse">
<stop stop-color="#FF9123"/>
<stop offset="1" stop-color="#FF552D"/>
</linearGradient>
<linearGradient id="paint19_linear_2_13924" x1="83.248" y1="9.84" x2="88.0394" y2="1.579" gradientUnits="userSpaceOnUse">
<stop stop-color="#FF9123"/>
<stop offset="0.869568" stop-color="#FFFABE"/>
<stop offset="1" stop-color="#FFFABE"/>
</linearGradient>
<linearGradient id="paint20_linear_2_13924" x1="83.248" y1="46.8" x2="94.4973" y2="27.4046" gradientUnits="userSpaceOnUse">
<stop stop-color="#FF552D"/>
<stop offset="1" stop-color="#FF9123"/>
</linearGradient>
<linearGradient id="paint21_linear_2_13924" x1="83.248" y1="20.88" x2="88.0394" y2="12.619" gradientUnits="userSpaceOnUse">
<stop stop-color="#FF9123"/>
<stop offset="0.869568" stop-color="#FFFABE"/>
<stop offset="1" stop-color="#FFFABE"/>
</linearGradient>
<linearGradient id="paint22_linear_2_13924" x1="83.248" y1="20.88" x2="85.3312" y2="17.2883" gradientUnits="userSpaceOnUse">
<stop stop-color="#FFFABE"/>
<stop offset="1" stop-color="#FFFABE"/>
</linearGradient>
<linearGradient id="paint23_linear_2_13924" x1="83.248" y1="52.8" x2="70.8058" y2="31.1507" gradientUnits="userSpaceOnUse">
<stop stop-color="#FFD214"/>
<stop offset="1" stop-color="#FFEB6E"/>
</linearGradient>
<linearGradient id="paint24_linear_2_13924" x1="114.832" y1="29.52" x2="122.748" y2="15.8714" gradientUnits="userSpaceOnUse">
<stop stop-color="#FF9123"/>
<stop offset="1" stop-color="#FF552D"/>
</linearGradient>
<linearGradient id="paint25_linear_2_13924" x1="114.832" y1="39.6" x2="119.207" y2="32.0573" gradientUnits="userSpaceOnUse">
<stop stop-color="#FF9123"/>
<stop offset="1" stop-color="#FFEB6E"/>
</linearGradient>
<linearGradient id="paint26_linear_2_13924" x1="114.832" y1="43.92" x2="131.081" y2="15.9044" gradientUnits="userSpaceOnUse">
<stop stop-color="#FF552D"/>
<stop offset="0.487183" stop-color="#FF9123"/>
<stop offset="0.743591" stop-color="#FFFABE"/>
<stop offset="1" stop-color="#FFFABE"/>
</linearGradient>
<linearGradient id="paint27_linear_2_13924" x1="114.832" y1="52.8" x2="102.39" y2="31.1507" gradientUnits="userSpaceOnUse">
<stop stop-color="#FFD214"/>
<stop offset="1" stop-color="#FFEB6E"/>
</linearGradient>
<linearGradient id="paint28_linear_2_13924" x1="139.792" y1="39.12" x2="150.208" y2="21.1613" gradientUnits="userSpaceOnUse">
<stop stop-color="#FF9123"/>
<stop offset="1" stop-color="#FF552D"/>
</linearGradient>
<linearGradient id="paint29_linear_2_13924" x1="139.792" y1="48.72" x2="145.833" y2="38.304" gradientUnits="userSpaceOnUse">
<stop stop-color="#FFD214"/>
<stop offset="1" stop-color="#FF9123"/>
</linearGradient>
<linearGradient id="paint30_linear_2_13924" x1="139.792" y1="53.52" x2="141.875" y2="49.9283" gradientUnits="userSpaceOnUse">
<stop stop-color="#FF552D"/>
<stop offset="1" stop-color="#FF9123"/>
</linearGradient>
<linearGradient id="paint31_linear_2_13924" x1="139.792" y1="22.8" x2="146.042" y2="12.0248" gradientUnits="userSpaceOnUse">
<stop stop-color="#FFFABE"/>
<stop offset="1" stop-color="#FFD214"/>
</linearGradient>
<linearGradient id="paint32_linear_2_13924" x1="139.792" y1="27.6" x2="141.875" y2="24.0083" gradientUnits="userSpaceOnUse">
<stop stop-color="#FF9123"/>
<stop offset="1" stop-color="#FF9123"/>
</linearGradient>
<linearGradient id="paint33_linear_2_13924" x1="139.792" y1="9.36" x2="143.333" y2="3.25404" gradientUnits="userSpaceOnUse">
<stop stop-color="#FF552D"/>
<stop offset="0.178406" stop-color="#FF9123"/>
<stop offset="1" stop-color="#FFFABE"/>
</linearGradient>
<linearGradient id="paint34_linear_2_13924" x1="139.792" y1="52.8" x2="127.35" y2="31.1507" gradientUnits="userSpaceOnUse">
<stop stop-color="#FFD214"/>
<stop offset="1" stop-color="#FFEB6E"/>
</linearGradient>
<linearGradient id="paint35_linear_2_13924" x1="160.576" y1="42" x2="164.534" y2="35.1757" gradientUnits="userSpaceOnUse">
<stop stop-color="#FFEB6E"/>
<stop offset="1" stop-color="#FF9123"/>
</linearGradient>
<linearGradient id="paint36_linear_2_13924" x1="160.576" y1="46.8" x2="162.659" y2="43.2083" gradientUnits="userSpaceOnUse">
<stop stop-color="#FF552D"/>
<stop offset="1" stop-color="#FF9123"/>
</linearGradient>
<linearGradient id="paint37_linear_2_13924" x1="160.576" y1="30.48" x2="163.909" y2="24.7332" gradientUnits="userSpaceOnUse">
<stop stop-color="#FF9123"/>
<stop offset="1" stop-color="#FFEB6E"/>
</linearGradient>
<linearGradient id="paint38_linear_2_13924" x1="160.576" y1="34.8" x2="166.826" y2="24.0248" gradientUnits="userSpaceOnUse">
<stop stop-color="#FF9123"/>
<stop offset="1" stop-color="#FF552D"/>
</linearGradient>
<linearGradient id="paint39_linear_2_13924" x1="160.576" y1="22.8" x2="168.909" y2="8.43304" gradientUnits="userSpaceOnUse">
<stop stop-color="#FFFABE"/>
<stop offset="0.55072" stop-color="#FFD214"/>
<stop offset="1" stop-color="#FFFABE"/>
</linearGradient>
<linearGradient id="paint40_linear_2_13924" x1="160.576" y1="27.6" x2="162.659" y2="24.0083" gradientUnits="userSpaceOnUse">
<stop stop-color="#FF9123"/>
<stop offset="1" stop-color="#FF9123"/>
</linearGradient>
<linearGradient id="paint41_linear_2_13924" x1="160.576" y1="10.32" x2="164.117" y2="4.21404" gradientUnits="userSpaceOnUse">
<stop stop-color="#FF552D"/>
<stop offset="0.178406" stop-color="#FF9123"/>
<stop offset="1" stop-color="#FFFABE"/>
</linearGradient>
<linearGradient id="paint42_linear_2_13924" x1="160.576" y1="52.8" x2="148.134" y2="31.1507" gradientUnits="userSpaceOnUse">
<stop stop-color="#FFD214"/>
<stop offset="1" stop-color="#FFEB6E"/>
</linearGradient>
<linearGradient id="paint43_linear_2_13924" x1="185.536" y1="20.4" x2="197.827" y2="-0.791262" gradientUnits="userSpaceOnUse">
<stop stop-color="#FF9123"/>
<stop offset="1" stop-color="#FF552D"/>
</linearGradient>
<linearGradient id="paint44_linear_2_13924" x1="185.536" y1="32.4" x2="197.827" y2="11.2087" gradientUnits="userSpaceOnUse">
<stop stop-color="#FF9123"/>
<stop offset="1" stop-color="#FF552D"/>
</linearGradient>
<linearGradient id="paint45_linear_2_13924" x1="185.536" y1="46.8" x2="211.368" y2="2.26244" gradientUnits="userSpaceOnUse">
<stop stop-color="#FF552D"/>
<stop offset="0.516113" stop-color="#FF9123"/>
<stop offset="0.677429" stop-color="#FFFABE"/>
<stop offset="1" stop-color="#FFFABE"/>
</linearGradient>
<linearGradient id="paint46_linear_2_13924" x1="185.536" y1="52.8" x2="173.094" y2="31.1507" gradientUnits="userSpaceOnUse">
<stop stop-color="#FFD214"/>
<stop offset="1" stop-color="#FFEB6E"/>
</linearGradient>
<linearGradient id="paint47_linear_2_13924" x1="218.8" y1="18" x2="221.716" y2="12.9716" gradientUnits="userSpaceOnUse">
<stop stop-color="#FF9123"/>
<stop offset="1" stop-color="#FF552D"/>
</linearGradient>
<linearGradient id="paint48_linear_2_13924" x1="218.8" y1="34.32" x2="220.55" y2="31.3029" gradientUnits="userSpaceOnUse">
<stop stop-color="#FF9123"/>
<stop offset="1" stop-color="#FF552D"/>
</linearGradient>
<linearGradient id="paint49_linear_2_13924" x1="218.8" y1="29.568" x2="221.712" y2="24.4597" gradientUnits="userSpaceOnUse">
<stop stop-color="#FF9123"/>
<stop offset="1" stop-color="#FF552D"/>
</linearGradient>
<linearGradient id="paint50_linear_2_13924" x1="218.8" y1="39.6" x2="223.8" y2="30.9798" gradientUnits="userSpaceOnUse">
<stop stop-color="#FF9123"/>
<stop offset="1" stop-color="#FFEB6E"/>
</linearGradient>
<linearGradient id="paint51_linear_2_13924" x1="218.8" y1="43.92" x2="230.049" y2="24.5246" gradientUnits="userSpaceOnUse">
<stop stop-color="#FF552D"/>
<stop offset="0.259277" stop-color="#FF9123"/>
<stop offset="0.629639" stop-color="#FF9123"/>
<stop offset="1" stop-color="#FFEB6E"/>
</linearGradient>
<linearGradient id="paint52_linear_2_13924" x1="218.8" y1="20.88" x2="225.05" y2="10.1048" gradientUnits="userSpaceOnUse">
<stop stop-color="#FFFABE"/>
<stop offset="1" stop-color="#FFFABE"/>
</linearGradient>
<linearGradient id="paint53_linear_2_13924" x1="218.8" y1="25.68" x2="220.883" y2="22.0883" gradientUnits="userSpaceOnUse">
<stop stop-color="#FF9123"/>
<stop offset="1" stop-color="#FF9123"/>
</linearGradient>
<linearGradient id="paint54_linear_2_13924" x1="218.8" y1="52.8" x2="206.358" y2="31.1507" gradientUnits="userSpaceOnUse">
<stop stop-color="#FFD214"/>
<stop offset="1" stop-color="#FFEB6E"/>
</linearGradient>
<linearGradient id="paint55_linear_2_13924" x1="243.76" y1="17.52" x2="244.385" y2="16.4425" gradientUnits="userSpaceOnUse">
<stop stop-color="#FF552D"/>
<stop offset="1" stop-color="#FFEB6E"/>
</linearGradient>
<linearGradient id="paint56_linear_2_13924" x1="243.76" y1="8.4" x2="245.843" y2="4.80826" gradientUnits="userSpaceOnUse">
<stop stop-color="#FFFABE"/>
<stop offset="1" stop-color="#FFFABE"/>
</linearGradient>
<linearGradient id="paint57_linear_2_13924" x1="243.76" y1="32.4" x2="247.926" y2="25.2165" gradientUnits="userSpaceOnUse">
<stop stop-color="#FF9123"/>
<stop offset="1" stop-color="#FF552D"/>
</linearGradient>
<linearGradient id="paint58_linear_2_13924" x1="243.76" y1="18" x2="247.926" y2="10.8165" gradientUnits="userSpaceOnUse">
<stop stop-color="#FF552D"/>
<stop offset="1" stop-color="#FF9123"/>
</linearGradient>
<linearGradient id="paint59_linear_2_13924" x1="243.76" y1="27.6" x2="247.926" y2="20.4165" gradientUnits="userSpaceOnUse">
<stop stop-color="#FF9123"/>
<stop offset="1" stop-color="#FFEB6E"/>
</linearGradient>
<linearGradient id="paint60_linear_2_13924" x1="243.76" y1="8.4" x2="245.843" y2="4.80826" gradientUnits="userSpaceOnUse">
<stop stop-color="#FFFABE"/>
<stop offset="1" stop-color="#FFFABE"/>
</linearGradient>
<linearGradient id="paint61_linear_2_13924" x1="243.76" y1="46.8" x2="260.426" y2="18.0661" gradientUnits="userSpaceOnUse">
<stop stop-color="#FF552D"/>
<stop offset="1" stop-color="#FF9123"/>
</linearGradient>
<linearGradient id="paint62_linear_2_13924" x1="243.76" y1="52.8" x2="231.318" y2="31.1507" gradientUnits="userSpaceOnUse">
<stop stop-color="#FFD214"/>
<stop offset="1" stop-color="#FFEB6E"/>
</linearGradient>
<linearGradient id="paint63_linear_2_13924" x1="268.72" y1="39.6" x2="275.178" y2="28.4656" gradientUnits="userSpaceOnUse">
<stop stop-color="#FF9123"/>
<stop offset="1" stop-color="#FFEB6E"/>
</linearGradient>
<linearGradient id="paint64_linear_2_13924" x1="268.72" y1="18.48" x2="271.845" y2="13.0924" gradientUnits="userSpaceOnUse">
<stop stop-color="#FF9123"/>
<stop offset="1" stop-color="#FF552D"/>
</linearGradient>
<linearGradient id="paint65_linear_2_13924" x1="268.72" y1="30" x2="269.553" y2="28.5633" gradientUnits="userSpaceOnUse">
<stop stop-color="#FF9123"/>
<stop offset="1" stop-color="#FF552D"/>
</linearGradient>
<linearGradient id="paint66_linear_2_13924" x1="268.72" y1="28.56" x2="273.72" y2="19.9398" gradientUnits="userSpaceOnUse">
<stop stop-color="#FF9123"/>
<stop offset="1" stop-color="#FFEB6E"/>
</linearGradient>
<linearGradient id="paint67_linear_2_13924" x1="268.72" y1="43.92" x2="284.969" y2="15.9044" gradientUnits="userSpaceOnUse">
<stop stop-color="#FF552D"/>
<stop offset="0.487183" stop-color="#FF9123"/>
<stop offset="0.743591" stop-color="#FFFABE"/>
<stop offset="1" stop-color="#FFFABE"/>
</linearGradient>
<linearGradient id="paint68_linear_2_13924" x1="268.72" y1="52.8" x2="256.278" y2="31.1507" gradientUnits="userSpaceOnUse">
<stop stop-color="#FFD214"/>
<stop offset="1" stop-color="#FFEB6E"/>
</linearGradient>
<linearGradient id="paint69_linear_2_13924" x1="293.68" y1="46.8" x2="304.096" y2="28.8413" gradientUnits="userSpaceOnUse">
<stop stop-color="#FF552D"/>
<stop offset="1" stop-color="#FF9123"/>
</linearGradient>
<linearGradient id="paint70_linear_2_13924" x1="293.68" y1="17.424" x2="299.68" y2="7.07979" gradientUnits="userSpaceOnUse">
<stop stop-color="#FF9123"/>
<stop offset="0.652771" stop-color="#FFFABE"/>
<stop offset="1" stop-color="#FFFABE"/>
</linearGradient>
<linearGradient id="paint71_linear_2_13924" x1="293.68" y1="21.84" x2="297.43" y2="15.3749" gradientUnits="userSpaceOnUse">
<stop stop-color="#FF9123"/>
<stop offset="1" stop-color="#FFEB6E"/>
</linearGradient>
<linearGradient id="paint72_linear_2_13924" x1="293.68" y1="22.8" x2="295.763" y2="19.2083" gradientUnits="userSpaceOnUse">
<stop stop-color="#FFFABE"/>
<stop offset="1" stop-color="#FFFABE"/>
</linearGradient>
<linearGradient id="paint73_linear_2_13924" x1="293.68" y1="52.8" x2="281.238" y2="31.1507" gradientUnits="userSpaceOnUse">
<stop stop-color="#FFD214"/>
<stop offset="1" stop-color="#FFEB6E"/>
</linearGradient>
</defs>
</svg>
