<!--?xml version="1.0" encoding="utf-8"?-->
<!-- Generator: Adobe Illustrator 22.1.0, SVG Export Plug-In . SVG Version: 6.00 Build 0)  -->
<svg version="1.1" id="_x36_" xmlns="http://www.w3.org/2000/svg" xmlns:xlink="http://www.w3.org/1999/xlink" x="0px" y="0px" viewBox="0 0 512 512" style="enable-background:new 0 0 512 512;" xml:space="preserve">
<style type="text/css">
	.st0{fill:#000000;}
	.st1{fill:#FFFFFF;}
</style>
<g>
	<path class="st0" d="M271.7,310.5c-3.7,0-7.5-0.4-11.3-1.1c-9.7-1.9-18.4-8-24.6-17.4c-8.4-12.7-11.1-29.7-7.4-46.5
		c5.7-26,26.5-43.5,51.8-43.5c3.5,0,7.1,0.3,10.6,1c24.6,4.8,36.3,27.4,31.4,60.6c-1.8,12.1-7.1,23.4-15,31.7
		C297.8,305.2,285.6,310.5,271.7,310.5C271.7,310.5,271.7,310.5,271.7,310.5z M276.9,249.5c-1,0-2.6,0.9-4.1,3.4
		c-3.3,5.4-3.3,11.3-2.5,13.9c4.9-0.9,7.4-8.5,8.1-13.1c0.3-1.7,0.1-3.1-0.5-3.7C277.6,249.6,277.3,249.5,276.9,249.5z"></path>
	<path class="st0" d="M326.6,314.3c-0.2-0.1-0.5-0.1-0.7-0.2l-0.4-0.1l-0.4-0.1c-6-2.2-10.3-6.3-12.5-12.1
		c-4.3-11.4,0-27.6,14.4-54.3c8.9-16.5,25.4-32.8,40.6-29.4c4,0.9,10,3.7,13.6,12.2c9.4-8.5,17.9-9.1,24-7.8
		c5.7,1.3,10.9,4.6,15.4,10c11.5,13.6,4.5,53.1,1.1,65.9c-4.5,17.1-10.6,26.9-18.7,29.9c-3,1.1-6,1.4-8.8,0.7c0,0,0,0,0,0
		c-4.5-1-10.4-4.6-12.5-15.9c-0.5-2.5-0.8-5.3-1-8.1c-5,5.6-12.2,9.9-22.4,7.8l-0.4-0.1c-4.6-1-8.4-3.3-11.1-6.7
		C341.4,312.2,334.9,316.2,326.6,314.3z"></path>
	<path class="st0" d="M433.6,328.2c-1.6-0.4-3.2-1-4.6-1.9c-5.7-3.3-9.6-8.1-11.1-13.9c-1.6-6.1-0.5-12.8,3-18.9
		c6.3-10.7,18.1-16.3,28.7-13.7c0.9,0.2,1.8,0.5,2.6,0.8c5.1,2,8.9,5.8,10.7,10.7c2.3,6.4,1.2,14.4-3,21.9
		C453.7,324.6,443.1,330.5,433.6,328.2C433.6,328.2,433.6,328.2,433.6,328.2z"></path>
	<path class="st0" d="M452.9,289.9c-2-0.5-3.8-1.4-5.3-2.7c-10.7-9.1-9.7-27.6,2.6-47c3.8-6,17.3-25.2,33.2-22.3
		c0.7,0.1,1.5,0.3,2.2,0.5c9.5,2.3,13.4,7.9,15,12.1c4.2,11.2-3.6,24.7-10.8,35.2C477.7,283,463.3,292.5,452.9,289.9
		C452.9,289.9,452.9,289.9,452.9,289.9z"></path>
	<path class="st0" d="M169.9,308.6c-14.6,0-27.5-5.6-36.1-15.7c-6.9-8-14.3-22.8-10.5-47.7c5.9-38.9,36.1-56.4,63.4-56.4
		c2.6,0,5.2,0.2,7.8,0.5c14.1,1.7,25.4,8.4,32.6,19.4c9.3,14.2,11.2,35.4,4.9,56.6C223.3,294.8,203.5,308.6,169.9,308.6z
		 M183.5,240.1c-5.5,0-8.9,6.8-10.1,9.8c-1.7,4.2-1.6,8.7-0.4,10.5c0.2,0.3,0.2,0.4,1,0.4l0.2,0c4.9,0,10.1-7.2,11.2-13.3
		c0.6-3.1-0.1-5.9-0.7-7.2C184.2,240.1,183.9,240.1,183.5,240.1z"></path>
	<path class="st1" d="M312.3,262.2c3.2-21.5-0.6-44.9-23.4-49.4c-22.8-4.4-44.9,8.9-50.6,34.8c-5.7,25.9,6.9,48.6,24.1,51.9
		C292,305.2,309.1,283.7,312.3,262.2z M288.2,255.2c-1.9,11.9-8.9,22.8-20.9,21.5c-7.7-0.8-10.8-16.5-3.2-29.1
		C273,233.1,290.8,239.4,288.2,255.2z"></path>
	<path class="st1" d="M412.8,238.9c-7.9-9.4-19-11.2-31.8,6.5c-2.2,3-6.9,1.7-7.2-2c-2.2-28.8-26-13.5-38.1,8.8
		c-13.8,25.5-21.3,47.1-7.3,52.2c14.3,3.8,24.1-35.8,27-34.5c3,1.3-11.8,29.8,4.7,33.1c17.6,3.6,20.2-25.7,26.4-24
		c7.2,2-1.4,45.1,12.8,39.8C413.5,313.7,422.2,250.1,412.8,238.9z"></path>
	<path class="st1" d="M448.6,290c-7.3-2.8-15.2,2-19.1,8.6c-3.7,6.4-3.7,14.4,4.5,19.1c6,3.4,13.2-2.1,17.2-9.2
		C455.1,301.4,455.8,292.7,448.6,290z"></path>
	<path class="st1" d="M481.6,227.7c-6.9-1.3-16.3,7.2-23,17.8c-7.8,12.4-12,27.7-4.5,34.1c3.2,2.8,15.2-2.1,27.3-19.6
		C493.6,242.4,496.6,230.5,481.6,227.7z"></path>
	<path class="st1" d="M169.9,298.6c28.5,0,44.9-10.3,52.5-36.1c8.2-27.8,1.9-59.5-29.1-63.3c-23.9-2.9-54.4,10.1-60.1,47.5
		S149,298.6,169.9,298.6z M164.2,246c4.4-10.8,13-18.5,24.7-15.2c4.4,1.3,7.9,10.1,6.3,18.4c-1.9,10.2-10.4,21.9-21.5,21.5
		C162.3,270.4,159.7,256.8,164.2,246z"></path>
	<path class="st0" d="M84.2,338.3c-1.3,0.5-2.6,0.9-3.9,1.3c-13.7,4.3-26.9,2.7-38-4.6c-17.1-11.3-27.9-34.9-31.2-68.4
		c-4.7-47.5,11.2-78.5,47.4-92.1c0.5-0.2,1-0.4,1.5-0.6c17.8-6.3,35.8-5.1,48.3,3.2c8.6,5.7,13.7,14.3,14.3,24.1
		c0.7,10.6-3.3,20.2-9.8,28c2.8,1.1,5.1,2.5,7.1,3.9c11.5,8.2,18.3,23.5,18.6,42.2C139,301.8,117.6,326.6,84.2,338.3
		C84.2,338.3,84.3,338.3,84.2,338.3z M70.3,285.1c0.1,0,0.2-0.1,0.3-0.1c9.9-4.9,12.4-11.5,11.6-13.9c-0.1-0.3-0.3-0.5-0.7-0.8
		c-1.3-0.6-4.3-0.8-8.8,0.8c-1.4,0.5-2.9,1.2-4.5,2c-1.6,0.8-2.2,2.6-1.8,5.3c0.5,4,2.9,6.6,3.8,6.8c0,0,0,0,0,0
		C70.2,285.2,70.2,285.2,70.3,285.1z M66.7,216.3c-3.3,1.2-5.6,3-6.5,5.1c-0.5,1.2-0.5,2.4-0.1,3.3c0.3,0.5,0.5,0.9,1.7,0.7
		c1.3-0.2,2.4-0.4,3.5-0.8c5.2-1.8,5.3-5.5,5.2-6.6c-0.1-1.2-0.5-1.8-0.8-2C69.4,215.8,68.5,215.6,66.7,216.3z"></path>
	<path class="st1" d="M80.9,239.5c14.3-5.1,32.8-19.1,31.7-37.6c-1.1-18.5-25.2-27.6-50.6-18c-25.5,9.6-46,31.3-41,81.8
		c5,50.4,27.7,73.4,56.3,64.5c32.6-10.2,51.6-32.7,51.2-54.6C128.2,253.6,116.9,227.4,80.9,239.5z M63.3,206.8
		c10.2-3.6,16.6,2.8,17.1,10.4c0.6,7.6-4.6,16.6-17.5,18.1c-5.7,0.7-9.9-2.1-11.9-6.3C47.8,222,50.6,211.3,63.3,206.8z M75,294
		c-15,7.4-27-21.8-11.3-29.8c15.4-7.8,25.4-3.9,28,3.7C94.2,275.5,89.4,286.9,75,294z"></path>
</g>
</svg>
