<!--?xml version="1.0" encoding="utf-8"?-->
<!-- Generator: Adobe Illustrator 22.1.0, SVG Export Plug-In . SVG Version: 6.00 Build 0)  -->
<svg version="1.1" id="_x35_" xmlns="http://www.w3.org/2000/svg" xmlns:xlink="http://www.w3.org/1999/xlink" x="0px" y="0px" viewBox="0 0 512 512" style="enable-background:new 0 0 512 512;" xml:space="preserve">
<style type="text/css">
	.st0{fill:#000000;}
	.st1{fill:#FFFFFF;}
</style>
<g>
	<path class="st0" d="M221.5,356.9c-1.8,0-3.6-0.4-5.4-1.1c-2.8-1.1-5.6-3-7.6-4.4c-1-0.2-2.1-0.4-3.4-0.7
		c-6.7-1.7-10.1-7.7-11-12.2l-0.4-2.1l0.5-2.1c0.8-3.5,19.4-85.5,41.6-140.9c-0.4-1.7-1.2-6,1.7-10.1c3.1-4.4,8.1-5,9.8-5.2
		c2-0.2,5.1-2,6-2.8l0.2-0.1l0.2-0.1c3.2-2.2,14.5-9.3,23.5-9.3c1.3,0,2.6,0.1,3.8,0.4c8.2,1.9,12.6,8.2,13.8,14.3l0.2,0.1
		c4.4,1.5,11.8,4,11,14.4c0,0.5-0.1,0.9-0.1,1.4c0,5.3-0.8,11.8-0.8,12.1l-0.1,0.8l-3.7,13.1l-11.9,5c-3.1,3.9-11.1,14.8-20.4,33.8
		c5.6-1,10.9-1.9,15.5-2.7c4.6-0.8,9.8-1.6,11.9-2.1c0,0,0,0,0,0c2.4-1.5,5.6-3.5,9.8-3.5c2.6,0,5,0.7,7.1,2.2l1.6,0
		c3.4,0,5.3,1.4,8.2,3.4c4.6,3.3,6.7,7.8,6.1,12.5c1,2.1,1.5,3.8,1.6,4.4l1.4,6.3l-5,4c0,0,0,0,0,0c0,0-1.3,1.1-3.7,3.6
		c-3.4,3.4-5.9,5.5-6.2,5.7l-2.1,1.7l-46.9,8.2l2.5-2c-6.5,1.2-13.5,2.5-20.1,3.9c-1.9,5.9-3.8,11.9-5.5,18.1
		c1.7,7.6-3.3,13.4-5.2,15.5c-0.4,0.4-0.9,1-1,1.2c-1.8,2.9-4.6,6-6.5,8.1C230.8,353.9,226.6,356.9,221.5,356.9
		C221.5,356.9,221.5,356.9,221.5,356.9z"></path>
	<path class="st0" d="M304.4,263.8c-4.5,0-8.1-1.7-10.7-4.1c-1.6-0.3-6.4-1.1-8.9-5.9c-2.7-5-0.6-9.9,0.2-11.8
		c0.9-2,2.6-5.3,5.3-10.7c2.5-4.9,7.1-13.9,8-16.3c1.4-6.1,5.4-9.6,12-10.4c0.8-0.1,1.4-0.2,2.2-0.4c0.7-0.2,1.5-0.5,2.5-0.8
		c3.1-1,6.5-2.2,10.1-2.2c6.2,0,11.2,3.5,13,9.1c0.2,0.6,0.5,1.2,0.7,1.9c0.7,1.8,1.7,4,1.8,6.7c0.1,3.9-1.4,7.4-4.3,10.1
		c-0.8,1.8-2.1,3.8-4.7,5.9c-1.4,1.8-4.5,7.6-6.2,10.8c-2.5,4.7-3.9,7.3-5.3,9.1c-2.3,6.2-8.3,7.6-11,8.3
		C307.5,263.6,305.9,263.8,304.4,263.8C304.4,263.8,304.4,263.8,304.4,263.8z"></path>
	<path class="st0" d="M329.1,263.2c-7.4,0-13.1-5.2-14.7-6.8l-3.8-3.9l1-5.3c1.2-6.2,5.9-14.7,15.9-28.5c0.4-0.6,0.7-1,0.9-1.3
		c4.1-6,9.1-6.6,13.5-6.6c0.4,0,0.8,0,1.3,0c5.9,0,11.8,2.5,13,3l10.1,4.4l-6.4,12.5c-1.3,2.5-3.2,4.5-5.7,7.1
		c-2.2,2.3-4.9,5.1-6.3,7.6c-0.8,1.5-1.5,2.9-2.1,4.3c-2,4.4-4.8,10.3-12,12.7C332.4,263,330.8,263.2,329.1,263.2
		C329.1,263.2,329.1,263.2,329.1,263.2z"></path>
	<path class="st0" d="M35.7,362.5c-1.8,0-4-0.4-7.1-1.3c-7.8-2.3-13.9-4.1-16.8-12.8c-1.7-5.4-2.1-13.5-0.9-20l-0.8-4.3l2.2-10.5
		l1-10.1l0.1-0.5c0.6-3.1,14.9-75.8,43.1-129.9c4-7.6,9.5-10.7,11.3-11.6c0.8-0.4,6.7-3.2,13.4-5l6.1-1.6c6.1-1.6,8.4-2.2,8.5-2.2
		L108,150c1.1-0.3,2.2-0.5,3.4-0.5c4.7,0,8.4,2.5,10.9,7.6c0.1,0.3,0.3,0.6,0.5,1c1.5,2.7,1.9,3.6,2.5,5.2c0.1,0.4,0.3,0.8,0.7,1.9
		c0.2,0.5,0.5,0.8,0.6,0.9l1.8,1.1l6.3,10.4l0.4,1.2c1.7,5.6,2.3,17.1-6.3,24.9c-0.7,5.4-5.9,9.5-11.7,14.2
		c-6.3,5-19,21.7-31.8,46.1c18.8-6.1,27.3-9.3,30.9-10.9c2-9.7,10.5-10.2,12.3-10.2c2.3,0,4.9,0.5,8.6,1.7
		c10.6,3.5,17,7.2,18.3,15.8l0,0.1c1.3,5.6-1.9,9.8-3.5,11.6c0.9,6.4-0.5,10.2-2,12.4l-1.8,2.7l-11.8,4.6l-1.3,1
		c-0.5,0.4-0.8,0.7-1.2,1.1c-1.2,1.3-3.5,3.6-7.7,4.6c-0.7,0.2-1.4,0.3-3.7,0.6c-23.4,3.3-42.7,7.6-57.6,12.7
		c-1.5,4.6-2.9,9.1-4.2,13.6c-0.9,9.4-1.5,14.8-2.2,18c-0.4,1.8-1.3,6.3-5.2,9c-1.7,2.4-3.2,3.9-3.5,4.2l-2.1,2.1l-4.3,1
		C41.4,361.5,38.7,362.5,35.7,362.5C35.7,362.5,35.7,362.5,35.7,362.5z"></path>
	<path class="st0" d="M137.3,250.7c-7.4,0-12.1-6-14.1-11.6l-1.1-3l0.8-3.1c0.2-1,0.5-2.6,0.8-4.4c1.3-8.4,3.6-22.5,14.9-29.7
		c3.7-2.4,5.6-3.7,6.9-4.7c2.5-1.8,4.2-3,8-4.1c0.6-0.2,1.1-0.3,1.6-0.5c1.7-0.5,3.5-1,5.7-1c3,0,5.3,1,6.8,1.7
		c3.4,1.7,7.8,4.8,9.7,9.5c1.5,2.8,1.7,6.1,0.4,9c-1.1,2.6-3,4-3.6,4.4c-0.1,0.1-0.5,0.5-1.3,1.4c-0.8,0.9-1.5,1.7-2.1,2.4
		c-1.9,2.1-2.5,2.7-5,7c-4.3,7.2-7.3,11.9-11.1,16.3c-4.3,5-7.2,6.9-11.5,9C141.2,250.3,139.2,250.7,137.3,250.7
		C137.3,250.7,137.3,250.7,137.3,250.7z"></path>
	<path class="st0" d="M163.1,244.1c-6.5,0-9.6-3.6-10.8-5.8c-2-3.5-1.8-7.6,0.3-11.1c0.3-0.5,1.1-2.5,1.8-3.8
		c2.8-6.4,6.6-15.1,12.9-20.9c7.3-6.6,12.5-9.3,13.4-9.8l0.9-0.4l0.9-0.3c0.7-0.2,3.3-0.8,6.2-0.8c2.7,0,5.2,0.6,7.3,1.6
		c7.3,3.7,7.8,12.7,7.8,15.4l0,2.1l-3.3,7.6l-9.2,9c-2.7,2.6-4.6,4.9-6.3,6.9c-1.3,1.5-2.4,2.8-3.6,4
		C176.6,242.6,166.3,244.1,163.1,244.1L163.1,244.1z"></path>
	<path class="st0" d="M367.7,349.9l-14.5-4.3l1.5-20.6c0.8-14.3,25.9-101.9,37.8-123.3c2.8-10.3,8-13.1,15.8-14.4l0.5-0.1
		c3.5-0.6,9.8-2.3,11.9-2.9l4.2-1.2l8.6,4.9c8.7,0.4,15.1,6.4,16,15.2c0.8,8-2,14.7-5.1,18.5c-2.2,4.1-11.2,20.7-20.7,40.8
		c12.4-2,24.9-3.4,32.4-4.2c2.6-0.3,5.1-0.6,5.7-0.7c1-0.2,2-0.2,3-0.2c4.3,0,8,1.8,10.3,5.1c3.7,5.2,1.7,10.8,0.8,13.2
		c-0.1,0.2-0.1,0.4-0.2,0.5c-0.8,2.4-3.4,7.1-7.8,13.8l-0.9,1.4l-6.9,5.5l-1.8,0.6c-5.9,1.9-10.3,2.9-13.1,2.9l-0.1,0
		c-0.7,0-2.5,0.3-3.3,0.5l-0.9,0.2l-0.9,0.1c-0.2,0-20.3,1.2-34.1,2.8c-3.6,9.6-6.2,17.9-7.6,24.6c-1.5,8.9-8.7,15.4-10.2,16.6
		l-0.5,0.4l-8.7,5.7L367.7,349.9z"></path>
	<path class="st0" d="M437.4,252.6l-0.4-1.4c-2.4-8.2,0.1-18.4,2.9-28.2c0.3-0.9,0.5-1.6,0.6-2.2c-0.9-10.3,7.9-12.9,12.1-14.2
		c3.3-1,5.8-1.4,8-1.4c4,0,6.5,1.4,7.8,2.1c0,0,0.1,0,0.1,0.1c6.9,2.3,10.4,9.8,8.3,17.9l-0.1,0.4l-2.5,7.2l-4.9,13.1l-0.9,1.2
		c-0.6,0.8-2.3,3.2-3.3,5.1c-2.6,4.8-7.6,8.6-9.1,9.6l-8.9,6.2L437.4,252.6z"></path>
	<path class="st0" d="M459.7,245.1l0.9-2.3c2.7-7,8.6-18.6,8.8-19l0.2-0.4l0.2-0.3c2.5-4.2,8.5-9,17-9l0.2,0c4.4,0,7.9,1.4,10.4,4.1
		c3.2,3.4,3.5,7.4,3.4,9.5c1.5,3.6,1.9,9-4.1,15.2c-0.2,0.2-0.5,0.5-0.7,0.7c-1.8,2.6-8.9,12.7-9.2,13.2l-1.4,2l-23.4,12.8
		L459.7,245.1z"></path>
	<path class="st1" d="M207.8,340.6c2.7,0.7,4.8,0.7,4.8,0.7s4.1,3.5,7.5,4.8c3.4,1.4,3.4-2,3.4-2s4.8-4.8,6.9-8.2
		c2.1-3.4,6.9-6.1,4.2-10.9c2.7-9.9,5.5-19,8.4-27.3c22.8-5.1,49.8-9.2,56.3-10.1c8.4-1.2,6.9,0,6.9,0l4.9-0.9c0,0,2.3-1.8,5.3-4.9
		c3.1-3.1,4.6-4.3,4.6-4.3s-0.5-2.1-2.3-4.4c-1.8-2.3,3.1-3.1-1.4-6.3c-4.5-3.2,0,0-3.3-1s-4.1-0.4-6-2c-1.9-1.6-4.2,0.2-7.1,2
		c-2.2,1.3-28.5,4.5-49.5,9.5c16.3-39.4,31.9-56.6,31.9-56.6l9.6-4l2.1-7.5c0,0,0.7-6.2,0.8-10.9c0-4.8,1.4-4.1-4.7-6.2
		c-6.1-2.1-6.1-6.2-6.1-6.2s0-6.2-6.1-7.6s-19.2,7.4-19.2,7.4s-5.5,4.1-11,4.7c-5.5,0.6-0.7,3-2.8,8.2c-22.3,55.3-41.4,140-41.4,140
		S205.1,339.9,207.8,340.6z"></path>
	<path class="st1" d="M299.9,251c0,0,1.3,3.4,6.8,2.1c5.5-1.3,2.8-2,4.8-4.1c2.1-2,9.7-19.1,13.2-21.8c3.4-2.7,1.4-3.4,4.1-5.4
		c2.8-2,0.7-4.1-0.6-8.2c-1.3-4.1-8.2-0.7-13,0.6c-4.8,1.3-6.2,0-6.9,3.4c-0.7,3.4-11.8,23.9-13.9,28.6
		C292.4,251,295.1,248.3,299.9,251z"></path>
	<path class="st1" d="M339,240.4c3.5-6.1,10.4-11.6,11.7-14.3c1.4-2.7,1.4-2.7,1.4-2.7s-4.8-2.1-8.9-2.1c-4.1,0-4.8,0-6.2,2
		c-1.4,2-13.8,18.4-15.3,25.9c0,0,4.8,4.8,8.9,3.5C334.8,251.3,335.5,246.5,339,240.4z"></path>
	<path class="st1" d="M21.3,329.8c-1.1,5.5-0.6,12.1,0.4,15.4c1.1,3.3,2.2,3.9,9.8,6.1c7.7,2.3,3.8-0.5,3.8-0.5l7.1-1.6
		c0,0,1.7-1.6,3.3-4.4c1.7-2.7,2.2,5,4.6-21.4c1.9-6.7,4-13.3,6.2-19.8c28.2-10.7,65.2-14.9,67-15.3c2.2-0.5,2.2-1.6,5-3.8
		c2.8-2.2,0,0,2.8-2.2c2.8-2.2,4.4-1.6,4.4-1.6l5.5-2.2c0,0,1.1-1.6,0-6.6c-1.1-4.9,4.4-7.1,3.9-9.3s0.6-4.4-11.5-8.3
		c-12-3.9-4.4,2.7-10.5,6.5c-5.4,3.4-27,10.6-57.7,20.1c15.5-35.5,34.5-62.9,45-71.2c14.4-11.4,4.4-6.6,4.4-6.6s0.6-1.6,6.6-7.1
		c6.1-5.4,3.4-14.2,3.4-14.2l-4.3-7.2c0,0-2.7-1.7-4.4-5.5c-1.6-3.9-0.5-2.2-2.7-6.1c-2.2-3.9-1.1-4.9-8.2,0.5
		c-7.2,5.4-7.1-0.6-7.1-0.6s-2.2,0.5-8.3,2.1c-6.1,1.6,0,0-6.1,1.6c-6.1,1.6-11.6,4.3-11.6,4.3s-3.8,1.6-6.6,7.1
		C38,231.4,23.7,305.1,23.7,305.1l-1.2,11.5l-2.8,5.5C19.7,322.1,22.5,324.3,21.3,329.8z"></path>
	<path class="st1" d="M138.4,240.1c3.3-1.6,5-2.7,8.3-6.5c3.3-3.8,6.1-8.2,10-14.7c3.9-6.6,4.4-6.6,8.3-10.9
		c3.9-4.4,3.3-2.2,2.8-3.8c-0.5-1.7-2.7-3.3-4.9-4.4c-2.2-1.1-2.7-0.6-6.6,0.5c-3.9,1.1-2.8,1.6-12.1,7.6c-9.4,6-9.5,21.3-11.2,27.9
		C132.9,235.7,135.1,241.7,138.4,240.1z"></path>
	<path class="st1" d="M174.2,230.5c2.2-2.2,5-6,10-10.9c5-4.9,7.7-7.6,7.7-7.6l1.7-3.8c0,0,0-4.9-2.2-6.1c-2.2-1.1-6,0-6,0
		s-4.4,2.2-11,8.2c-6.6,6-10.5,18.6-12.8,22.4C159.8,235.3,171.9,232.7,174.2,230.5z"></path>
	<path class="st1" d="M439.3,204.4c-0.8-7.4-8.2-5.8-8.2-5.8l-7.4-4.2c0,0-8.3,2.4-13.2,3.2c-4.9,0.8-6.6,0.8-8.3,8.2
		c-10.8,17.2-37.1,110.1-37.1,120l-0.9,12.3l5.8,1.7l6.6,0.9l5-3.3c0,0,5.8-4.9,6.7-10.7c2-9.4,5.8-20.6,10.4-32.2
		c13.7-2,41-3.7,41-3.7s3.3-0.8,5.8-0.8c2.5,0,9.9-2.4,9.9-2.4l4.1-3.3c0,0,5.8-9,6.7-11.5c0.8-2.5,2.5-5.7-2.4-5
		c-4.3,0.7-37.7,3.7-57.6,8.7c13.8-31.5,30-60.8,30-60.8S440,211.8,439.3,204.4z"></path>
	<path class="st1" d="M446.9,248.3l3.2,5.1c0,0,4.3-3,5.9-6.1c1.7-3.1,4.1-6.4,4.1-6.4l4.3-11.6l2.3-6.7c0,0,1.2-4.6-1.6-5.5
		c-2.8-0.9-2.5-2.7-9.6-0.6c-7.1,2.1-3.7,2-4.9,6.6S444.8,241.2,446.9,248.3z"></path>
	<path class="st1" d="M486.9,224.5c-5.8,0-8.3,4.1-8.3,4.1s-5.9,11.5-8.4,18.1l0.8,8.2l7.4-4.1c0,0,7.5-10.6,9.2-13.1
		c1.7-2.5,5-4.1,3.3-6.6C489.3,228.6,492.6,224.5,486.9,224.5z"></path>
</g>
</svg>
