<!--?xml version="1.0" encoding="utf-8"?-->
<!-- Generator: Adobe Illustrator 22.1.0, SVG Export Plug-In . SVG Version: 6.00 Build 0)  -->
<svg version="1.1" id="_x35_" xmlns="http://www.w3.org/2000/svg" xmlns:xlink="http://www.w3.org/1999/xlink" x="0px" y="0px" viewBox="0 0 512 512" style="enable-background:new 0 0 512 512;" xml:space="preserve">
<style type="text/css">
	.st0{fill:#000000;}
	.st1{fill:#FFFFFF;}
</style>
<g>
	<path class="st0" d="M86.855,348.689c-9.353,0-16.526-6.344-20.811-10.135c-0.175-0.155-0.398-0.347-0.658-0.572
		c-1.673-1.446-4.788-4.139-7.293-7.055c-6.183-7.197-5.137-12.341-3.171-15.388c0.899-1.394,2.03-2.287,3.044-2.866
		c0.119-0.301,0.258-0.618,0.424-0.947c1.932-3.822,5.149-5.502,7.465-6.491c0.669-1.744,1.826-2.902,2.528-3.483
		c1.443-1.193,3.258-1.85,5.114-1.85c1.68,0,3.033,0.506,4.036,1.046c5.027-1.92,9.932-2.421,14.261-2.863
		c2.605-0.266,5.066-0.517,7.454-1.038c7.531-1.644,14.881-2.941,22.471-3.965c1.599-0.216,3.202-0.301,4.752-0.385
		c2.449-0.131,6.149-0.329,6.873-1.253c2.159-2.758,4.821-3.74,6.432-4.26c0.059-0.508,0.105-1.099,0.138-1.527
		c0.067-0.865,0.136-1.758,0.282-2.684c1.011-6.404,2.434-12.716,3.811-18.82c0.334-1.481,0.668-2.961,0.996-4.444
		c0.207-0.933,0.505-1.97,0.82-3.066c0.316-1.098,0.889-3.088,1.222-4.802c-1.824,0.387-3.586,0.646-5.29,0.897
		c-1.935,0.284-3.762,0.553-5.425,0.976c-4.724,1.202-9.645,2.869-14.405,4.48c-1.631,0.552-3.256,1.102-4.872,1.635
		c-5.45,1.796-11.623,3.829-15.488,7.115c-0.135,0.208-0.384,0.746-0.569,1.146c-0.492,1.064-1.167,2.521-2.289,3.987
		c-2.285,2.986-5.387,4.594-7.651,5.768c-0.404,0.209-0.803,0.415-1.188,0.628c-1.809,0.996-3.604,1.862-5.34,2.698
		c-1.162,0.56-2.26,1.09-3.336,1.644c-0.582,0.3-1.176,0.667-1.804,1.055c-2.215,1.369-5.247,3.245-9.725,3.245
		c-0.292,0-0.59-0.008-0.895-0.025c-0.247-0.014-0.493-0.019-0.741-0.019c-0.749,0-1.583,0.048-2.465,0.098
		c-1.037,0.059-2.109,0.12-3.25,0.12c-0.837,0-1.602-0.033-2.34-0.101c-3.041-0.282-6.246-1.167-9.073-1.949
		c-0.532-0.147-1.048-0.29-1.54-0.421c-7.72-2.064-14.029-7.847-18.664-12.654c-4.401-4.565-8.357-10.145-12.446-17.553
		c-0.052-0.084-0.113-0.177-0.178-0.277c-0.795-1.227-1.995-3.08-2.192-5.509c-0.152-1.87,0.234-3.392,0.489-4.4
		c0.013-0.052,0.027-0.109,0.042-0.167c-0.219-0.837-0.711-1.915-1.228-3.045c-0.564-1.235-1.204-2.636-1.707-4.187l-2.988-9.224
		c-1.064-3.285,1.446-4.436,4.375-2.606l4.32-1.08c1.264-1.006,3.14-0.286,5.702-0.485c0.157-0.012,0.329-0.025,0.518-0.042
		c0.064-0.036,0.133-0.075,0.192-0.11c1.015-0.583,2.904-1.668,5.559-1.668c2.137,0,4.19,0.684,6.278,2.091
		c0.63,0.424,1.209,0.86,1.719,1.244c0.344,0.258,0.799,0.6,1.165,0.848c0.9-0.442,2.227-1.076,3.912-1.4
		c1.003-0.192,2.051-0.286,3.203-0.286c0.947,0,1.812,0.062,2.575,0.118l0.146,0.011c2.657,0.189,5.317,0.362,7.977,0.535
		l3.101,0.202c3.52,0.233,7.159,0.473,10.723,0.473c3.731,0,6.951-0.275,9.843-0.842l3.711-0.725
		c13.373-2.612,27.201-5.313,40.365-8.759c6.609-1.73,13.642-3.726,22.132-6.282c1.255-0.378,2.184-0.7,2.868-0.963
		c0.298-1.19,0.862-2.269,1.69-3.229c0.889-1.029,2.021-1.799,3.282-2.258c0.329-0.344,0.653-0.624,0.938-0.844
		c2.159-1.663,4.694-1.876,6.662-1.876c0.462,0,0.929,0.013,1.363,0.025c0.229,0.006,0.442,0.014,0.627,0.015
		c1.189-0.095,2.108-0.138,2.965-0.138c4.084,0,7.157,1.009,10.96,3.598c0.796,0.542,1.724,1.073,2.705,1.633
		c4.207,2.406,11.25,6.433,11.085,16.043c-0.025,1.468-0.134,2.804-0.24,4.097c-0.146,1.787-0.272,3.33-0.134,4.781
		c0.076,0.806,0.168,1.599,0.258,2.385c0.332,2.889,0.709,6.163,0.342,9.765c-0.088,0.861-0.169,1.725-0.251,2.591
		c-0.278,2.952-0.566,6.003-1.112,9.102c-0.134,0.758-0.258,1.62-0.39,2.532c-0.458,3.163-0.976,6.747-2.383,9.985
		c-0.944,2.174-2.318,3.704-3.321,4.822c-0.325,0.363-0.77,0.86-0.888,1.054c-1.282,2.39-2.199,5.197-3.18,8.351
		c-0.949,3.054-1.781,6.169-2.737,9.907c-0.271,1.059-0.66,2.172-1.072,3.349c-0.315,0.899-0.829,2.372-1.093,3.408
		c0.468,0.64,1,1.405,1.431,2.306c0.926,1.937,1.464,3.763,1.976,5.619c0.05,0.159,0.136,0.372,0.22,0.592
		c0.391,1.032,0.926,2.445,1.061,4.047c0.053,0.628,0.058,1.167,0.046,1.61c0.873,1.448,2.233,4.435,0.551,8.492
		c-0.848,2.044-2.208,3.31-3.061,4.019c-0.043,0.122-0.087,0.252-0.126,0.365c-0.618,1.815-1.904,5.59-6.437,7.748
		c-2.685,1.279-5.465,1.427-7.322,1.427c-0.673,0-1.348-0.022-2.014-0.045c-0.02,0-0.039-0.001-0.059-0.002
		c-0.027,0.063-0.054,0.128-0.082,0.193c-2.345,5.485-6.187,8.823-10.817,9.401c-0.376,0.047-0.763,0.071-1.147,0.071
		c-5.566,0-10.515-5.107-12.107-8.559c-0.218-0.473-0.382-0.934-0.505-1.372c-0.954-0.699-1.927-1.7-2.648-3.139l0,0
		c-0.232,0.048-0.462,0.095-0.688,0.143c-1.271,0.265-2.586,0.539-3.897,0.7c-3.838,0.47-6.712,1.017-9.319,1.772
		c-3.141,0.91-6.34,2.112-9.347,3.267c-0.986,0.378-1.985,0.704-2.952,1.019c-1.581,0.515-3.548,1.156-4.345,1.754
		c-0.229,0.18-0.761,0.886-1.151,1.402c-0.889,1.178-1.995,2.646-3.634,3.969c-3.383,2.729-7.797,4.389-12.429,4.676
		C87.718,348.675,87.283,348.689,86.855,348.689z"></path>
	<path class="st0" d="M206.738,354.432c-3.709,0-1.232-2.207-2.537-5.883c-1.782-5.024,1.649-9.196,3.298-11.201
		c0.159-0.193,0.307-0.367,0.418-0.516c2.956-4.082,6.35-8.063,10.082-11.825c4.649-4.686,10.035-9.87,16.07-14.446
		c-0.496,0.056-1.001,0.086-1.513,0.086c-0.222,0-0.444-0.006-0.664-0.018c-8.851-0.459-15.681-6.78-20.668-11.395l-0.741-0.684
		c-1.793-1.651-3.555-3.489-5.385-5.618c-0.103-0.109-0.238-0.242-0.389-0.394c-2.108-2.119-5.293-5.321-4.369-9.889
		c0.694-3.427,3.117-5.783,7.201-7.004c0.007-0.002,0.014-0.004,0.02-0.006c0.259-0.209,0.499-0.505,0.648-0.805
		c0.021-0.113,0.037-0.228,0.055-0.341c0.224-1.366,0.641-3.908,2.719-6.089c1.892-1.987,5.066-3.293,9.435-3.88
		c0.96-0.129,1.983-0.195,3.039-0.195c4.426,0,8.975,1.115,12.841,2.206c1.783,0.503,3.183,1.364,4.204,1.993
		c0.022,0.014,0.045,0.028,0.069,0.042c0.544-0.156,1.208-0.381,1.637-0.525c0.561-0.189,1.141-0.384,1.71-0.549
		c2.913-0.842,5.802-1.958,8.861-3.141c1.498-0.579,3.047-1.178,4.616-1.748c0.345-0.125,0.679-0.238,1.002-0.343
		c0.123-0.458,0.246-0.976,0.342-1.385c0.188-0.797,0.383-1.622,0.642-2.477c1.706-5.637,3.233-10.355,5.136-15.058
		c0.206-0.51,0.421-1.086,0.653-1.701c1.761-4.689,4.423-11.776,10.591-14.457c1.596-0.694,3.29-1.046,5.035-1.046
		c5.6,0,11.147,3.796,13.489,9.231c2.868,6.657-0.203,12.755-2.235,16.79c-0.552,1.096-1.074,2.132-1.372,2.941
		c-0.062,0.167-0.127,0.335-0.197,0.506c3.86,0.386,8.935,1.806,10.906,7.024c0.746,1.975,0.509,3.765,0.28,5.496l-0.004,0.031
		c0.013,0.698,0.095,1.519,0.182,2.383c0.058,0.579,0.116,1.158,0.16,1.737l0.021,0.266c0.187,2.372,0.685,8.671-6.476,11.639
		c-2.107,0.873-4.282,1.312-6.201,1.698c-0.444,0.09-0.879,0.177-1.296,0.268c-0.02,0.005-0.041,0.009-0.061,0.013
		c1.624,2.485,2.185,5.621,1.536,8.77c-1.105,5.369-3.024,9.334-6.622,13.685c-0.545,0.659-0.179,2.653,0.397,5.396
		c0.844,4.017,2,9.519-0.703,14.977c-0.246,0.496-0.422,1.459-0.608,2.478c-0.368,2.013-0.873,4.77-2.537,7.535
		c-2.699,4.484-8.194,9.009-14.385,9.009c-0.653,0-1.308-0.051-1.946-0.153c-7.141-1.134-9.62-8.423-11.101-12.779
		c-0.217-0.638-0.461-1.356-0.608-1.706c-0.1-0.178-0.35-0.566-0.52-0.829c-0.378-0.587-0.811-1.257-1.214-2.009
		c-0.308,0.115-0.623,0.238-0.948,0.371c-0.98,0.401-1.979,0.794-2.986,1.189c-3.534,1.389-6.872,2.701-9.584,4.443
		c-1.177,0.756-2.134,2.062-3.347,3.715c-0.831,1.133-1.773,2.418-2.929,3.704c-2.29,2.546-4.887,4.091-7.177,5.454
		c-1.091,0.649-2.121,1.262-2.918,1.879l-0.199,0.159C218.361,352.445,210.2,354.432,206.738,354.432z"></path>
	<path class="st0" d="M361.555,338.657c-0.32-0.041-0.683-0.104-1.075-0.199c-1.13,0.506-2.303,0.761-3.512,0.761
		c-6.192,0-8.24-5.857-8.913-7.781l-0.227-0.646c-0.64-1.824-1.294-3.69-1.836-5.675c-0.025,0.011-0.051,0.023-0.076,0.035
		c-7.853,3.597-16.754,7.674-26.392,7.674c-0.236,0-0.473-0.002-0.709-0.007c-1.203-0.025-2.273-0.149-3.216-0.258
		c-0.71-0.082-1.381-0.16-1.864-0.16c-0.109,0-0.195,0.004-0.262,0.01c-0.147,0.066-0.311,0.144-0.486,0.225
		c-1.861,0.861-6.274-0.164-9.053-0.164c-2.506,0-2.914,1.241-4.532-0.507c-2.529-2.73-1.979-5.836-1.578-8.104
		c0.113-0.639,0.402-2.216,0.644-3.042c0.937-3.196,2.936-5.686,6.114-7.616c1.905-1.158,3.802-2.095,5.636-3.002
		c1.682-0.832,3.27-1.618,4.695-2.491l2.601-1.594c3.592-2.2,7.286-4.462,10.94-6.721c-4.252-0.066-7.986-1.655-11.099-4.725
		c-4.466-4.405-7.67-12.891-5.301-19.47c1.563-4.343,5.337-7.221,6.887-8.258c2.824-1.888,5.727-2.107,7.665-2.107
		c0.515,0,1.039,0.017,1.567,0.037c0.358,0.013,0.72,0.029,1.083,0.029c0.34,0,0.523-0.016,0.617-0.03
		c1.862-0.267,3.583-0.29,5.051-0.29l1.125,0.002c1.063,0,1.873-0.016,2.621-0.096c1.716-0.184,3.654-0.824,5.706-1.501
		c0.873-0.288,1.776-0.587,2.715-0.868c1.63-0.49,3.223-0.784,4.628-1.043c1.301-0.24,3.48-0.642,3.922-1.042l0,0
		c-0.001,0,0.05-0.066,0.122-0.243c0.366-0.897,0.649-2.086,0.949-3.343c0.268-1.124,0.571-2.398,0.989-3.696
		c0.69-2.143,1.477-4.181,2.238-6.153c0.579-1.5,1.126-2.917,1.614-4.332l0.162-0.464c0.122-0.347,0.289-0.824,0.383-1.154
		c-0.02-0.086-0.043-0.175-0.062-0.254c-0.221-0.897-0.556-2.252-0.522-3.907c0.036-1.781,0.522-3.257,1.082-4.409l0.378-7.605
		l5.247-1.329c0.588-0.784,1.196-1.323,1.565-1.613c1.403-1.104,3.131-1.688,4.996-1.688c5.111,0,11.431,4.963,11.49,5.013
		c2.742,2.342,5.608,6.722,3.7,14.297c-0.691,2.744-1.461,5.479-2.207,8.123c-0.418,1.483-0.836,2.964-1.238,4.445
		c-0.079,0.289-0.16,0.587-0.245,0.893c2.272,0.068,4.309,0.564,6.283,1.045c0.211,0.052,0.793,0.101,1.219,0.136
		c1.496,0.125,3.545,0.299,5.601,1.359c3.131,1.615,5.061,4.695,5.295,8.449c0.226,3.618-0.716,8.244-3.901,11.052
		c0.006,0.742-0.091,1.538-0.342,2.374c-0.737,2.458-2.514,4.36-5.283,5.652c-1.375,0.642-2.816,1.066-4.26,1.348
		c2.146,5.569-0.603,12.437-1.23,13.87c-2.08,4.758-6.556,8.915-11.974,11.121c-0.937,0.381-1.838,0.625-2.656,0.796
		c0.007,0.292,0.016,0.588,0.025,0.888c0.101,3.387,0.227,7.6-1.726,11.866c-0.454,0.992-0.928,1.843-1.346,2.593
		c-0.467,0.839-0.836,1.501-1.019,2.068c-0.286,0.889-0.517,1.938-0.761,3.048c-0.22,0.997-0.446,2.027-0.746,3.117l-1.668,6.063
		L361.555,338.657z"></path>
	<path class="st0" d="M458.565,341.692c-0.321,0-0.639-0.014-0.945-0.04c-3.701-0.317-6.761-2.463-8.398-5.889
		c-0.926-1.937-1.23-3.916-1.453-5.361c-0.048-0.315-0.093-0.62-0.148-0.903c-0.387-1.993-0.643-3.992-0.776-6.123
		c-0.588,0.15-1.171,0.297-1.748,0.441c-4.397,1.102-8.549,2.143-11.853,4.21l-15.192,6.606l-0.044-3.009
		c-4.309,2.08-23.78,3.696-28.395,5.529l9.72-12.24c8.044-7.504,14.285-13.627,24.6-20.888c2.407-1.695,4.615-3.258,6.681-4.731
		c-0.223,0.006-0.444,0.009-0.664,0.009c0,0-0.001,0-0.001,0c-8.239,0-12.007-4.316-13.52-6.888
		c-0.093-0.158-0.412-0.638-0.646-0.987c-2.469-3.705-4.33-6.821-3.995-10.362c0.419-4.418,4.216-6.887,6.989-8.69
		c0.234-0.152,0.438-0.281,0.582-0.383c5.058-3.72,10.301-5.047,15.372-6.33l1.31-0.333c5.041-1.294,11.008-2.75,17.045-3.735
		c0.535-0.087,1.065-0.137,1.585-0.174c0.15-1.354,0.294-2.634,0.646-3.874c1.569-5.531,3.362-10.488,5.33-14.733
		c0.052-0.111,5.374-11.116,13.255-11.116c3.78,0,6.982,2.376,8.359,6.201c1.215,3.376,0.072,6.651-0.763,9.041
		c-0.091,0.26-0.177,0.495-0.235,0.688c-0.341,1.35-0.701,2.696-1.06,4.042c-0.345,1.292-0.691,2.584-1.018,3.88
		c-0.032,0.124-0.066,0.252-0.102,0.386c0.2,0.009,0.394,0.024,0.581,0.045c0.162-0.07,0.331-0.136,0.506-0.197
		c1.177-0.413,2.408-0.623,3.658-0.623c1.49,0,2.745,0.29,3.776,0.574c1.407,0.387,2.527,0.925,3.427,1.357
		c0.304,0.145,0.707,0.339,0.913,0.418c0.114,0.009,0.231,0.015,0.346,0.022c1.645,0.101,5.497,0.337,7.937,3.835
		c1.112,1.595,2.195,4.306,1.036,8.163c-0.287,0.952-0.719,1.731-1.15,2.34c-0.254,1.216-0.749,2.8-2.036,4.23
		c-0.279,0.31-0.657,0.681-1.138,1.052c-0.023,0.226-0.055,0.457-0.098,0.692l-1.228,6.704l-5.85-0.713
		c-1.108,0.76-2.893,1.924-5.496,2.324c-0.457,0.07-0.925,0.105-1.395,0.105c-0.821,0-1.588-0.105-2.29-0.259
		c-0.03,0.21-0.059,0.395-0.084,0.553c-0.038,0.238-0.088,0.56-0.1,0.703c0.025,0.6,0.211,1.403,0.424,2.328
		c0.504,2.18,1.195,5.166,0.469,8.745c-0.908,4.479-3.207,8.287-6.647,11.014c-0.395,0.313-0.765,0.585-1.104,0.825
		c0.148,0.671,0.36,1.402,0.592,2.196c0.449,1.54,0.957,3.285,1.208,5.308c0.631,5.081-1.492,8.632-2.897,10.981
		c-0.356,0.596-0.668,1.116-0.899,1.59c-0.052,0.183-0.134,0.56-0.196,0.842c-0.397,1.818-1.063,4.86-3.648,7.285
		C465.254,340.664,461.35,341.692,458.565,341.692z"></path>
	<path class="st0" d="M211.223,230.621c-1.273,0-3.148-0.109-4.852-0.629c-4.743-1.446-7.995-5.391-10.37-8.271
		c-0.355-0.43-0.694-0.843-1.019-1.218c-3.002-3.468-4.412-6.574-5.904-9.862l-0.192-0.424c-0.396-0.871-0.782-1.747-1.167-2.623
		c-0.469-1.066-0.912-2.075-1.372-3.066c-0.111-0.188-0.392-0.608-0.582-0.892c-1.157-1.726-2.596-3.875-2.843-6.581
		c-0.1-1.095-0.072-3.328,1.37-5.427c-0.051-0.759-0.019-1.618,0.18-2.54c0.547-2.53,1.899-4.166,3.09-5.207
		c-0.081-0.238-0.178-0.504-0.277-0.776c-0.29-0.798-0.651-1.79-0.922-2.911c-0.258-1.072-0.741-3.07-0.207-5.548
		c0.227-1.055,0.608-1.945,1.017-2.673c-0.691-2.082-1.345-5.39,0.791-8.515c0.973-1.424,3.3-3.813,7.949-3.813
		c0.07,0,0.141,0,0.213,0.002c0.178-0.031,0.757-0.277,1.18-0.457c1.518-0.644,3.811-1.619,6.894-1.619
		c0.415,0,0.839,0.018,1.258,0.053c0.924,0.078,1.734,0.218,2.449,0.343c0.466,0.081,1.041,0.18,1.296,0.188
		c0.136-0.014,0.267-0.04,0.396-0.06c0.585-0.092,1.386-0.218,2.337-0.218c3.394,0,6.277,1.614,8.115,4.545
		c1.443,2.301,1.473,4.617,1.468,5.919c0.146,0.258,0.368,0.587,0.629,0.888c0.127,0.082,0.302,0.19,0.442,0.276
		c1.1,0.68,2.762,1.706,4.03,3.513c2.978,4.242,1.756,8.185,0.675,10.402c0.375,1.068,0.501,2.187,0.376,3.351
		c-0.068,0.64-0.294,1.91-1.026,3.24c1.072,2.09,1.932,4.787,1.157,7.539c0.357,0.677,0.661,1.434,0.852,2.279
		c0.668,2.955-0.015,5.541-0.573,7.363c1.905,3.064,1.308,6.29-0.053,8.457c0.45,1.917,0.548,4.44-1.109,6.877
		c-0.735,1.082-2.27,2.748-5.012,3.378c-0.544,0.844-1.19,1.521-1.816,2.051C218,229.723,215.017,230.621,211.223,230.621
		C211.224,230.621,211.223,230.621,211.223,230.621z"></path>
	<path class="st0" d="M237.99,215.958c-7.053,0-11.838-6.611-12.36-7.365c-0.367-0.529-0.913-1.19-1.491-1.89
		c-2.566-3.106-6.444-7.798-5.362-14.283c1.081-6.477,3.701-11.255,8.011-14.607c0.227-0.185,0.779-0.866,1.145-1.317
		c1.123-1.385,2.521-3.108,4.669-4.418c2.071-1.264,4.104-1.523,5.318-1.677c0.066-0.009,0.14-0.018,0.213-0.027l1.43-0.814
		l2.243,0.193c0.206,0.017,0.434,0.029,0.677,0.043c2.386,0.132,6.379,0.354,9.394,3.343c3.459,3.429,2.772,7.759,2.514,9.388
		c-0.021,0.134-0.048,0.301-0.065,0.427c0.034,0.236,0.079,0.508,0.127,0.791c0.302,1.783,0.759,4.477-0.229,7.558
		c-0.171,0.534-0.379,1.022-0.603,1.463c0.37,0.851,0.65,1.855,0.726,3.018c0.202,3.076-1.348,5.703-3.559,9.078
		c-0.126,0.193-0.235,0.358-0.314,0.483c-1.027,1.624-2.269,2.71-3.091,3.428c-0.011,0.009-0.021,0.018-0.032,0.028
		c-0.364,1.53-1.328,4.23-4.331,5.877c-1.549,0.85-3.241,1.28-5.029,1.28C237.991,215.958,237.99,215.958,237.99,215.958z"></path>
	<path class="st1" d="M20.361,234.797c0.964,2.977,2.865,5.771,3.31,8.902c0.233,1.641-0.696,3.09-0.578,4.543
		c0.068,0.834,1.093,2.148,1.462,2.817c3.173,5.756,6.773,11.334,11.351,16.083c4.153,4.308,9.409,9.105,15.324,10.686
		c2.847,0.761,6.487,1.885,9.41,2.155c2.753,0.255,5.699-0.274,8.528-0.117c3.673,0.204,5.57-1.863,8.711-3.482
		c2.822-1.454,5.716-2.716,8.5-4.249c2.264-1.246,4.968-2.344,6.581-4.453c1.539-2.012,1.798-4.426,3.816-6.162
		c4.919-4.233,11.952-6.566,18.014-8.563c6.498-2.141,13.134-4.569,19.757-6.255c3.662-0.932,7.456-1.171,11.144-1.97
		c2.126-0.461,4.667-1.481,6.698-0.142c4.546,2.998,0.556,12.73-0.319,16.684c-1.68,7.586-3.512,15.147-4.724,22.826
		c-0.416,2.639-0.063,6.633-2.273,8.525c-1.961,1.678-4.338,1.118-6.029,3.278c-3.621,4.626-10.909,3.612-16.354,4.347
		c-7.392,0.997-14.616,2.275-21.896,3.864c-7.064,1.542-13.87,0.978-20.717,3.607c-1.349,0.518-2.723,1.067-4.193,0.669
		c-0.993-0.269-2.025-1.776-2.884-1.066c-1.042,0.862,0.187,1.751-0.276,2.549c-0.475,0.818-1.465,0.938-2.301,1.299
		c-2.155,0.93-4.431,1.556-5.572,3.814c-0.562,1.113-0.428,2.213-1.301,3.066c-0.67,0.654-1.965,0.508-2.546,1.408
		c-2.335,3.619,7.544,11.644,9.836,13.672c4.716,4.171,10.197,8.705,16.863,8.293c2.942-0.182,6.019-1.219,8.332-3.086
		c1.953-1.576,2.986-4.028,4.991-5.53c2.454-1.838,6.189-2.642,9.042-3.737c3.272-1.255,6.559-2.486,9.927-3.461
		c3.445-0.997,6.897-1.568,10.451-2.004c3.115-0.382,7.312-1.812,10.387-1.3c3.075,0.512,0.544,2.393,1.55,4.4
		c0.582,1.161,2.071,0.809,2.681,1.711c0.551,0.814,0.137,2.066,0.572,3.01c0.811,1.758,3.803,4.585,5.788,4.337
		c2.482-0.31,4.187-3.025,5.059-5.065c1.241-2.902,1.158-4.445,4.618-4.601c2.63-0.118,5.949,0.507,8.401-0.661
		c2.773-1.321,2.301-3.75,3.769-5.924c0.641-0.949,1.821-1.334,2.282-2.447c0.71-1.712-0.313-1.962-0.877-3.407
		c-0.534-1.371-0.119-1.809-0.246-3.316c-0.08-0.948-0.775-2.341-1.045-3.32c-0.421-1.524-0.845-2.992-1.529-4.424
		c-0.492-1.029-1.913-2.446-2.186-3.514c-0.677-2.652,1.753-7.789,2.438-10.465c0.88-3.438,1.784-6.872,2.838-10.261
		c1.02-3.282,2.095-6.606,3.723-9.64c1.053-1.962,3.05-3.276,3.939-5.322c1.371-3.156,1.684-7.492,2.283-10.89
		c0.649-3.682,0.911-7.452,1.29-11.171c0.376-3.685-0.26-7.088-0.605-10.736c-0.316-3.339,0.287-6.391,0.343-9.683
		c0.116-6.797-5.852-8.321-10.627-11.572c-3.418-2.327-5.276-2.556-9.391-2.219c-1.027,0.084-3.898-0.27-4.699,0.347
		c-0.75,0.578,0.027,1.418-0.517,1.902c-0.679,0.604-2.037-0.503-2.64,0.195c-0.585,0.677,0.406,1.831-0.332,2.771
		c-1.3,1.656-5.633,3.024-7.618,3.622c-7.419,2.234-14.89,4.392-22.385,6.354c-14.601,3.822-29.701,6.683-44.517,9.585
		c-7.44,1.457-14.92,0.984-22.432,0.488c-3.709-0.245-7.413-0.477-11.119-0.741c-1.34-0.095-2.712-0.208-4.044,0.048
		c-1.59,0.305-2.802,1.384-4.353,1.657c-3.239,0.57-5.456-1.842-7.85-3.455c-3.29-2.218-3.745,0.542-6.94,0.856
		c-3.035,0.299-2.941-0.149-2.922,2.923C23.541,236.148,22.462,236.11,20.361,234.797z"></path>
	<path class="st1" d="M280.06,279.69c2.045-0.571,4.33-0.143,6.448-0.607c1.997-0.437,4.389-0.8,6.274-1.582
		c2.399-0.994,2.195-2.275,2.011-4.662c-0.131-1.691-0.387-3.379-0.365-5.08c0.004-0.279,0.337-2.183,0.192-2.567
		c-1.226-3.245-8.816-2.341-11.543-2.46c-4.583-0.199-0.076-7.718,0.813-10.129c1.646-4.468,5.842-9.513,3.751-14.365
		c-1.393-3.233-5.436-5.96-8.995-4.413c-3.958,1.721-5.93,8.551-7.42,12.236c-1.909,4.717-3.444,9.574-4.918,14.441
		c-0.578,1.908-0.892,4.297-1.805,6.065c-1.011,1.96-2.602,2.104-4.635,2.843c-4.644,1.689-9.188,3.666-13.941,5.041
		c-1.76,0.509-4.64,1.754-6.484,1.489c-1.706-0.245-3.343-1.939-5.11-2.438c-3.874-1.093-8.927-2.345-12.951-1.805
		c-1.201,0.161-4.269,0.763-5.159,1.698c-0.886,0.931-0.686,2.594-1.21,3.93c-0.778,1.985-2.294,3.749-4.159,4.794
		c-1.063,0.596-3.151,0.629-3.422,1.966c-0.203,1.003,2.448,3.311,3.111,4.084c1.522,1.773,3.122,3.477,4.842,5.061
		c4.53,4.173,10.288,9.834,16.88,10.175c2.639,0.137,5.628-1.651,7.995-2.757c1.325-0.62,2.646-1.292,3.715-2.314
		c1.314-1.257,1.421-2.759,2.383-4.082c1.268-1.743,4.339-2.315,6.279-3.265c1.811-0.888,3.955-2.556,5.949-2.936
		c1.88-0.359,1.951-0.182,2.186,1.602c0.275,2.091-0.388,4.977-0.564,7.107c-0.385,4.662-3.095,6.141-6.615,8.618
		c-3.316,2.333-6.285,4.986-9.721,7.164c-7.594,4.813-14.423,11.196-20.738,17.563c-3.391,3.418-6.54,7.082-9.365,10.982
		c-0.849,1.173-3.272,3.575-2.751,5.044c0.888,2.501,3.32,0.238,4.348-0.557c2.954-2.285,6.603-3.625,9.142-6.448
		c2.683-2.983,4.244-6.418,7.744-8.667c4.182-2.687,9.164-4.371,13.745-6.243c2.116-0.864,3.93-1.419,6.098-1.878
		c0.434-0.092,2.709-1.183,3.14-1.058c2.113,0.61,0.143,3.11,0.275,4.363c0.145,1.378,1.879,3.368,2.486,4.733
		c1.229,2.762,2.61,9.766,6.262,10.346c3.52,0.559,7.355-2.718,8.995-5.442c1.832-3.044,1.356-6.456,2.861-9.495
		c3.434-6.932-4.021-15.441,1.213-21.771c2.748-3.323,4.216-6.182,5.112-10.533c0.897-4.359-3.466-6.531-6.589-3.299
		C276.612,286.731,275.676,280.914,280.06,279.69z"></path>
	<path class="st1" d="M395.754,269.415c1.446-0.958,1.802-3.759,1.702-5.357c-0.229-3.663-3.722-2.663-6.606-3.366
		c-3.717-0.906-6.128-1.452-9.645,0.306c-1.658,0.829-5.716,2.353-5.433-0.45c0.168-1.659,1.634-3.845,2.201-5.494
		c0.591-1.722,1.092-3.474,1.57-5.23c1.125-4.138,2.364-8.282,3.41-12.436c0.637-2.529,0.765-5.193-1.382-7.027
		c-1.042-0.89-6.264-3.968-7.315-3.141c-1.377,1.083,0.978,2.743-0.165,3.548c-0.856,0.604-2.881-0.834-3.989-0.618
		c2.096,2.947-1.302,3.829-1.355,6.483c-0.031,1.546,0.797,2.888,0.608,4.545c-0.135,1.184-0.579,2.333-0.964,3.45
		c-1.198,3.47-2.678,6.845-3.804,10.341c-0.798,2.478-1.14,5.135-2.124,7.551c-2.307,5.663-8.283,5.024-13.292,6.528
		c-3.215,0.965-6.365,2.274-9.731,2.635c-2.87,0.308-5.655-0.063-8.54,0.352c-2.787,0.4-5.65-0.606-7.938,0.924
		c-1.599,1.07-3.433,2.841-4.1,4.693c-1.31,3.638,0.997,9.325,3.574,11.867c4.611,4.547,10.051,2.277,15.284,0.229
		c5.931-2.321,12.99-7.209,19.512-6.683c-0.446,2.107-0.319,4.395-1.611,6.234c-1.437,2.045-4.109,3.351-6.11,4.769
		c-4.94,3.503-9.924,6.937-15.07,10.131c-5.235,3.25-10.494,6.462-15.748,9.681c-3.359,2.058-7.032,3.489-10.354,5.507
		c-1.399,0.85-2.456,1.86-2.926,3.465c-0.174,0.596-0.829,4.06-0.702,4.197c1.267,1.368,5.471-1.271,6.725-1.604
		c2.557-0.68,4.948,0.085,7.529,0.139c11.348,0.235,22.191-6.765,32.446-10.701c-0.639,0.828-1.278,1.656-1.917,2.485
		c2.678-0.031,2.406,0.648,2.875,3.219c0.534,2.921,1.539,5.668,2.516,8.464c0.91,2.602,1.706,4.092,3.952,1.808
		c2.704-2.75,0.882,0.266,3.646,0.624c0.588-2.137,0.917-4.348,1.596-6.46c0.654-2.033,1.804-3.557,2.675-5.458
		c1.92-4.193,0.68-8.945,1.139-13.325c0.412-3.934,4.071-2.694,7.069-3.914c3.329-1.355,6.613-3.978,8.072-7.318
		c0.924-2.113,2.17-6.727,0.882-8.834c-1.503-2.458-6.907-2.723-9.34-2.362c-2.403,0.357-5.927,1.007-3.729-3.117
		c1.653-3.102,6.137-2.935,9.164-3.173c3.68-0.289,8.683,0.196,12.081-1.39c2.802-1.308,0.818-2.187,0.026-4.414
		C391.028,268.658,394.036,270.553,395.754,269.415z"></path>
	<path class="st1" d="M460.56,267.414c-1.177,1.322-4.656,1.051-6.31,1.321c-5.532,0.902-10.985,2.209-16.41,3.602
		c-5.127,1.316-9.9,2.324-14.224,5.504c-0.948,0.698-4.513,2.715-4.626,3.906c-0.156,1.645,2.827,5.56,3.674,6.998
		c2.458,4.178,8.414,3.557,12.689,2.687c2.535-0.516,4.926-1.438,7.283-2.483c0.626-0.277,2.707-0.885,3.035-1.674
		c0.509-1.225-1.246-1.553-0.19-2.944c0.573-0.754,2.654-1.093,3.489-1.385c1.677-0.587,6.124-2.944,7.845-2.373
		c3.447,1.143-0.882,7.877-2.19,9.44c-3.335,3.986-8.29,6.839-12.464,9.88c-4.657,3.393-9.352,6.731-14.064,10.048
		c-9.301,6.548-17.815,13.252-26.139,21.017c7.381-2.931,14.452-6.769,21.716-9.992c1.309-0.581,8.971-4.967,10.06-4.075
		c1.352,1.108-3.844,3.715-4.328,5c5.87-3.672,12.793-4.585,19.311-6.527c2.938-0.875,5.472-2.712,5.306,1.669
		c-0.144,3.799-0.029,7.333,0.7,11.085c0.47,2.42,0.492,6.065,3.511,6.324c1.267,0.108,3.568-0.46,4.516-1.35
		c1.52-1.426,1.357-4.036,2.191-5.814c1.404-2.992,3.666-5.099,3.217-8.714c-0.4-3.223-1.874-6.018-2.046-9.384
		c-0.172-3.374,1.593-3.571,4.037-5.507c2.175-1.724,3.499-4.067,4.05-6.781c0.695-3.424-0.954-6.191-1.038-9.508
		c-0.056-2.256,1.302-4.521-0.893-6.035c-0.818-0.564-2.692-0.509-2.151-2.253c0.417-1.341,1.846-0.961,3.036-1.029
		c1.834-0.104,3.692-0.39,5.531-0.181c1.289,0.147,3.228,1.31,4.483,1.117c2.57-0.394,3.421-2.848,6.553-2.465
		c0.258-1.411-2.122-2.472-1.149-4.13c0.956-1.631,3.008,0.09,4.126-1.153c0.408-0.454,0.428-2.007,0.715-2.664
		c0.168-0.387,0.789-0.711,0.919-1.145c0.875-2.913-1.463-2.56-3.292-2.755c-1.982-0.211-3.489-1.468-5.359-1.982
		c-1.074-0.296-2.029-0.481-3.117-0.099c-0.444,0.156-1.341,1.006-1.63,1.045c-0.942,0.129-1.445-0.57-2.415-0.487
		c-0.704,0.06-1.745,1.035-2.359,1.334c-0.876,0.428-4.632,2.311-5.605,1.561c-2.105-1.624,1.086-10.2,1.613-12.288
		c0.673-2.663,1.418-5.306,2.09-7.969c0.307-1.217,1.663-4.154,1.192-5.46c-1.701-4.726-7.428,3.757-8.241,5.509
		c-1.989,4.291-3.646,9.124-4.934,13.665C461.731,261.447,461.845,265.97,460.56,267.414z"></path>
	<path class="st1" d="M190.127,196.396c0.126,1.38,2.113,3.645,2.74,4.991c0.898,1.93,1.724,3.896,2.605,5.834
		c1.499,3.296,2.558,5.745,4.981,8.544c2.118,2.447,4.826,6.327,8.031,7.305c1.597,0.487,5.58,0.502,6.927-0.639
		c1.336-1.133-0.033-2.147,0.65-3.381c0.7-1.263,1.786-0.279,2.843-0.171c3.728,0.382,1.681-2.216,1.056-4.531
		c-0.242-0.897-0.643-1.304,0.085-2.058c0.276-0.285,1.636-0.164,1.844-0.479c0.695-1.048-1.081-1.465-1.368-2.554
		c-0.616-2.332,1.663-5.246,1.076-7.839c-0.322-1.425-2.973-3.235-2.842-4.493c0.143-1.373,1.275-0.159,1.858-0.937
		c1.136-1.517-2.076-5.014-2.59-6.113c-1.91-4.087,2.216-1.655,2.454-3.881c0.062-0.581-0.938-1.106-1.11-1.615
		c-0.487-1.442,0.004-1.613,0.69-2.825c0.873-1.545,1.815-2.712,0.643-4.382c-0.754-1.073-2.602-1.719-3.575-2.724
		c-1.119-1.154-2.22-2.8-2.691-4.35c-0.361-1.186,0.134-2.809-0.511-3.836c-1.168-1.862-2.721-0.924-4.501-0.878
		c-1.542,0.04-3.047-0.426-4.573-0.555c-3.642-0.308-5.35,2.05-8.731,2.05c-4.869-0.129-0.703,4.255-1.142,6.342
		c-0.238,1.135-1.481,1.713-1.746,2.943c-0.177,0.822-0.027,1.525,0.168,2.333c0.366,1.521,1.09,2.945,1.425,4.486
		c0.309,1.424,0.599,2.89-0.112,4.248c-0.829,1.584-2.784,1.618-3.167,3.385c-0.245,1.132,0.757,2.327,0.352,3.447
		C191.357,195.558,190.007,195.073,190.127,196.396z"></path>
	<path class="st1" d="M246.782,178.275c-1.28-1.269-3.984-1.176-5.596-1.315c-1.471,0.838-3.344,0.396-4.817,1.294
		c-1.987,1.212-3.24,3.791-5.14,5.269c-3.184,2.476-4.642,6.044-5.316,10.086c-0.711,4.259,3.429,7.635,5.664,10.861
		c1.325,1.912,5.119,5.422,7.964,3.863c1.077-0.591,0.621-2.028,1.39-3.225c0.912-1.417,2.51-2.179,3.426-3.629
		c0.64-1.013,2.839-4.166,2.77-5.224c-0.109-1.672-2.002-1.631-1.805-3.517c0.135-1.288,1.624-2.435,2.012-3.646
		c0.609-1.899-0.03-3.718-0.235-5.625C246.896,181.589,248.085,179.567,246.782,178.275z"></path>
</g>
</svg>
