<!--?xml version="1.0" encoding="utf-8"?-->
<!-- Generator: Adobe Illustrator 22.1.0, SVG Export Plug-In . SVG Version: 6.00 Build 0)  -->
<svg version="1.1" id="_x35_" xmlns="http://www.w3.org/2000/svg" xmlns:xlink="http://www.w3.org/1999/xlink" x="0px" y="0px" viewBox="0 0 512 512" style="enable-background:new 0 0 512 512;" xml:space="preserve">
<style type="text/css">
	.st0{fill:#000000;}
	.st1{fill:#FFFFFF;}
</style>
<g>
	<path class="st0" d="M156.2,356.3l-33.1-105.7c-11.2,31.7-18.9,64.6-22.9,98.1l-2.1,17.4l-87.8-10l3.1-15.5
		C26.2,275,49.2,212.3,81.7,154l7.7-13.8l64.4,4.7l29.5,92.1c8.9-26.2,20.8-58.7,32.2-81.5l4.4-8.7l76.7,5.7L286,172.3
		c-0.7,1.3-70.3,130.6-81.3,180.8l-3.2,14.7L156.2,356.3z"></path>
	<path class="st0" d="M291.6,363.8c-7.6,0-15.2-1.3-22.7-3.9c-34.4-11.9-38.3-69.9-27.8-107.2c10.6-37.9,44.3-63.3,83.9-63.3
		c2.8,0,5.6,0.1,8.4,0.4c16,1.5,29.4,10.2,37.7,24.7c13.2,23.1,12.7,59.9-1.3,89.5C352.1,341.5,322.9,363.8,291.6,363.8
		C291.6,363.8,291.6,363.8,291.6,363.8z M316.5,256.7c-5.6,0-13.9,6.3-17.1,12.9c-4.8,10.1-7.9,27.7-4.5,35.1c0.6,1.3,1,1.4,1.4,1.6
		c0.5,0.1,0.9,0.2,1.4,0.2c4.1,0,10.4-7,14.4-16c11.5-25.9,8.2-31.8,6.9-32.9C318.4,257,317.8,256.7,316.5,256.7z"></path>
	<path class="st0" d="M393.5,315.6l3.4-13.8c0.3-1.1,0.9-4.5,1.6-8c3.8-20.3,12.8-68,29.5-103.4l4.1-8.6l69.7,2l-9.7,20.3
		c-0.4,0.8-39.4,82.1-47.5,110.7l-4,13.9L393.5,315.6z"></path>
	<polygon class="st0" points="377.2,361.7 393.4,310.6 443.9,318.2 427.6,371.8 	"></polygon>
	<path class="st1" d="M85.6,347c5.8-48.3,19-95.4,39.2-139.6l0,0l42.8,136.8l22.8,5.8c11.5-52.7,82.7-184.6,82.7-184.6l-44.5-3.3
		c-21.4,42.8-45.3,122.8-45.3,122.8L143,158.8l-45.3-3.3l-3.2,5.7C62.7,218,40.2,279.5,27.6,343.3l0,0l57.7,6.6L85.6,347z"></path>
	<path class="st1" d="M332.1,204.3c-36.5-3.3-67.6,19.2-76.9,52.4c-9.3,33.1-5,81.3,18.6,89.5c34.5,11.9,65.6-11.9,82.9-48.4
		C373.8,261.3,368.5,207.6,332.1,204.3z M325.4,296.4c-5.3,11.9-17.2,28.5-33.1,23.9c-20.2-5.9-13.3-41.8-6-57
		c7.3-15.2,29.2-28.5,42.4-16.6C342,258.6,330.7,284.5,325.4,296.4z"></path>
	<path class="st1" d="M441.2,196.7c-19.4,40.9-28,100.1-30.1,108.7l19.4,5.4c8.6-30.1,48.4-113,48.4-113L441.2,196.7z"></path>
	<polygon class="st1" points="403.5,326.9 396,350.6 417.5,354.9 425.1,330.1 	"></polygon>
</g>
</svg>
