<!--?xml version="1.0" encoding="utf-8"?-->
<!-- Generator: Adobe Illustrator 22.1.0, SVG Export Plug-In . SVG Version: 6.00 Build 0)  -->
<svg version="1.1" id="_x36_" xmlns="http://www.w3.org/2000/svg" xmlns:xlink="http://www.w3.org/1999/xlink" x="0px" y="0px" viewBox="0 0 512 512" style="enable-background:new 0 0 512 512;" xml:space="preserve">
<style type="text/css">
	.st0{fill:#000000;}
	.st1{fill:#FFFFFF;}
</style>
<g>
	<path class="st0" d="M70.2,287.2c-9.2-10.1-18.8-19.9-28.6-29.5c0.9,12.6,3.6,24.8,7.7,36.6c0.7,1.9,1.3,3.7,2,5.6
		c-10.1,3.7-20.2,7.8-30.2,12.2c-0.6-1.7-1.1-3.3-1.7-5c-7.6-22.7-10.9-46.7-8.4-71.4c0.2-1.9,0.4-3.8,0.6-5.6
		c8.4-3.6,16.9-7.1,25.4-10.3c8.9,8.4,17.5,17,25.8,25.7c-0.5-10.1-0.6-23.3,0.8-33c0.2-1.1,0.3-2.2,0.5-3.3
		c10.2-3.3,20.5-6.3,30.8-9c-0.6,2.5-1.2,5.1-1.8,7.6c-0.7,0.5-10.8,53.7-7.1,71.9c0.3,1.7,0.6,3.3,0.8,5
		C81.4,285.3,75.8,286.2,70.2,287.2z"></path>
	<path class="st0" d="M113.7,274.5c-1.2,0.3-2.4,0.6-3.7,0.7c-4.5,0.6-8.8-1.2-12.4-5.1c-7.3-8-10.2-24-5.6-36.6
		c3.8-10.6,13-19,23.5-21.4c5.9-1.4,11.6-0.7,15.8,1.8c4.3,2.6,6.9,6.7,7.6,12.1c1.3,9.1-0.5,19.7-4.4,28.5
		C129.9,265.1,122.6,272.1,113.7,274.5L113.7,274.5z"></path>
	<path class="st0" d="M162.9,264.2c-2.4,0.4-4.8,0.4-7.3,0.1c-11.4-1.6-16.4-18.4-15.2-30.2c1.2-12,11.3-21.8,24.9-23.8
		c1-0.1,1.9-0.2,2.9-0.3c5.6-0.3,10.7,1.8,14,5.9c5.3,6.5,6.2,17.6,2.8,27C180.7,254.7,172.6,262.5,162.9,264.2L162.9,264.2
		L162.9,264.2z"></path>
	<path class="st0" d="M205,260c-0.5,0-1,0.1-1.6,0.1c-2.6,0-6.3-0.8-9.8-4.8c-5-5.7-7.6-16.1-5.7-25.3c2.1-10.6,11.8-18.8,23.5-19.6
		c2-0.1,4,0,6,0.3c4.4,0.8,7.8,3.2,9.9,6.9c3.4,6,2.7,14.5,0.5,19.5c0,0.1-0.1,0.2-0.1,0.3C224.6,243.9,218.2,258.9,205,260L205,260
		L205,260z"></path>
	<path class="st0" d="M246.1,257.4c-1.3,0-2.5-0.1-3.8-0.3c-3-0.6-5.5-2.2-7.2-4.7c-4.4-6.3-2.7-16.8-1.7-21
		c2.7-11.4,14.4-18.6,23.5-18.5c0.5,0,1.1,0,1.6,0.1c4.5,0.5,8.7,3.2,11.2,7c2.9,4.4,3.3,9.8,1.2,15.1
		C268.6,240.4,260.9,257.4,246.1,257.4L246.1,257.4L246.1,257.4z"></path>
	<path class="st0" d="M282.5,258.6c-2.2-0.1-4.4-0.7-6.5-1.7c-2.9-1.3-5.1-4.3-6.3-8.5c-1.4-5.1-1.5-13.3,3.4-19.6
		c4.1-5.3,10.8-8.2,17.9-7.6c7.9,0.6,13.7,5.5,14.3,12c0.6,6.2-3.1,14.5-8.5,19.6C292.6,256.9,287.6,258.9,282.5,258.6L282.5,258.6
		L282.5,258.6z"></path>
	<path class="st0" d="M310.1,247.4c2-5.9,4-11.7,6.1-17.6c1.3,0,2.6,0.1,3.9,0.1c6.9,0.2,18.1,1.4,34,4.5
		c17.3,3.3,37.1,8.7,52.8,13.8c10.8,3.5,20,6.8,25.4,8.7c3.5,1.2,4.3,1.5,4.5,1.5c2.2,0.5,4.5,1,6.7,1.5c-0.9,1.8-1.8,3.7-2.7,5.5
		c-2.1,4.3-4.2,8.5-6.3,12.8C394.1,263,352.4,252.7,310.1,247.4z"></path>
	<path class="st0" d="M453.1,279.1c1-1.3,1.9-2.5,2.9-3.8c0.2-0.2,0.7-1,1.3-1.8c3.2-4.7,10.8-15.8,19.7-22.7c0.9-0.7,1.7-1.3,2.6-2
		c7.4,3.5,14.8,7.1,22.1,10.9c-2.1,1.5-4.3,2.9-6.4,4.4c-5.9,4-21.7,16.1-26.1,21.2c-1.1,1.2-2.2,2.4-3.2,3.7
		C461.8,285.7,457.5,282.4,453.1,279.1z"></path>
	<path class="st0" d="M443.8,289c3.6-4.2,7.2-8.3,10.9-12.5c5,2.9,9.9,5.9,14.8,8.9c-3.9,4.2-7.8,8.5-11.6,12.8
		C453.2,295.1,448.5,292,443.8,289z"></path>
	<path class="st1" d="M23.2,305.5c6.8-2.9,13.6-5.7,20.5-8.3c-0.1-0.3-0.2-0.7-0.4-1c-6-16.4-9.3-33.7-8.8-51.5
		c12.7,12.1,24.9,24.5,36.5,37.3c2.9-0.5,5.9-1,8.8-1.5c-4.2-19,5.7-73.3,6.4-73.4c-6.1,1.7-12.2,3.5-18.3,5.5
		c-2.7,17.5,0,47.5,0.1,47.5c-11-11.7-22.4-23.2-34.3-34.3c-6.1,2.4-12.1,4.8-18.1,7.4c-0.1,0.8-0.2,1.6-0.3,2.4
		C12.9,259.8,16,283.3,23.2,305.5z"></path>
	<path class="st1" d="M132.4,226.7c-2.3-17.2-28.9-12.4-36.4,8.1c-5.9,16.1,1.9,36.9,12.3,35.5C126.4,268,134.7,243.8,132.4,226.7z
		 M110.6,259.6c-5.6,1.5-8.1-14.7-2.9-23.7c5.2-9,12.7-8.3,13.7-3.7C122.4,236.8,120.9,256.8,110.6,259.6z"></path>
	<path class="st1" d="M178.9,241c4.1-11.4,0.6-27.2-11.8-26.4c-12.3,0.8-21.5,9.3-22.6,19.6c-1.1,10.3,3.1,24,10.7,25.1
		C166.4,260.8,174.8,252.5,178.9,241z M159.7,250.7c-6.6-0.6-6.3-11.5-4.7-16.4c1.5-4.9,8.1-9.9,13-7.1c4.8,2.9,2.2,11,1.1,14.8
		C167.8,245.8,164.9,251.2,159.7,250.7z"></path>
	<path class="st1" d="M215,215.3c-9.2-1.7-20.8,4.2-23,15.3c-2.3,11.1,2.8,24.3,10.4,24.3c11,0,16.8-14.2,19.4-19.9
		C224.2,229.4,224.1,216.9,215,215.3z M203.8,245.5c-3.6,0.1-4.7-8.1-3-13c2.2-6.6,11.7-11.4,12-3.7
		C213,236.5,209.8,245.4,203.8,245.5z"></path>
	<path class="st1" d="M256.6,217.5c-5.7-0.7-16.7,4.3-19.2,14.6c-1.9,7.5-2.2,18.6,4.7,19.8c11.9,2.2,19.3-10.5,22.6-18.9
		C268,224.6,262.3,218.1,256.6,217.5z M256,231.2c-0.7,4.1-4.8,12.5-9.6,11.6c-3.4-0.7-3.3-8.7,0.6-12.8
		C250.8,225.9,256.7,227.1,256,231.2z"></path>
	<path class="st1" d="M276.3,231.3c-5.6,7.2-3.3,18.9,0.8,20.8c12.5,5.8,22.6-10.3,21.8-18.9C298.1,224.5,283.2,222.5,276.3,231.3z
		 M283.5,246.3c-4.6,0.3-4.2-8.2-0.5-12.1c3.7-3.9,7.8-0.4,7.8,1.9C290.8,238.6,288.3,246,283.5,246.3z"></path>
	<path class="st1" d="M318.9,234.4c-1,2.8-2,5.7-3,8.6c39,5.2,77.4,14.7,114.7,28.4c1.4-3,2.8-5.9,4.2-8.8
		c-3.4-0.7-25.2-9.5-50.1-16.2C359.9,239.4,332,234.5,318.9,234.4z"></path>
	<path class="st1" d="M459.4,277.6c1.6,1.2,3.2,2.4,4.8,3.7c5.5-6.7,26.4-22.2,26.5-22.1c-3.6-1.8-7.2-3.5-10.8-5.3
		C469.7,261.7,461,275.7,459.4,277.6z"></path>
	<path class="st1" d="M450.5,287.4c1.8,1.2,3.6,2.4,5.4,3.5c1.6-1.8,3.1-3.6,4.7-5.4c-1.8-1.1-3.7-2.2-5.6-3.3
		C453.5,283.9,452,285.6,450.5,287.4z"></path>
</g>
</svg>
