<!--?xml version="1.0" encoding="utf-8"?-->
<!-- Generator: Adobe Illustrator 22.1.0, SVG Export Plug-In . SVG Version: 6.00 Build 0)  -->
<svg version="1.1" id="_x36_" xmlns="http://www.w3.org/2000/svg" xmlns:xlink="http://www.w3.org/1999/xlink" x="0px" y="0px" viewBox="0 0 512 512" style="enable-background:new 0 0 512 512;" xml:space="preserve">
<style type="text/css">
	.st0{fill:#000000;}
	.st1{fill:#FFFFFF;}
</style>
<g>
	<path class="st0" d="M104,351c-0.5,0.2-1.1,0.3-1.6,0.4c-13.7,3.5-27.6,1.5-41.2-6c-21.4-12-40.4-36.8-47.5-68.4
		c-5.4-24.5-4.4-44.6,3.5-61.2c9.4-19.7,28.8-34.1,56.4-40.8c3.6-0.9,7.3-1.6,11.1-2.2c21.2-3.3,39.9,1.1,53.3,12
		c26,21.3,27.4,60.2,23.7,86.4c-3.3,22.1-9,38.9-17.4,51.6C134.8,337,121.6,346.2,104,351L104,351z M83.7,230.7
		c-5.3,1.3-9.6,7.4-12.1,18C67.7,264,74,293.6,83.4,301c1.7,1.4,2.5,1.1,3.3,0.9c12.7-3.5,17.4-23.3,16.7-40.4
		c-0.8-19.7-7.1-30.7-13.3-31.2C87.5,230.1,85.4,230.2,83.7,230.7z"></path>
	<path class="st0" d="M179.1,308.1c1.5-8,3-66.9,5.4-98.7c2.9-41.2,3.3-41.2,5-43.8c3.6-5.2,10.9-5.8,16.8-6.2
		c13.7-1.2,40.5-0.1,41.6,0.1c4.8,0.3,9.6,0.6,14.4,0.9c-5.5,15.7-10.7,31.4-15.5,47.2c3.1-0.5,6.5-0.8,10.2-0.8
		c4.8,0,9.8,0.4,15.1,1.2c18.2,3,29.7,13,33.2,28.2c2.6,11.5,0.8,24.3-1.4,37.4c-3.8,23.6-6.5,33.9-6.6,34.4
		c-0.6,2.1-1.1,4.3-1.7,6.4c-2.2,0.2-4.5,0.4-6.7,0.6c-0.6,0-14.1,1.4-23.1,1.4h0c-5.2,0-11-0.3-14.5-4.9c-2-2.5-2.6-5.8-1.7-8.9
		c0.4-1.7,1.9-11.3,2.4-21.9c0.6-13.4-0.9-19.1-1.7-21.1c-2.6-0.4-5.1-0.8-6.9-0.7c-0.6,0-0.9,0.1-1,0.1c-0.3,0.3-1.3,1.7-2.1,5.7
		c-3.1,14.6-7.2,42.8-7.2,43.1c-0.3,2.5-0.7,4.9-1,7.4c-15.4,1.4-30.8,3.4-46.1,6c-5.4,0.9-10-4.3-8.1-9.3
		C178.2,310.5,178.6,309.3,179.1,308.1z"></path>
	<path class="st0" d="M343.8,303.5c-2.7-0.3-5.3-1.1-7.8-2.4c-10.4-5.2-16.6-14.9-15.3-25c1.2-9.4,9-16.8,20-18.6
		c5.1-0.8,9.8-0.9,14.1-0.4c9.7,1.3,14.6,5.7,17,9c2.4,3.3,4.5,9,1.9,16.9C369.2,296.4,356.4,305,343.8,303.5L343.8,303.5z"></path>
	<path class="st0" d="M403.7,312.6c-2.9-0.7-5.6-1.8-7.9-3.5c-7.3-5.2-10.2-14.9-6.8-24.3c3.2-9,11.7-14.7,21.7-14.2
		c2.1,0.1,4.2,0.4,6.3,0.9c8.5,1.9,15.5,7,18.3,13.4c2.4,5.3,1.9,11.1-1.2,15.9C428,309.8,414.5,315,403.7,312.6L403.7,312.6
		L403.7,312.6z"></path>
	<path class="st0" d="M467.4,332.2c-2.5-0.8-4.7-2.2-6.6-4c-7.1-6.8-7.1-18.7-3.2-26.5c3.9-7.9,11.9-12.2,21.4-11.1
		c2.9,0.3,5.7,0.9,8.1,1.8c7.2,2.5,12.2,7,14,12.7c1.8,5.8,0.1,11.9-4.7,17.2C488.4,331.4,476.6,335.3,467.4,332.2z"></path>
	<path class="st1" d="M99.7,342.5c32.8-8.3,46.2-32.3,51.7-72.3c5.6-39.3-6.6-96.5-65.4-88.1c-58.3,9.8-71.1,48.1-61.5,92.6
		C34.5,319.7,67.6,350.8,99.7,342.5z M60.6,247.4c4.9-21.2,16.4-27.8,31.4-26.4c15.1,1.4,21.6,18.7,22.1,40c0.4,21.4-6,44.8-24.6,50
		C67.4,317.3,55.5,268.7,60.6,247.4z"></path>
	<path class="st1" d="M230,225.9c5.1-19.1,10.7-38.2,16.8-57.1c0.1-0.4-45.3-1.5-46.9,1.1c-0.7,1.1-4.1,34.1-6.3,68
		c-2.4,33.9-3.8,68.6-5.5,73.3c11.6-1.9,23.3-3.4,35.1-4.6c-0.1,0,3.5-28.6,6.5-43.5c2.9-15,10.7-14.7,24.5-12.2
		c13.7,2.6,5.5,50.4,4.4,54.4c-1.4,3.8,29.1,0.2,29.1,0.4c0,0,2.5-10,5.9-33.4c3.3-23.3,6.9-49.9-23.8-55.1
		C239.1,212.3,229.9,226.1,230,225.9z"></path>
	<path class="st1" d="M340.6,292.8c8.7,4.4,19.8-1.5,23.2-12.5c3.5-11-6.5-16.1-21.2-13.7C327.9,269.1,326.2,285.7,340.6,292.8z"></path>
	<path class="st1" d="M410.3,280c-12.3-0.6-16.4,16-8.5,21.6c6.9,4.9,19.1,0.9,23.4-5.7C429.5,289.4,422.6,280.6,410.3,280z"></path>
	<path class="st1" d="M478,300.1c-13.2-1.4-15.5,16.3-9.9,21.7c4.5,4.3,14,1.9,20.2-5.2C494.5,309.4,491.2,301.6,478,300.1z"></path>
</g>
</svg>
