<!--?xml version="1.0" encoding="utf-8"?-->
<!-- Generator: Adobe Illustrator 22.1.0, SVG Export Plug-In . SVG Version: 6.00 Build 0)  -->
<svg version="1.1" id="_x36_" xmlns="http://www.w3.org/2000/svg" xmlns:xlink="http://www.w3.org/1999/xlink" x="0px" y="0px" viewBox="0 0 512 512" style="enable-background:new 0 0 512 512;" xml:space="preserve">
<style type="text/css">
	.st0{fill:#000000;}
	.st1{fill:#FFFFFF;}
</style>
<g>
	<path class="st0" d="M84.3,291.8c-8.3-9.5-43.3-49.2-69.3-104.3c-1.6-3.5-3.2-7-4.9-10.5c21-6.5,42.3-12.1,63.8-16.6
		c1.3,3,2.6,6,3.9,9c8.6,19.9,17.6,40.9,24.4,56.6c6.4-29.8,21-57.5,21.9-58.9c0.8-1.4,1.5-2.8,2.3-4.2c22.3,0.3,44.5,1.3,66.5,3
		c-20.3,32.6-37.2,69.7-50.2,110.9c2.7,16.7,5.4,33.5,8.2,50.3c-16.8,7.3-33.3,15.4-49.3,24.3C95.9,331.6,90.1,311.7,84.3,291.8z"></path>
	<path class="st0" d="M173.6,309.5c0-0.2-0.1-0.4-0.2-0.8c-3.8-19.5-13.2-69.6-4.8-102.2c0.5-1.8,0.9-3.5,1.4-5.3
		c28.2-3.2,56.6-4.7,84.9-4.4c-2.3,12.8-4.4,25.9-6.3,39.1c-14.1,0.7-28.2,1.8-42.2,3.3c-0.1,0.7-0.2,1.4-0.3,2.1
		c13-1.7,26.1-3,39.2-3.9c-1.8,11.7-3.5,23.7-5,35.8c-0.1,0-0.3,0-0.4,0.1c0,1,0,2,0,3c0,0.2,0.1,4.8-0.1,9.5
		c-0.1,3-0.3,5.3-0.5,7.2c-1.1,7.7-4.9,10.1-7.9,10.7c-0.4,0.1-0.9,0.1-1.4,0.1c-0.3,0-0.9,0.1-2.1,0.4c-11,1.8-44.5,11.9-44.8,12.3
		c-2.6,0.8-5.1,1.7-7.7,2.6C174.8,315.9,174.2,312.7,173.6,309.5z"></path>
	<path class="st0" d="M250.1,292.1c0.3-16.1,13-77.2,20-88.1c0.8-1.4,1.5-2.7,2.3-4.1c23.6,1.5,47,4.1,70.3,7.8
		c-0.1,2.2-0.2,4.4-0.3,6.6c-0.1,2.7-2.6,64.3-3,69.9c-0.1,2.3-0.3,4.5-0.4,6.8c-13,0.1-26,0.5-39,1.2c0.4-7,0.9-14,1.4-20.9
		c-2.5,0.1-5,0.2-7.5,0.3c-1.5,7.8-3,15.6-4.4,23.6c-13.4,1.8-26.6,3.9-39.8,6.6C249.8,298.5,249.9,295.3,250.1,292.1z M303.4,240.2
		c0-1.5,0-2.9,0-4.4c-0.4,0-0.8,0-1.2,0c-0.2,1.4-0.4,2.8-0.7,4.3C302.1,240.1,302.7,240.2,303.4,240.2z"></path>
	<path class="st0" d="M340.6,289.5c0.2-2.2,0.5-4.4,0.7-6.6c3.5-33.5,13.3-65.3,13.8-66.5c0.5-1.7,1.1-3.4,1.6-5
		c14,2.1,28,4.7,42,7.6c-0.8,2.2-1.6,4.3-2.4,6.5c0,0.1-3,7.9-6.7,21.1c2.9,0.4,5.9,0.8,8.8,1.2c4.6-12.6,8.8-20.8,8.9-21.2
		c0.7-1.4,1.4-2.8,2.1-4.1c15,3.4,29.9,7.4,44.6,11.8c-1,1.8-2.1,3.6-3.1,5.4c-0.1,0.1-11.4,19.9-20.8,49.5
		c-0.5,1.6-1.1,3.3-1.6,4.9c-13.9-1.7-27.9-3-41.9-3.9c0.4-2,0.8-3.9,1.2-5.9c0.9-4.3,2-8.8,3.2-13.5c-2.5-0.2-5-0.5-7.5-0.7
		c-1.1,4.9-2.2,9.8-3.1,14.7c-0.4,1.9-0.8,3.9-1.1,5.8C366.4,289.9,353.5,289.5,340.6,289.5z"></path>
	<path class="st0" d="M442.1,279.2c0.4-1.6,0.9-3.2,1.3-4.7c0.2-0.6,4.9-18,14.6-35.1c0.8-1.4,1.6-2.7,2.4-4.1
		c13.9,5.2,27.7,10.8,41.4,16.7c-1.2,1.3-2.4,2.5-3.5,3.8c-13,14.3-21.3,26.9-21.4,27c-0.8,1.2-1.6,2.4-2.4,3.6
		C463.7,283.7,452.9,281.3,442.1,279.2z"></path>
	<path class="st0" d="M435.7,293.7c2.3-6.7,4.6-13.4,7-20c11.8,2.6,23.5,5.5,35.2,8.7c-2.6,5.7-5.3,11.5-7.9,17.3
		C458.6,297.5,447.2,295.5,435.7,293.7z"></path>
	<path class="st1" d="M107.2,256.6c-3.9-4.9-37.9-84.2-38.3-84.4c-15.1,3.5-30,7.6-44.9,12.2c28,60.5,67.9,102.3,67.5,102.2
		c4.8,17,9.5,34,14.3,51.1c11.9-6.1,24-11.8,36.2-17c-2.7-15-5.3-30-7.8-45c11.2-37.3,25.6-71.4,42.8-102
		c-14.6-0.8-29.3-1.2-44.1-1.2C132.4,171.7,107.3,222.4,107.2,256.6z"></path>
	<path class="st1" d="M181.2,307.5c-0.2-0.6,46.9-13.1,49.2-12.2c2,0.3,1.5-18.6,1.5-18.6c-0.1-0.2-30.6,6.1-32.7,6
		c-2.3-0.3-3.4-4.8-3.8-10.9c12.5-2.3,25-4.3,37.5-5.9c0.8-6.5,1.6-13,2.4-19.4c-13.1,1.3-26.2,3-39.2,5.1c1-10.9,2.8-20.3,2.8-20.3
		c14-1.5,28-2.5,42-3.1c1.1-7.9,2.2-15.7,3.4-23.4c-22.4,0.5-44.7,2-67,4.7C167.9,245.1,180.8,304.1,181.2,307.5z"></path>
	<path class="st1" d="M278.2,207.9c-6.3,9.3-19.7,68.4-20.3,84.2c8.2-1.4,16.5-2.6,24.8-3.6c1.3-8.1,2.8-16.1,4.2-24
		c7.7-0.3,15.4-0.5,23.1-0.5c-0.6,6.9-1.1,13.8-1.7,20.7c7.7-0.2,15.4-0.3,23.1-0.3c0.3-5.7,2.2-71.1,2.1-71.2
		C315.2,210.7,296.7,209,278.2,207.9z M311.8,247.6c-6.9-0.2-13.9-0.3-20.8-0.3c2.1-4.4,3.4-18.8,3.4-18.8c5.9,0,11.8,0.2,17.7,0.4
		C312,235.1,311.9,241.3,311.8,247.6z"></path>
	<path class="st1" d="M376.6,263.4c8.1,0.7,16.2,1.5,24.3,2.5c-1.9,6.1-3.7,12.5-5.2,19c8.8,0.8,17.6,1.8,26.3,2.9
		c9.3-31.1,20.4-51.6,20.4-51.5c-8.9-2.4-17.9-4.6-26.9-6.7c0,0-5.3,10.1-10.8,24.9c-8.3-1.2-17.9-2.3-25.4-3.1
		c4.4-17.8,8.3-28.6,8.3-28.6c-8-1.5-16-2.8-24-4c-0.1-0.2-10.5,31.4-14.4,64.2c7.7,0.2,15.4,0.6,23.2,1.1
		C373.8,276.7,375.2,269.8,376.6,263.4z"></path>
	<path class="st1" d="M466.3,242.7c-9.8,16.4-14.7,33.5-14.7,33.4c5.8,1.3,11.6,2.7,17.4,4.2c0,0.1,8.2-13,21.3-28.3
		C482.3,248.8,474.3,245.7,466.3,242.7z"></path>
	<path class="st1" d="M445.3,290.2c6.3,1.1,12.5,2.3,18.7,3.6c1.3-3.1,2.6-6.1,3.9-9.2c-6.3-1.5-12.6-3-19-4.4
		C447.8,283.6,446.5,286.9,445.3,290.2z"></path>
</g>
</svg>
