<!--?xml version="1.0" encoding="utf-8"?-->
<!-- Generator: Adobe Illustrator 22.1.0, SVG Export Plug-In . SVG Version: 6.00 Build 0)  -->
<svg version="1.1" id="_x36_" xmlns="http://www.w3.org/2000/svg" xmlns:xlink="http://www.w3.org/1999/xlink" x="0px" y="0px" viewBox="0 0 512 512" style="enable-background:new 0 0 512 512;" xml:space="preserve">
<style type="text/css">
	.st0{fill:#000000;}
	.st1{fill:#FFFFFF;}
</style>
<g>
	<path class="st0" d="M65.5,283.8c-6.2-6.4-31.9-32.7-51.5-69.4c-1.2-2.3-2.5-4.7-3.7-7c13.4-5.5,27-10.5,40.7-15
		c1,2,2.1,4.1,3.1,6.1c6.9,13.6,14.3,28,19.8,38.7c2.4-21.3,9.9-42.3,10.4-43.4c0.4-1.1,0.8-2.1,1.2-3.2c14.6-1.4,29.2-2.5,43.7-3.1
		c-10.2,26.3-18.5,54.4-24.5,84.2c3,11.8,6,23.6,9,35.5c-11.3,5.4-22.4,11.2-33.3,17.4C75.4,310.9,70.4,297.3,65.5,283.8z"></path>
	<path class="st0" d="M129.6,297.2c0-0.1-0.1-0.3-0.2-0.7c-4.4-14.8-15-52.6-12.5-78.3c0.1-1.4,0.3-2.7,0.4-4.1
		c18.4-4.3,37.1-7.8,55.8-10.4c0,10.5,0,21.2,0.2,31.9c-9.4,1.6-18.7,3.3-28,5.3c0,0.5,0,1.1,0,1.6c8.4-2,16.8-3.7,25.3-5.3
		c0,8.3,0,16.6,0.2,25l0.1,0c0.3,2.3,0.7,4.7,1,7c0,0.2,0.6,3.8,1,7.6c0.2,2.4,0.4,4.2,0.4,5.7c0.1,6.1-2.3,8-4.4,8.6
		c-0.3,0.1-0.6,0.1-0.9,0.1c-0.2,0-0.6,0.1-1.4,0.3c-7.3,1.8-29.7,10-29.8,10.3c-1.7,0.7-3.4,1.4-5.2,2
		C130.9,301.8,130.2,299.5,129.6,297.2z"></path>
	<path class="st0" d="M225.4,270.5c-0.3-11.2,5.9-55.3,10-63.7c0.4-1,0.9-2.1,1.4-3.1c15.7,0,31.3,0.4,46.9,1.5
		c0.1,1.7,0.1,3.4,0.2,5c0.1,2.1,2.1,49.5,2.1,53.9c0,1.8,0.1,3.5,0.1,5.3c-8.8,0.2-17.7,0.7-26.5,1.3c0-5.2-0.1-10.4-0.1-15.5
		c-1.7,0.1-3.4,0.2-5.1,0.4c-0.7,5.8-1.3,11.5-1.9,17.4c-9.1,1.3-18.1,2.8-27.1,4.5C225.4,275,225.4,272.7,225.4,270.5z
		 M259.2,231.9c-0.1-1.1-0.1-2.2-0.2-3.2c-0.3,0-0.6,0-0.8,0c-0.1,1-0.2,2.1-0.3,3.2C258.3,231.9,258.8,231.9,259.2,231.9z"></path>
	<path class="st0" d="M459.9,273.2c0.4-1,0.8-2,1.1-3c0.2-0.4,4.3-11.5,11.8-22.3c0.6-0.9,1.2-1.7,1.8-2.6
		c9.1,3.9,18.2,7.9,27.1,12.1c-0.9,0.8-1.7,1.7-2.6,2.5c-9.6,9.5-15.9,17.6-16,17.6c-0.6,0.8-1.2,1.5-1.8,2.3
		C474.2,277.6,467,275.3,459.9,273.2z"></path>
	<path class="st0" d="M389.9,271.6c0.3-1.3,0.6-2.6,0.9-3.9c4.6-19.9,13.3-38.5,13.7-39.2c0.5-1,0.9-2,1.4-2.9
		c9.2,2.1,18.4,4.5,27.5,7c-0.7,1.3-1.4,2.6-2,3.9c0,0.1-2.5,4.8-5.8,12.7c2.3,0.5,4.7,1.1,7,1.6c3.9-7.5,7.1-12.4,7.2-12.7
		c0.5-0.8,1.1-1.7,1.6-2.5c9.8,2.9,19.6,6,29.3,9.4c-0.8,1.1-1.6,2.2-2.4,3.3c-0.1,0.1-8.8,12.5-16.8,30.9c-0.4,1-0.9,2.1-1.3,3.1
		c-9.3-2.2-18.7-4.2-28.1-6c0.4-1.2,0.8-2.4,1.2-3.6c0.9-2.6,1.9-5.4,3-8.2c-2-0.4-4-0.8-6.1-1.2c-1.1,3-2.1,6-3,8.9
		c-0.4,1.2-0.8,2.4-1.1,3.5C407.3,274.2,398.6,272.8,389.9,271.6z"></path>
	<path class="st0" d="M454.7,282.3c1.9-4.2,3.9-8.4,5.8-12.6c7.8,2.4,15.6,5,23.4,7.7c-2.1,3.8-4.2,7.6-6.3,11.4
		C470,286.5,462.4,284.3,454.7,282.3z"></path>
	<path class="st0" d="M311,269.6c0.3-5,0.6-10,0.9-15l-0.1,0c-0.7,5-1.4,10-2,15c-8.3,0.2-16.6,0.5-24.9,1c0-1.7-0.1-3.4-0.1-5.1
		c-0.2-3.7,6.3-45.8,10.7-55.5c0.4-1,0.9-2.1,1.3-3.1c14,0.7,28.1,1.9,42.1,3.6c0,20-0.2,39.8-0.5,59.4
		C329.3,269.5,320.1,269.4,311,269.6z"></path>
	<path class="st0" d="M362,270.9c0.7-4.1,1.4-8.3,2.1-12.4l-0.1,0c-1.1,4.1-2.2,8.2-3.2,12.3c-8.3-0.5-16.6-0.9-24.9-1.1
		c0.1-1.5,0.2-3,0.3-4.6c0.1-3.6,10.2-37.8,15.3-45.5c0.5-0.9,1.1-1.7,1.6-2.6c13.8,1.9,27.6,4.2,41.4,7c-1.6,16.6-3.2,33.1-5,49.4
		C380.3,272.4,371.2,271.5,362,270.9z"></path>
	<path class="st0" d="M178.3,278.9c-4.5-21.1-4.9-65.4-4.7-67.1c0-1.6,0-3.1,0-4.7c17.8-2.6,35.8-4.4,53.8-5.5
		c-1.5,8.6-3,17.3-4.3,26.2c-7.3,0.8-14.7,1.8-22,3c0,0.7,0,1.4,0,2.1c7-0.9,14.4-1.7,14.4-1.7c2.3-0.2,4.6-0.5,7-0.7
		c-0.4,7-0.7,14.1-1,21.2c-0.1,0-0.2,0-0.2,0c1,7.5,1.9,15,2.9,22.4c-15,3.1-29.9,6.8-44.6,11.1C179.2,283.2,178.8,281,178.3,278.9z
		"></path>
	<path class="st1" d="M79.1,258.5c-3-3.4-30.5-57.5-30.7-57.6c-9.6,3.4-19.2,7-28.7,10.8C41,252.2,70.3,280,70.1,279.9
		c4.1,11.7,8.3,23.3,12.5,35c8-4.3,16.2-8.4,24.4-12.3c-2.8-10.6-5.6-21.1-8.3-31.6c5.2-26.8,12.1-52.4,20.7-76.5
		c-9.7,0.6-19.3,1.5-29,2.4C90,196.7,77.2,234.7,79.1,258.5z"></path>
	<path class="st1" d="M134.7,295.6c-0.1-0.3,31.2-11,32.7-10.5c1.4,0.2-0.9-14.9-0.9-14.9c0-0.1-20.2,5.9-21.7,5.9
		c-1.8-0.2-3.1-4.5-3.9-10.2c8.1-2.2,16.2-4.2,24.3-6c-0.1-5-0.2-9.9-0.3-14.9c-8.5,1.8-16.9,3.8-25.3,5.9
		c-0.3-8.2-0.1-15.2-0.1-15.2c9.2-2,18.5-3.7,27.8-5.2c-0.2-6.5-0.3-12.9-0.3-19.3c-14.8,2.4-29.4,5.3-44,8.7
		C120.1,248.2,134,292.9,134.7,295.6z"></path>
	<path class="st1" d="M280.5,264.3c-0.1-4.4-2.6-54.3-2.7-54.4c-12.3-0.6-24.7-0.9-37-0.8c-3.7,7.3-10.3,50.2-10.1,61.3
		c5.6-0.9,11.2-1.8,16.8-2.6c0.6-5.9,1.2-11.8,1.8-17.6c5.2-0.4,10.4-0.7,15.6-0.9c0,5.2,0,10.3-0.1,15.5
		C270.1,264.6,275.3,264.5,280.5,264.3z M251.2,237.5c1.2-3.3,1.4-14,1.4-14c3.9-0.2,7.9-0.4,11.9-0.5c0.3,4.7,0.5,9.4,0.8,14.1
		C260.5,237.2,255.9,237.3,251.2,237.5z"></path>
	<path class="st1" d="M466.4,271.8c3.9,1.2,7.7,2.5,11.6,3.7c0,0,6.2-8.3,15.9-18.2c-5.2-2.3-10.5-4.6-15.7-6.8
		C470.7,260.9,466.4,271.8,466.4,271.8z"></path>
	<path class="st1" d="M433.2,262.3c-1.7,3.7-3.3,7.6-4.6,11.6c5.9,1.2,11.8,2.6,17.7,4c8-19.3,16.7-32,16.7-32
		c-5.9-1.9-11.8-3.8-17.7-5.5c0,0-4.2,6.1-8.7,15c-5.3-1.2-12.2-2.7-18-3.9c4.1-10.7,7.3-17.1,7.3-17.1c-5.3-1.4-10.5-2.6-15.8-3.9
		c0-0.1-9.1,18.5-13.9,38.1c5.2,0.8,10.4,1.7,15.6,2.7c1.4-4.5,2.8-8.7,4.1-12.5C421.7,259.8,427.5,261,433.2,262.3z"></path>
	<path class="st1" d="M477.1,278.4c-4.2-1.4-8.4-2.7-12.6-4c-1,2.1-2,4.2-3,6.3c4.2,1.2,8.3,2.4,12.5,3.7
		C475,282.4,476,280.4,477.1,278.4z"></path>
	<path class="st1" d="M306.9,250.1c3.6-0.3,7.3-0.5,10.9-0.8c-0.4,5.1-0.7,10.3-1.1,15.4c5.5,0,11,0.1,16.4,0.3
		c0.1-16.8,0-33.6-0.1-50.7c-10.6-1.1-21.3-1.9-31.9-2.4c-4.3,9.3-11.1,50.2-10.9,53.2c4.9-0.2,9.9-0.3,14.8-0.4
		C305.6,259.9,306.2,255,306.9,250.1z M310.4,228c2.5,0,5,0,7.5,0c0,3.7,0,7.5,0,11.2c-3-0.2-5.9-0.3-8.9-0.5
		C309.5,235.1,310,231.6,310.4,228z"></path>
	<path class="st1" d="M341.6,265.3c5,0.2,9.9,0.5,14.9,0.8c1-4,2-8.1,3-12.1c3.6,0.1,7.3,0.2,11,0.3c-0.8,4.2-1.5,8.4-2.3,12.7
		c5.5,0.5,11,1,16.4,1.7c1.3-13.8,2.6-27.7,3.8-41.8c-10.5-1.9-21-3.6-31.5-5C351.8,229.3,341.7,262.8,341.6,265.3z M364.8,236.1
		c2.5,0.2,5,0.5,7.5,0.7c-0.3,3.1-0.6,6.2-0.9,9.3c-2.9-0.4-5.9-0.8-8.8-1.2C363.3,242,364.1,239,364.8,236.1z"></path>
	<path class="st1" d="M218,222.5c0.7-5,1.5-9.9,2.2-14.8c-13.6,1.1-27.1,2.6-40.6,4.6c-0.2-0.2-0.4,44.8,3.9,65.3
		c11.4-3.1,22.9-5.9,34.6-8.2c-0.6-4.2-1.1-8.3-1.7-12.5c-6.9,1.3-13.8,2.7-20.7,4.3c-0.1-3.7-0.1-7.3-0.2-11
		c7.6-1.5,20.5-3.6,20.5-3.6c0.1-3.3,0.2-6.5,0.4-9.8c0,0-13.2,1.6-21,2.8c0-4.7-0.1-9.4-0.1-14.1
		C202.9,224.4,210.5,223.4,218,222.5z"></path>
</g>
</svg>
