<!--?xml version="1.0" encoding="utf-8"?-->
<!-- Generator: Adobe Illustrator 22.1.0, SVG Export Plug-In . SVG Version: 6.00 Build 0)  -->
<svg version="1.1" id="_x35_" xmlns="http://www.w3.org/2000/svg" xmlns:xlink="http://www.w3.org/1999/xlink" x="0px" y="0px" viewBox="0 0 512 512" style="enable-background:new 0 0 512 512;" xml:space="preserve">
<style type="text/css">
	.st0{fill:#000000;}
	.st1{fill:#FFFFFF;}
</style>
<g>
	<path class="st0" d="M101.877,350.893c-2.3-0.001-4.629-0.313-6.923-0.928c-16.207-4.349-25.81-21.234-28.542-50.185
		c-1-10.591-0.907-20.8-0.635-27.693c-28.649-16.33-52.21-47.515-55.216-74.34c-1.632-14.572,3.004-26.828,13.055-34.512
		c5.292-4.045,11.525-6.183,18.028-6.183c23.845,0,46.653,28.511,60.189,52.8c21.698-35.284,43.494-53.136,64.956-53.136
		c7.007,0,13.613,1.931,19.636,5.74c10.146,6.416,14.155,20.244,10.997,37.94c-4.985,27.94-25.714,59.54-56.986,72.261
		c2.414,17.71-2.135,41.976-10.098,57.287c-9.005,17.314-20.444,20.951-28.456,20.951
		C101.88,350.893,101.878,350.893,101.877,350.893z"></path>
	<path class="st0" d="M240.352,355.285c-29.725,0-52.288-13.047-57.482-33.236c-5.466-21.245-6.968-49.832-3.652-69.518
		c4.692-27.859,19.817-44.305,44.956-48.881c6.414-1.168,21.424-3.9,35.844-3.9c31.456,0,40.407,13.332,42.376,24.516
		c1.177,6.688-0.222,13.038-4.048,18.364c-4.287,5.97-11.083,9.789-18.767,12.416c1.15,0.49,2.245,1.061,3.285,1.713
		c9.443,5.92,14.023,17.62,11.397,29.116c-1.015,4.441-2.977,8.35-5.682,11.544c8.548,4.058,10.829,11.905,11.394,14.871
		c2.197,11.516-1.249,21.399-9.965,28.58c-5.709,4.704-13.643,8.21-25.725,11.37C256.56,354.26,248.508,355.285,240.352,355.285z"></path>
	<path class="st0" d="M354.968,349.553c-12.804,0-25.783-3.358-37.535-9.708c-15.193-8.211-18.046-21.264-15.649-30.741
		c3.073-12.152,14.44-20.972,27.027-20.972c4.125,0,8.105,0.947,11.827,2.814c1.747,0.876,3.493,1.32,5.193,1.32
		c3.584,0,5.693-1.912,6.138-2.934c-1.276-1.805-5.946-5.09-9.108-7.313c-8.692-6.114-19.508-13.723-24.832-26.97
		c-5.619-13.983-3.854-29.383,4.843-42.249c9.683-14.327,26.536-22.881,45.082-22.881c3.57,0,7.228,0.312,10.873,0.925
		c29.305,4.935,38.415,22.092,37.312,35.284c-1.082,12.943-11.315,22.705-23.802,22.705c-3.059,0-6.104-0.597-9.049-1.773
		c-3.323-1.327-5.334-1.672-6.395-1.738c-0.119,0.385-0.254,0.928-0.369,1.663c1.35,0.982,3.654,2.403,5.748,3.694
		c3.944,2.432,9.346,5.763,15.831,10.478c10.607,7.714,16.75,18.005,17.765,29.764c1.189,13.772-4.94,28.355-17.258,41.061
		C387.623,343.312,372.125,349.553,354.968,349.553z"></path>
	<path class="st0" d="M457.033,354.915c-1.975,0-4.005-0.191-6.033-0.57c-14.181-2.641-24.091-15.496-23.566-30.566
		c0.57-16.358,12.814-27.783,29.774-27.783c0.353,0,0.712,0.005,1.074,0.015c8.303,0.229,15.656,3.504,20.705,9.225
		c5.185,5.874,7.691,14.055,6.876,22.444C484.327,343.46,472.202,354.915,457.033,354.915
		C457.033,354.915,457.034,354.915,457.033,354.915z"></path>
	<path class="st0" d="M462.278,304.637c-12.283-0.002-21.764-10.951-23.505-21.096c-1.935-11.276-1.177-55.946,6.089-80.766
		c4.477-15.292,15.967-25.172,29.274-25.172c13.289,0,27.037,10.475,27.599,30.495c0.472,16.857-5.759,42.221-7.681,49.594
		c-5.67,21.756-11.388,35.479-16.996,40.788c-4.256,4.028-9.366,6.158-14.777,6.158
		C462.279,304.637,462.279,304.637,462.278,304.637z"></path>
	<path class="st1" d="M78.942,264.594c0,0-6.146,66.281,19.302,73.11c25.448,6.828,36.51-59.088,26.449-73.428
		c51.486-11.017,72.654-79.892,54.946-91.091s-45.75,0.319-78.937,64.597c-9.058-27.86-45.796-82.488-69.376-64.461
		C7.745,191.347,37.107,245.429,78.942,264.594z"></path>
	<path class="st1" d="M235.656,251.35c11.326-4.86,57.967-3.684,54.235-24.883s-50.328-12.716-63.443-10.328
		c-23.885,4.348-31.839,21.441-34.712,38.5c-2.873,17.059-1.792,43.955,3.428,64.246c5.22,20.292,38.097,28.346,65.908,21.073
		c17.605-4.604,29.222-10.662,26.432-25.291c-2.939-15.409-35.28-0.955-46.932,0.022c-11.651,0.976-12.918-9.477-7.871-14.594
		c5.046-5.116,22.687-4.639,37.024-6.232c14.338-1.593,16.303-20.14,6.396-26.35c-9.907-6.21-30.164,4.092-40.327,4.161
		C225.632,271.746,224.33,256.211,235.656,251.35z"></path>
	<path class="st1" d="M334.947,302.292c-14.698-7.373-32.781,14.871-11.478,26.384c21.302,11.513,49.105,11.921,66.025-5.533
		c16.92-17.453,19.467-38.396,1.141-51.723c-20.183-14.678-28.198-14.455-26.779-25.525c1.419-11.07,7.954-17.093,24.141-10.627
		c16.186,6.466,28.994-25.126-11.278-31.908c-34.117-5.745-56.659,22.694-46.91,46.953c7.906,19.675,35.221,24.551,34.941,38.921
		C364.529,300.596,349.644,309.665,334.947,302.292z"></path>
	<path class="st1" d="M473.226,326.452c0.831-8.545-3.901-17.437-15.294-17.75c-11.914-0.327-17.529,7.407-17.811,15.52
		c-0.273,7.827,4.417,16.008,13.202,17.643C465.286,344.092,472.35,335.464,473.226,326.452z"></path>
	<path class="st1" d="M451.285,281.394c1.063,6.194,9.45,15.055,17.045,7.866c7.595-7.189,21.336-58.596,20.714-80.806
		c-0.623-22.21-25.196-25.351-31.999-2.112C450.242,229.581,449.782,272.634,451.285,281.394z"></path>
</g>
</svg>
