<!--?xml version="1.0" encoding="utf-8"?-->
<!-- Generator: Adobe Illustrator 22.1.0, SVG Export Plug-In . SVG Version: 6.00 Build 0)  -->
<svg version="1.1" id="_x35_" xmlns="http://www.w3.org/2000/svg" xmlns:xlink="http://www.w3.org/1999/xlink" x="0px" y="0px" viewBox="0 0 512 512" style="enable-background:new 0 0 512 512;" xml:space="preserve">
<style type="text/css">
	.st0{fill:#000000;}
	.st1{fill:#FFFFFF;}
</style>
<g>
	<path class="st0" d="M60.5,457.1c-5.7,0-11.1-2.5-14.9-6.8c-1.9-2.2-3.2-4.7-4.1-7.2c-3.4-1.2-6.3-3.2-8.7-5.9
		c-6.5-7.3-5.5-15.7-5.1-19.3c0.1-0.7,0.2-1.4,0.2-1.7c0-12.2,6-18.1,9.3-21.3c-0.5-12.8,8.6-21,15.9-26
		c16.2-38.1,46.4-78.6,74.5-111.3c-3.6,2.4-6.9,4.6-9.7,6.5l-7.1,9.9l-8.4,1.1c-2,5.6-7.1,12.2-23.5,19.9l-13.5,6.3l-3-3.8
		c-2.7,1.7-6.7,3.5-11.5,3.5c0,0,0,0,0,0c-5.1,0-13.8-2.6-17.8-11.4l-4.6-0.7l-2.4-2.1l-12.1-9.5L10.2,253c0.4-1.6,2.2-9.7,5.4-16.4
		c-3-6.1-3.1-13.1,0-19.2c1.5-2.9,3.5-5.3,5.8-7.2c0.7-5.2,2.5-11.5,6.8-18.2c2.7-4.2,9.1-14.1,21.2-14.1c6.7,0,11.4,3,14.6,6.1
		c2.5-2.8,7.9-8.1,16.4-8.1c0.9,0,2,0.1,3.4,0.3c3.9-2.6,9.2-5.2,15.8-5.2c5.5,0,10.7,1.8,15,5.3c0.4,0.4,0.9,0.7,1.3,1.1
		C150,160,246.5,122,260.4,119.7c1.7-0.3,3-0.5,4.1-0.7c0.7-0.1,1.2-0.2,1.7-0.3c0.7-0.3,1.6-0.7,2.8-1.2c1.3-0.6,1.7-0.8,1.7-0.8
		c0.3-0.2,1.5-1.3,2.5-2.2c1.2-1.1,2.6-2.4,4.5-4c6.4-5.6,12.7-6.8,16.9-6.8c13.8,0,20.8,11.1,25,17.7c1.2,2,2.4,3.8,3.5,5.2
		c0.6,0.7,1,1.2,1.2,1.5l18.4,13.8l-15,12.6c-1.2,2-2.5,3.8-4.1,5.3c-0.9,5.7-4.7,14.7-18.7,21c-3.2,1.4-5.1,2.1-6.5,2.5
		c-1.7,0.6-2.5,4.5-18,8.9c-24,6.8-78,54.5-81.7,64.8c-0.9,2.6-3.4,3.8-4.7,5.3l0.3,1.5l-1.1,11.2c0,1.1-0.1,7.2,2.6,13
		c4.2,9.2,6.5,18.9,7.6,24.6c2.3,2.1,4,4.8,5.1,7.8c0.9,2.4,1.2,4.7,1.3,6.8l0.5,1.4c0.9,2.8,2.6,10.2-1.2,19.9
		c-1.2,3.1-3.1,5.7-5.5,7.8l-10.8-4l-7,7.4c-1.4,0.3-13.5,3.6-15.2,3.6c-6.5,0-18-2.8-21.8-21.6c-0.5-2.6-1.4-7.7-2.6-14.2
		c-0.4-2.5-1-5.5-1.6-8.8c-14.9,15.5-30.7,42.7-39.8,65.7l-0.5,2.7l0.6,1.8l2.8,13.8l-5,6.6c0.2,1.3,0.3,2.8,0.3,4.2
		c0,3.8,0,14.1-20,28.3l-2.2,1.6c-0.9,1.6-2,3.3-3.4,5.1C71.2,456,64.2,457.1,60.5,457.1z"></path>
	<path class="st0" d="M312.7,143l-0.3,0v-0.1v-19.3c10.7,0,19.4,8.7,19.4,19.3l0,19l-19.1,0.1L312.7,143L312.7,143z"></path>
	<path class="st0" d="M324.6,157.4c-10.5,0-19.2-7-21.2-17c-0.4-2.1-0.8-3.5-1.1-4.4c-5.9-7.8-4.2-15.9-0.5-33.3
		c2.2-10.4,7.2-34.6,25.8-35.7l4.3-0.4c2.3-3.5,5.7-7.6,10.2-11c5.5-8.7,12.8-10.5,18-10.5c5.4,0,9.6,2,12.6,3.7
		c0.8,0.5,1.5,0.8,2,1.1c6.8,3.7,15.4,10.4,12.4,25.6l-0.1,0.3c-1.4,7.2-5.9,11.8-8.9,14.8c-0.7,0.7-1.6,1.6-2.1,2.3
		c-0.1,0.9-0.2,1.8-0.3,2.6c1.2,3.4,1.2,6.4,1.1,8.4c-0.7,9.9-7.8,15.6-10.5,17.6c-2.6,2.3-9.7,11-11.5,15.1
		C349.5,148.5,336.5,157.4,324.6,157.4z"></path>
	<path class="st0" d="M331.6,189.7c-9.2,0-17.2-5.2-20.4-13.2l-3.4-8.4l4.8-8.7c-0.4-6.5,1.7-13.4,6.3-19.5
		c2.2-4.1,8.1-14.4,13.8-21.7c1.5-2,2.9-3.9,4.2-5.8c3.3-4.8,7-10.2,13-14.1c4.9-8.8,11.8-13.3,20.3-13.3c1.8,0,3.6,0.2,5.3,0.7
		l4.7-3.6l6.4,0h12.9l9.4,24.1l-8.8,8.1c-0.1,0.2-0.3,0.6-0.5,1.1c-3.1,7.7-8,15-10.8,19c-1.4,4.3-4.1,12.3-7.3,20
		c-3.9,9.3-6.7,13.5-12.3,17.9c-0.6,0.5-0.9,0.7-1.2,1.1c-5.3,5.3-10,6.8-13.9,7.6c-0.4,0.2-1.3,0.7-2.8,1.7
		C344.1,187.4,337.9,189.7,331.6,189.7z"></path>
	<path class="st0" d="M226.8,434.8c-5.6,0-9.4-2.2-12.5-4.6c-7.2-1.7-12.8-7.4-14.5-15.1c-0.3-1.3-0.4-2.5-0.7-4.3
		c0-0.2,0-0.3-0.1-0.5c-5-6.6-3.8-13.6-3.3-17c0.5-3,0.6-5.1,0.6-5.6l0-2.5l0.7-2.2c1-4,26-97.8,61.4-155.4c0.4-0.8,1.2-3,1.4-4
		l0.5-1.7l4.4-8.8l3.6-6.5c2.9-7.7,9.9-17,22.2-21.4c1.9-0.7,3.4-1.3,4.6-1.8c2.8-1.2,6.3-2.7,11-2.7c3.6,0,11.5,1,17.1,9.4
		c6.5,1.9,11.5,6.8,13.5,13.2c3,9.6-2,16.8-4.8,20.2c-1.2,3.3-3,6-4.8,8.2c-1,2.1-2.3,4.4-4,6.9l-4.1,6.2l-15.1,17.3l-1.7-0.6
		c-0.6,1-1.3,2.3-2.1,3.7c-7.7,14.6-14.8,28.1-17.2,32.8c-1.3,4.4-4.8,15.1-9.8,26.4c-5.2,11.7-19.2,63.8-19.9,74.3
		c-0.6,9.1-1.5,21.8-11.2,28.7c0,0-5.7,7.6-5.7,7.6L226.8,434.8z"></path>
	<path class="st0" d="M338.9,270c-6.6,0-11.6-2.6-15-5.2c-3.7-1.7-9.1-4.9-11.8-12.1c-3.6-9.3,0.6-17.8,2.4-21.4
		c3-6,4.5-9.7,4.5-9.8l0.7-1.8l1.1-1.6c1.3-2,8.2-12.2,13.5-17.5c2.7-2.7,9.8-9.8,20.6-9.8c0.8,0,1.5,0,2.3,0.1
		c1.1-0.2,2.2-0.3,3.4-0.3c6.4,0,15,3.6,18.3,13.7c0.2,0.5,0.4,1.4,0.8,2.8c1.1,3.9,1.7,7,2.1,9.3c1.7,5.8,1.2,13-3.2,20.3
		c-2.4,4.1-5.1,6.5-7.5,8.2c-0.1,0.2-0.3,0.5-0.4,0.8c-6.1,12.1-12.3,16.5-18.6,20.3l-0.6,0.4C347.6,268.8,343.3,270,338.9,270
		C338.9,270,338.9,270,338.9,270z"></path>
	<path class="st0" d="M372.3,274.9c-8.9,0-16.8-5.6-21.7-15.4l-1.1-2.3l-0.5-2.5c-0.7-3.5-2.1-10.7,8.5-32l1.6-3.1l2.5-2.4
		c14.1-13,20-15.3,26.6-15.3c3.1,0,6.3,0.7,9.3,2.2l2-0.3l3.8,4.8c0.6,0.6,1.1,1.3,1.6,2l7.9,14.4l-1.3,13c-0.8,1.4-5,8.5-9.9,13.5
		l-0.8,0.8l-5.5,5.7h0c-1.6,1.9-2.5,3.2-3.4,4.6c-1.2,1.7-2.6,3.9-4.9,6.2C383,272.7,377.8,274.9,372.3,274.9z"></path>
	<polygon class="st0" points="374.9,224.6 380.6,218.9 388.7,219.1 401.3,219.3 410.6,242.7 401.6,251.6 	"></polygon>
	<path class="st0" d="M385.7,379.8c-7,0-12.8-3.1-16.8-7c-0.4-0.2-0.8-0.4-1.1-0.7c-6.7-3.8-13.5-7.8-17.1-20.2
		c-0.3-1.1-1.2-3-2-4.7c-2.1-4.5-4.7-10.1-4.7-16.8c0-8,3.7-14.4,8.9-18.6c3.2-12.4,12.8-16.9,20.4-16.9c3.2,0,6.4,0.7,9.3,2.2
		c0.2,0.1,0.6,0.3,0.6,0.3c8.8,0,16.6,5,20.8,13.3c1.2,2.3,2.5,4.9,3,8.7c0.2,0.7,0.8,2.4,2.1,6.1c1.5,4.1,3,6.9,4.1,9.2
		c2.2,4.4,6.8,13.5,0.8,23.2c-1,1.7-2.7,3.9-5.4,5.7c-2,5.4-5.7,9-8,10.9C396.2,378,391,379.8,385.7,379.8
		C385.7,379.8,385.7,379.8,385.7,379.8z"></path>
	<path class="st0" d="M371.9,466.9c-18.3,0-24.1-13.5-26.2-18.6l-0.1-0.3c-4.1-9.6-1.8-19.5,2.4-26.8c1-10.2,6.1-14.6,11.6-18.6
		l1-0.7c1.4-1,4.2-5,5.6-7.4l1-1.9l1.4-1.6c13.3-15,57.7-64.5,67.5-72.6c9.4-7.7,13.7-11.2,13.9-11.3l1.9-1.5l6.6-2.9
		c3.4-3,8.6-6.1,15.5-6.1c4.4,0,8.6,1.3,12.3,3.7c5.5,1.3,9.7,4.3,12.6,8.9c2.4,3.8,4.6,10.1,1.7,18.7L497,338l-4,3.4
		c-0.3,0.2-6.3,5.4-10.8,9c-2.9,2.3-6.2,5-7.9,6.5c-27.1,27-51.8,61.9-57.4,70.6c-1.8,7.1-4.4,14.8-12.5,20.2
		c-0.1,0.1-0.2,0.1-0.3,0.2c-0.2,0.9-0.5,1.8-0.8,2.7c-3.3,8.5-11,13.7-22.9,15.6C377.1,466.6,374.3,466.9,371.9,466.9
		C371.9,466.9,371.9,466.9,371.9,466.9z"></path>
	<path class="st0" d="M308.7,442.4c-11.8,0-23.8-8.9-23.8-25.8l0-0.4c1.1-48.2,13.3-123.1,17.9-140.5c4.3-16.2,8.9-25,15.4-29.2
		l11.5-7.7l11,8.8h15.9l4.8,11.9c3.2,8.1,1.9,20.2-4,37.1c-3.9,11-10.4,63.1-14,97.6l1.5,19.5L333.3,429l-5.3,5.3
		C323,439.3,315.7,442.4,308.7,442.4C308.7,442.4,308.7,442.4,308.7,442.4z"></path>
	<path class="st1" d="M49.4,276c0.9,3.4-0.9,8.6,4.3,4.3c5.2-4.3,5.2-5.2,9.5-6c4.3-0.9,7.7,3.4,7.7,3.4s12.9-6,13.8-9.5
		c0.9-3.4,2.6-10.3,2.6-10.3l12.9-1.7l4.3-6c0,0,79.1-53.3,104.9-64.5c25.8-11.2,18.9-3.4,18.9-3.4c-5.2,6.9-24.1,22.4-24.1,22.4
		S99.3,301.8,68.3,381.8c-10.3,6-12.9,9.5-12,13.8c0.9,4.3,1.7,4.3-2.6,9.5c-4.3,5.2-6.9,5.2-6.9,11.2c0,6-2.6,9.5,4.3,9.5
		c6.9,0,9.5-3.4,8.6,2.6c-0.9,6-0.9,12.9,2.6,8.6c3.4-4.3,1.7-5.2,3.4-7.7c1.7-2.6,3.4-3.4,6-2.6c0,0,12-8.6,12-12.9
		c0-4.3-1.7-7.7-1.7-7.7l2.6-4.3l2.6-3.4l-0.9-4.3l-1.7-5.2l1.7-10.3c0,0,38.7-75.7,63.6-93.7c1.7-5.2,3.4-12.9,6-4.3
		s9.5,49,11.2,57.6s3.4,6.9,6.9,4.3l12,4.3c0.8-3.8,0-7.2-1.1-10c-1.2-2.9-2.7-5-3.2-6.3c-0.9-2.6,7.7,15.5,9.5,11.2
		c1.7-4.3,0.9-6.9,0.9-6.9l-2.6-3.4c0,0,2.6-4.3,0-5.2c-2.6-0.9-4.3-6-4.3-6s-1.7-12.9-6.9-24.1c-5.2-11.2-4.3-22.4-4.3-22.4
		l0.9-8.6l-1.7-7.7c0,0,3.4-4.3,11.2-12.9c7.7-8.6,64.5-56.7,86.8-68.8c22.4-12,18.1-8.6,25.8-12c7.7-3.4,7.7-6.9,7.7-6.9
		s-0.9-1.7,0-5.2c0.9-3.4,3.4-4.3,3.4-4.3s2.6,0,3.4-3.4c0.1-0.5,0.3-0.8,0.5-0.9c-0.7-0.5-1.9-1.7-3.9-4.2
		c-6.9-8.6-10.3-20.6-18.1-13.8c-7.7,6.9-7.7,7.7-13.8,10.3c-6,2.6-2.6,1.7-12.9,3.4c-10.3,1.7-116.9,43-144.5,58.5
		c-16.3,4.3-12-2.6-16.3-6c-4.3-3.4-9.5,1.7-12.9,4.3c-3.4,2.6-6,3.4-6,3.4c-3.4-1.7-1.7-6.9-6-1.7c-4.3,5.2-8.6,6-8.6,6L58,205.5
		c-7.7-4.3-6-15.5-13.8-3.4c-7.7,12-1.7,20.6-5.2,20.6s-8.6,2.6-6,6c2.6,3.4,4.3,7.7,4.3,7.7l-3.4,4.3c0,0,1.7-1.7-0.9,3.4
		s-4.3,12.9-4.3,12.9s1.7-1.7,1.7,3.4s-6,0,0,5.2c6,5.2,6,5.2,6,5.2S48.5,272.6,49.4,276z"></path>
	<path class="st1" d="M312.1,142.7C313.4,143.6,312.7,142.1,312.1,142.7L312.1,142.7z"></path>
	<path class="st1" d="M328.8,86c0,0-4.3,0-8.6,20.6c-4.3,20.6-2.6,18.1-2.6,18.1s2.5,3,4.3,12c0.9,4.3,12,0,15.5-7.7
		c3.4-7.7,13.8-19.8,17.2-22.4c3.4-2.6,4.3-4.3,1.7-6.9c-2.6-2.6,0,0,0.9-9.5c0.9-9.5,10.3-13.8,11.2-18.1c0.9-4.3,0.9-3.4-5.2-6.9
		c-6-3.4-3.4,0.9-9.5,5.2s-8.6,11.2-8.6,11.2l-7.7,3.4L328.8,86z"></path>
	<path class="st1" d="M361.5,113.5c-5.2,2.6-7.7,8.6-13.8,16.3c-6,7.7-12.9,20.6-12.9,20.6s-6,6.9-1.7,11.2l-4.3,7.7
		c0,0,1.7,4.3,12-2.6c10.3-6.9,9.5-2.6,13.8-6.9c4.3-4.3,5.2-2.6,9.5-12.9c4.3-10.3,7.7-21.5,7.7-21.5s6.9-8.6,10.3-17.2
		c3.4-8.6,7.7-8.6,0.9-5.2c-6.9,3.4-12,0.9-12,0.9C366.7,103,366.7,110.9,361.5,113.5z"></path>
	<path class="st1" d="M228.2,412.7c4.3-0.9,5.2-2.6,6-15.5c0.9-12.9,15.5-67.5,21.5-80.8c6-13.2,9.5-25.8,9.5-25.8
		s8.6-16.3,18.1-34.4c9.5-18.1,14.6-16.3,14.6-16.3l6-6.9c0,0,0,0,3.4-5.2c3.4-5.2,3.4-6.9,3.4-6.9s3.4-2.6,3.4-5.2s6.9-6.9,3.4-7.7
		c-3.4-0.9,0-5.2,0-5.2l-5.2,3.4c0,0-2.6,0-4.3-4.3c-1.7-4.3-1.7-2.6-11.2,0.9c-9.5,3.4-11.2,11.2-11.2,11.2l-4.3,7.7l-3.4,6.9
		c0,0-1.6,5.6-3.4,8.6c-34.4,55.9-59.3,150.5-59.3,150.5s0,3.4-0.9,8.6c-0.9,5.2,0,0,2.6,5.2c2.6,5.2,0,0,0.9,6.9c0.9,6.9,0,0,6,5.2
		C230,418.7,223.9,413.6,228.2,412.7z"></path>
	<path class="st1" d="M361.5,212.4c-1.7-6,0,0-3.4-1.7c-3.4-1.7-6-0.9-10.3,3.4c-4.3,4.3-11.2,14.6-11.2,14.6s-1.7,4.3-5.2,11.2
		c-3.4,6.9-1.7,6.9,2.6,8.6c0,0,3.4,4.3,7.7,1.7c4.3-2.6,7.7-4.3,12-12.9c4.3-8.6,6-6,8.6-10.3c2.6-4.3,0.9-6,0.9-6
		S363.2,218.4,361.5,212.4z"></path>
	<path class="st1" d="M391.6,224.4c-2.7,0.4-0.9-3.4-3.4-3.4s-13.8,10.3-13.8,10.3s-7.7,15.5-6.9,19.8c0,0,3.4,6.9,6,4.3
		c2.6-2.6,3.4-6,11.2-13.8c1.2-1.2,2-2,2.5-2.5c0,0,0,0,0,0c0,0,0,0,0,0c0,0,0,0,0,0c0,0,0,0,0.1-0.1c0,0,0,0,0,0
		c0,0,0.1-0.1,0.1-0.1c0,0-0.1,0.1-0.1,0.1c0.1-0.1,0.2-0.2,0.2-0.2c0.1-0.1,0.1-0.1,0.2-0.2c0.1-0.1,0.1-0.1,0.2-0.2c0,0,0,0,0,0
		c0.1-0.1,0.1-0.1,0.2-0.2c3.4-3.4,6.9-9.5,6.9-9.5L391.6,224.4z"></path>
	<path class="st1" d="M388.3,238.1C388.3,238,388.3,238,388.3,238.1L388.3,238.1z"></path>
	<path class="st1" d="M362.9,330.4c0,4.3,4.3,10.3,6,16.3c1.7,6,3.4,6,12,11.2c0,0,3.4,5.2,7.7,1.7c4.3-3.4,0.9-5.2,0.9-8.6
		s0.9-2.6,6-2.6c5.2,0,0.9-2.6-4.3-16.3s-1.7-7.7-4.3-12.9c-2.6-5.2-6.9-1.7-6.9-1.7s-2.6-1.7-6-3.4c-3.4-1.7-3.4,6.9-3.4,6.9
		l-3.4,4.3C367.2,325.3,362.9,326.1,362.9,330.4z"></path>
	<path class="st1" d="M393.8,431.9c2.6-1.7,3.4-4.3,5.2-11.2c1.7-6.9,61.9-77.4,61.9-77.4s5.2-4.3,9.5-7.7
		c4.3-3.4,10.3-8.6,10.3-8.6s0,0,1.7-5.2c1.7-5.2-2.6-1.7-6-5.2s-6.9,1.7-6.9,1.7l-7.7,3.4c0,0-4.3,3.4-13.8,11.2
		c-9.5,7.7-65.3,70.5-65.3,70.5s-5.2,9.5-11.2,13.8c-6,4.3-4.3,2.6-5.2,10.3c0,0-6,6.9-3.4,12.9s3.4,8.6,14.6,6.9
		c11.2-1.7,7.7-6,7.7-6l3.4-5.2C388.7,436.2,391.3,433.6,393.8,431.9z"></path>
	<path class="st1" d="M343.8,266.5H334l-5.4-4.3c0,0-3.2,2.2-7.6,18.4c-3.9,14.6-16.2,88.5-17.3,136c0,9.7,8,7.1,10.8,4.3
		c4.3-4.3,4.3-4.3,4.3-4.3l6.5-8.6l-1.1-14c0,0,8.6-85.3,15.1-103.6C345.9,271.9,343.8,266.5,343.8,266.5z"></path>
</g>
</svg>
