<!--?xml version="1.0" encoding="utf-8"?-->
<!-- Generator: Adobe Illustrator 22.1.0, SVG Export Plug-In . SVG Version: 6.00 Build 0)  -->
<svg version="1.1" id="_x35_" xmlns="http://www.w3.org/2000/svg" xmlns:xlink="http://www.w3.org/1999/xlink" x="0px" y="0px" viewBox="0 0 512 512" style="enable-background:new 0 0 512 512;" xml:space="preserve">
<style type="text/css">
	.st0{fill:#000000;}
	.st1{fill:#FFFFFF;}
</style>
<g>
	<path class="st0" d="M64.4,354c-3.8,0-6.9-1.7-9.1-3.8l-7-1.9H30.9v-8.7c0-3.8,2.1-9.1,6.4-15.7c0-0.3,0-0.6,0.1-0.9
		c1-7.1,8.3-11.2,10.7-12.5c5.4-3,8.3-5.1,9.3-6c4.6-6.8,32.6-48.3,47-69.9c-3.8,1.4-8.5,3.2-14.6,5.8c-19.2,8.1-54.1,14-55.6,14.2
		l-0.7,0.1h-0.7c-7.8,0-13.4-1.9-17.1-5.7c-4.6-4.9-4.3-10.8-4.2-14c0-0.3,0-0.7,0-1c0-0.2-0.1-0.3-0.1-0.5c-0.9-3.2-2.6-9.3,0.9-15
		c2.4-3.8,6.4-6.4,11.9-7.5c8.6-1.7,22-3.4,25.9-3.9c9.3-3.6,57.5-21.8,74.4-21.8c1.1,0,2.1,0.1,3.1,0.2c4.7,0.7,9.9,1.8,12.7,6.3
		c2.4,3.9,1.3,7.8,0.7,9.6c10,11.7,5.4,21.9,4.9,23l-0.1,0.2l-0.1,0.2c0,0-10.3,18.2-22.3,39.4c3,1.9,6.2,3.6,9.2,5.3
		c6.3,3.5,12.2,6.7,16.6,11.1c6,6,6.6,11.4,6.2,15c-0.3,2.6-1.4,4.8-2.7,6.6c-0.3,3.1-1.3,6.8-3.9,9.7c-2.2,2.4-5.3,3.8-8.6,3.8
		c-2.9,0-5.8-1-8.8-3c-8-5.3-16.2-9-16.3-9l-1.2-0.6l-1-0.9c0,0-3.3-2.9-7.8-5.5c-6.2,11-10.9,19.2-13.9,24.7
		c-6.7,11.9-8.6,15.9-9.5,17.9c-1.4,2.9-1.7,3.4-4.8,7.5C72.4,352.7,67.6,354,64.4,354z"></path>
	<path class="st0" d="M136.4,207.9l0.9-4.6c0.4-2.2,4.4-21.3,9.9-30.2l0.8-1.2l1.1-0.9c2-1.7,12.5-10,20.7-12.4
		c1.3-0.4,2.5-0.6,3.7-0.6c3.8,0,7.2,1.9,9,5.1c0.9,1.6,3.8,6.6-2.7,17.8c-1.8,3.6-4.4,9.8-4.9,12.9c-1.4,8.2-8.8,15.9-10.2,17.4
		l-0.2,0.2l-13.2,11.3L136.4,207.9z"></path>
	<path class="st0" d="M176.7,225.1c-7.8,0-13.2-6.7-13.2-16.2v-1.2l0.3-1.2c2.1-7.2,9.3-23.7,10.2-25.5l1.4-3.2L194,170l6.5,3.3
		c0.5-0.1,1-0.1,1.5-0.1c3.9,0,7.2,1.9,8.8,5.2c3,5.7-1,11.3-2.3,13.1c-3.5,4.9-4.9,7.1-7.3,11.2c-0.9,1.4-1.8,3-3.1,5
		c-1.3,2-1.7,3.1-2.1,4c-1.9,4.5-3.8,6.1-10.2,10.3C182.8,224.1,179.7,225.1,176.7,225.1C176.7,225.1,176.7,225.1,176.7,225.1z"></path>
	<path class="st0" d="M190.8,283.5l-1.5-0.6c-0.4,0-0.8,0-1.2,0c-11.2,0-15.9-5.7-17.8-9.2c-2.4-4.6-2.5-10-1.2-14.1
		c-0.2-1.2-0.1-2.2,0-3.1c0.9-4.8,4.9-7.1,7-8.3c5.4-3.1,9.1-4.1,11.3-4.3l5.8-0.8h0.6c2.2,0,21.6,0,30.9,1.7
		c3.3,0.6,10.8,0.6,13.4,0.6c0,0,0,0,0.1,0c3.4,0,7.1,0,10.7-0.1c3.6,0,10.9,1.4,14.4,1.4c4.6,0,8,0.1,10.8,0.3
		c1.5,0.1,3.6,0.1,6.1,0.1c8.4,0,20.4-0.5,31.1-1c9.1-0.4,13.3-2.2,18.1-2.2c6.1,0,13.5-0.7,19.9-1.3c5.9-0.6,10.9-1,14.9-1
		c9.3,0,12.7,5.6,13.7,8c2.4,5.9-0.1,12.2-3.5,15.6c-3.5,3.5-5.9,5.3-12.7,6.4c-1.9,0.3-4.3,0.5-7.4,0.5c-3.9,0-7.7-0.2-9.1-0.3
		l-50.9,2.4l-0.1-1.2c-1.3,0.1-2.9,0.2-5.1,0.4c-6,0.5-13.1,1-20.1,1.4c-12.5,0.8-29.6,2-33.1,2.8c-1.7,0.7-2.5,0.9-3.2,1.1
		c-0.2,0.1-0.9,0.4-2.6,1.1c-3.9,1.7-7.6,2-9.9,2.2c-0.4,0-0.8,0.1-1.1,0.1c-3.6,2.9-8.1,3.7-10.7,3.9l-12.7,3.8L190.8,283.5z"></path>
	<path class="st0" d="M419.7,266.2c-5,0-9-3-11.5-5.4c-5.4-2.5-8.9-7-9.7-12.9c-0.7-4.5,0.4-8.7,1.1-11.5c0.1-0.5,0.3-1,0.3-1.3
		c1.3-6.6,6.9-10.6,11.3-12.1l4.1-1.4l13.7,9.5c2.1,1.4,9.5,6.8,9.5,17.6c0,5.7-2.4,10.5-6.8,13.6c-3.1,2.2-6.6,3-8.6,3.4
		c-0.3,0.1-0.5,0.1-0.7,0.2C421.7,266.1,420.7,266.2,419.7,266.2C419.7,266.2,419.7,266.2,419.7,266.2z"></path>
	<path class="st0" d="M423.8,302.7c-2.3,0-4-0.2-4.3-0.2l-1.9-0.2l-1.6-1c-5.3-3.2-8.9-10.8-8.4-18.1c0.4-6.4,3.8-11.5,9.4-14
		c2.7-1.2,5.2-2.8,8.3-4.8c3.9-2.5,8.7-5.7,15.9-9.3c10.9-5.4,20.2-11.7,32-19.6c1.4-0.9,2.8-1.9,4.3-2.9c8.3-5.5,11.3-7.1,14.9-7.1
		c2.8,0,5.4,1.2,7.1,3.2c3,3.4,2.4,7.3,2.1,9.7c-0.1,0.8-0.2,1.6-0.2,2.3c0,5.4,0,17.9-11.1,21.1c-4.1,1.2-8.9,2.9-10.6,3.5
		c-2.5,1.4-12.5,7.4-20,14.3c-3.5,3.2-6,5.2-7.8,6.7c-3.1,2.5-3.7,3-5.5,6.2C442.6,299.2,434.8,302.7,423.8,302.7
		C423.8,302.7,423.8,302.7,423.8,302.7z"></path>
	<path class="st1" d="M32.8,246c0,0,35.1-5.8,53.6-13.6c18.5-7.8,40-15.6,33.2-4.9c-6.8,10.7-55.6,82.9-55.6,82.9s-2.9,2.9-11.7,7.8
		s-5.8,7.8-5.8,7.8s-6.8,9.8-6.8,13.6h9.8l10.7,2.9c0,0,3.9,6.8,9.8-1c5.8-7.8,0,0,13.7-24.4c4.1-7.3,10.7-19,17.9-31.7
		c9.2,3.2,17.2,10.3,17.2,10.3s8.8,3.9,17.6,9.8c8.8,5.8,7.8-6.8,7.8-6.8s6.8-3.9-1-11.7c-6.8-6.8-20.1-11.3-31.1-20
		c13.6-24,26.2-46.3,26.2-46.3s2.9-5.8-3.9-13.6c-6.8-7.8,5.8-10.7-7.8-12.7c-13.7-2-74.1,21.4-74.1,21.4s-16.6,2-26.3,3.9
		c-9.7,2-6.8,8.8-5.8,12.7C21.1,236.2,16.3,246,32.8,246z"></path>
	<path class="st1" d="M158.6,205c0,0,6.8-6.8,7.8-12.7c1-5.8,5.8-15.6,5.8-15.6s6.8-11.7,0-9.8c-6.8,2-17.6,10.7-17.6,10.7
		c-4.9,7.8-8.8,27.3-8.8,27.3l5.8,5.8L158.6,205z"></path>
	<path class="st1" d="M190.8,203.1c4.9-7.8,5.8-9.7,10.7-16.6c4.9-6.8-2-3.9-2-3.9l-5.8-2.9l-11.7,4.9c0,0-7.8,17.6-9.8,24.4
		c0,0,0,11.7,8.8,5.8C189.8,208.9,185.9,210.9,190.8,203.1z"></path>
	<path class="st1" d="M293.8,265.3l51.5-2.4c0,0,10.3,0.8,15,0c4.8-0.8,5.5-1.6,7.9-4c2.4-2.4,4-8.7-4-8.7s-23,2.4-34.8,2.4
		c-11.9,0-46.7,2.4-59.4,1.6c-12.7-0.8-38,0.8-46.7-0.8c-8.7-1.6-29.3-1.6-29.3-1.6l-5.5,0.8c0,0-2.4,0-7.9,3.2s-0.8,2.4-2.4,4.8
		c-1.6,2.4-4,15,12.7,13.5l5.5,2.4l2.4,3.2l7.9-2.4c0,0,4.8,0,7.1-2.4c2.4-2.4,7.1-0.8,12.7-3.2c5.5-2.4,2.4-0.8,6.3-2.4
		c4-1.6,35.6-3.2,55.4-4.8C308,262.9,293.8,265.3,293.8,265.3z"></path>
	<path class="st1" d="M420.5,257.4c3.2-0.8,9.5-1.6,9.5-8.7s-5.5-10.3-5.5-10.3l-10.3-7.1c0,0-4.8,1.6-5.5,5.5
		c-0.8,4-4.8,13.5,4.8,16.6C413.4,253.4,417.3,258.2,420.5,257.4z"></path>
	<path class="st1" d="M475.9,257.4c0,0,6.3-2.4,11.9-4c4.1-1.2,4.8-6.3,4.8-12.7s4-10.3-10.3-0.8c-14.3,9.5-24.5,16.6-37.2,23
		c-12.7,6.3-17.4,11.1-24.5,14.3s-4,14.3,0,16.6c0,0,14.3,1.6,18.2-5.5s5.5-6.3,15-15C463.2,264.5,475.9,257.4,475.9,257.4z"></path>
</g>
</svg>
